<svg width="115" height="115" viewBox="0 0 115 115" fill="none" xmlns="http://www.w3.org/2000/svg">
<g filter="url(#filter0_d)">
<path d="M95.3303 15.6696C85.2253 5.56505 71.7904 0 57.5 0C43.2096 0 29.7747 5.56505 19.6696 15.6696C9.56505 25.7745 4 39.2096 4 53.5C4 67.7904 9.56505 81.2255 19.6696 91.3303C29.7747 101.435 43.2096 107 57.5 107C71.7904 107 85.2253 101.435 95.3303 91.3303C105.435 81.2255 111 67.7904 111 53.5C111 39.2096 105.435 25.7745 95.3303 15.6696ZM57.5 103.865C29.7285 103.865 7.13477 81.2715 7.13477 53.5C7.13477 25.7285 29.7285 3.13477 57.5 3.13477C85.2715 3.13477 107.865 25.7285 107.865 53.5C107.865 81.2715 85.2715 103.865 57.5 103.865Z" fill="#A69398" fill-opacity="0.65"/>
<path d="M91.7323 38.0761L72.9237 19.2675C72.3116 18.6556 71.3191 18.6556 70.7072 19.2675L51.8986 38.0761C51.4503 38.5246 51.3162 39.1986 51.5588 39.7844C51.8014 40.3701 52.373 40.752 53.0068 40.752H57.709V45.4541C57.709 46.3199 58.4108 47.0215 59.2764 47.0215C60.142 47.0215 60.8437 46.3199 60.8437 45.4541V39.1846C60.8437 38.3187 60.142 37.6172 59.2764 37.6172H56.7907L71.8154 22.5925L86.8402 37.6172H84.3545C83.4889 37.6172 82.7871 38.3187 82.7871 39.1846V56.6348C82.7871 72.3065 70.0372 85.0566 54.3652 85.0566C38.6933 85.0566 25.9434 72.3065 25.9434 56.6348V55.0674H29.0781V56.6348C29.0781 65.3925 36.203 72.5176 44.9609 72.5176C53.7188 72.5176 60.8437 65.3925 60.8437 56.6348V51.7236C60.8437 50.8578 60.142 50.1562 59.2764 50.1562C58.4108 50.1562 57.709 50.8578 57.709 51.7236V56.6348C57.709 63.6642 51.9903 69.3828 44.9609 69.3828C37.9315 69.3828 32.2129 63.6642 32.2129 56.6348V53.5C32.2129 52.6342 31.5111 51.9326 30.6455 51.9326H24.376C23.5104 51.9326 22.8086 52.6342 22.8086 53.5V56.6348C22.8086 74.0352 36.9648 88.1914 54.3652 88.1914C71.7657 88.1914 85.9219 74.0352 85.9219 56.6348V40.752H90.624C91.2581 40.752 91.8294 40.3701 92.0721 39.7844C92.3147 39.1986 92.1805 38.5246 91.7323 38.0761Z" fill="#A69398" fill-opacity="0.65"/>
</g>
<defs>
<filter id="filter0_d" x="0" y="0" width="115" height="115" filterUnits="userSpaceOnUse" color-interpolation-filters="sRGB">
<feFlood flood-opacity="0" result="BackgroundImageFix"/>
<feColorMatrix in="SourceAlpha" type="matrix" values="0 0 0 0 0 0 0 0 0 0 0 0 0 0 0 0 0 0 127 0"/>
<feOffset dy="4"/>
<feGaussianBlur stdDeviation="2"/>
<feColorMatrix type="matrix" values="0 0 0 0 0 0 0 0 0 0 0 0 0 0 0 0 0 0 0.25 0"/>
<feBlend mode="normal" in2="BackgroundImageFix" result="effect1_dropShadow"/>
<feBlend mode="normal" in="SourceGraphic" in2="effect1_dropShadow" result="shape"/>
</filter>
</defs>
</svg>
