<svg width="111" height="104" viewBox="0 0 111 104" fill="none" xmlns="http://www.w3.org/2000/svg">
<g filter="url(#filter0_d)">
<path d="M103.279 65.788C101.029 64.4889 98.3603 64.4822 96.1505 65.6158L88.2853 61.0747C88.1218 57.6502 85.6316 54.8251 82.3646 54.1494V47.1182C85.745 46.419 88.294 43.4186 88.294 39.8338C88.294 39.0147 88.1608 38.2261 87.915 37.4884L92.3443 34.9312C93.3274 35.8795 94.6639 36.4637 96.1344 36.4637C99.1467 36.4637 101.597 34.0129 101.597 31.0008C101.597 27.9888 99.1465 25.538 96.1344 25.538C93.1224 25.538 90.6716 27.9888 90.6716 31.0008C90.6716 31.4555 90.7275 31.8972 90.8327 32.3199L86.3992 34.8795C85.0363 33.3561 83.0562 32.3957 80.8559 32.3957C78.6519 32.3957 76.6688 33.3593 75.3055 34.8873L69.2146 31.3708C69.4583 30.6359 69.5902 29.8508 69.5902 29.0354C69.5902 26.4153 68.2283 24.1073 66.1754 22.7818V13.6917C68.2283 12.3663 69.5902 10.0583 69.5902 7.4381C69.5902 6.60467 68.9149 5.92936 68.0815 5.92936C67.248 5.92936 66.5727 6.60467 66.5727 7.4381C66.5727 9.87562 64.5898 11.8589 62.1521 11.8589C59.7144 11.8589 57.7315 9.87562 57.7315 7.4381C57.7315 5.00057 59.7146 3.01748 62.1523 3.01748C62.657 3.01748 63.1509 3.10137 63.6206 3.26653C64.4062 3.54353 65.2682 3.13014 65.5446 2.34438C65.8214 1.55843 65.4084 0.697039 64.6224 0.420436C63.8302 0.141419 62.999 0 62.1523 0C58.0508 0 54.714 3.33673 54.714 7.4381C54.714 10.0583 56.0759 12.3665 58.129 13.6917V22.7816C56.0759 24.1071 54.714 26.4151 54.714 29.0352C54.714 29.8508 54.846 30.6359 55.0896 31.3708L48.9989 34.8871C47.6356 33.3593 45.6525 32.3957 43.4485 32.3957C41.2564 32.3957 39.2617 33.3438 37.8903 34.8827L31.8075 31.371C32.8922 28.0938 31.5681 24.3863 28.4639 22.5939C27.7578 22.1862 27.0119 21.9079 26.2539 21.7514V16.6426C27.6216 16.2506 28.7633 15.359 29.4764 14.1236C30.206 12.8601 30.3999 11.3876 30.0222 9.97822C29.6446 8.56885 28.7405 7.39082 27.4768 6.6612C26.2133 5.93157 24.7411 5.73805 23.3314 6.11523C21.9218 6.49302 20.744 7.39686 20.0144 8.66058C18.5082 11.2693 19.4052 14.6169 22.0137 16.1234C22.4042 16.3487 22.8146 16.5229 23.2366 16.645V21.7555C21.7017 22.0743 20.2717 22.8731 19.1912 24.0866L14.7674 21.5324C15.1114 20.1518 14.91 18.7173 14.1969 17.4821C12.6879 14.8675 9.35017 13.9728 6.73421 15.4825C4.1255 16.9886 3.2285 20.3364 4.73463 22.9454C5.74548 24.6959 7.58555 25.6756 9.47509 25.6756C10.9263 25.6756 12.2723 25.0968 13.2604 24.1467L17.6825 26.6999C17.1719 28.2426 17.195 29.8805 17.6863 31.3694L13.2588 33.925C12.9454 33.6226 12.5907 33.3533 12.1971 33.1261C9.58775 31.6198 6.24035 32.5174 4.73423 35.1257C4.0046 36.3895 3.81088 37.8618 4.18846 39.2711C4.85513 41.7598 7.10094 43.3226 9.45659 43.3226C13.0275 43.3226 15.6201 39.978 14.7647 36.5397L19.1912 33.9841C20.5714 35.5355 22.5812 36.4719 24.7321 36.4719C26.8214 36.4719 28.8669 35.5916 30.2988 33.9839L36.384 37.4971C36.2736 37.8332 36.1859 38.1808 36.1229 38.5385C35.9785 39.3591 36.5268 40.1414 37.3476 40.2858C38.1671 40.4291 38.9503 39.8821 39.0949 39.0611C39.4679 36.9406 41.3049 35.413 43.4485 35.413C45.8861 35.413 47.8694 37.3961 47.8694 39.8338C47.8694 42.2715 45.8863 44.2546 43.4485 44.2546C42.595 44.2546 41.767 44.0112 41.0541 43.5505C40.3542 43.0989 39.4202 43.2993 38.968 43.9989C38.5095 44.7085 38.726 45.6477 39.4252 46.0907V55.1801C37.3721 56.5056 36.0102 58.8136 36.0102 61.4338C36.0102 62.2499 36.1424 63.0354 36.3864 63.7707L31.9598 66.3263C30.9767 65.378 29.6401 64.7938 28.1696 64.7938C25.1574 64.7938 22.707 67.2446 22.707 70.2567C22.707 73.2687 25.1576 75.7193 28.1696 75.7193C31.1817 75.7193 33.6325 73.2687 33.6325 70.2567C33.6325 69.8021 33.5765 69.3603 33.4713 68.9376L37.8992 66.3812C39.2623 67.9083 41.245 68.8715 43.4483 68.8715C45.6531 68.8715 47.637 67.9071 49.0003 66.3782L55.0894 69.8938C54.8458 70.6286 54.7138 71.4138 54.7138 72.2293C54.7138 75.8123 57.2606 78.8117 60.639 79.5125V84.6215C60.2169 84.7436 59.8067 84.9176 59.4165 85.1429C56.8078 86.6489 55.9106 89.9967 57.4169 92.6054C58.916 95.2016 62.2593 96.1175 64.8793 94.6048C67.4941 93.0952 68.3889 89.7575 66.8787 87.1423C66.1656 85.907 65.024 85.0156 63.6564 84.6235V79.5149C64.0704 79.4298 64.4766 79.3093 64.8727 79.1536C65.648 78.8487 66.0296 77.973 65.7248 77.1973C65.4197 76.4218 64.544 76.0408 63.7685 76.3452C63.2547 76.5473 62.7108 76.6497 62.1519 76.6497C59.7144 76.6497 57.7311 74.6668 57.7311 72.2291C57.7311 69.7914 59.7142 67.8083 62.1519 67.8083C64.5896 67.8083 66.5725 69.7914 66.5725 72.2291C66.5725 73.0625 67.2478 73.7379 68.0813 73.7379C68.9147 73.7379 69.59 73.0625 69.59 72.2291C69.59 71.4136 69.4581 70.6284 69.2144 69.8938L75.3037 66.378C76.667 67.9071 78.6509 68.8715 80.8557 68.8715C82.0832 68.8715 83.2419 68.5725 84.2634 68.0437L92.1318 72.5866C92.2533 75.0273 93.5712 77.3606 95.8401 78.6708C99.4219 80.7384 103.967 79.4703 106.001 75.9483C108.057 72.3888 106.839 67.8435 103.279 65.788ZM96.1344 28.5555C97.4828 28.5555 98.5798 29.6524 98.5798 31.0008C98.5798 32.3492 97.4828 33.4462 96.1344 33.4462C94.786 33.4462 93.689 32.3492 93.689 31.0008C93.689 29.6524 94.786 28.5555 96.1344 28.5555ZM11.5837 39.08C10.907 40.2516 9.41133 40.6501 8.24296 39.975C7.07237 39.2991 6.67205 37.8055 7.34777 36.6345C8.01986 35.4705 9.51654 35.063 10.6885 35.7393C11.8563 36.4134 12.2578 37.9123 11.5837 39.08ZM22.6273 10.1691C23.4312 8.77706 25.3372 8.52399 26.4774 9.6642C26.8962 10.083 27.6357 11.2767 26.8632 12.6147C26.1875 13.7849 24.6935 14.186 23.5225 13.5099C22.3547 12.8358 21.953 11.3371 22.6273 10.1691ZM10.6883 22.3314C9.52056 23.0055 8.02187 22.6038 7.34757 21.4362C6.67326 20.2682 7.07519 18.7696 8.24275 18.0955C9.41334 17.4197 10.9074 17.8199 11.5833 18.9906C12.253 20.1502 11.8692 21.6494 10.6883 22.3314ZM22.5346 32.8638C20.4237 31.645 19.6977 28.9361 20.9164 26.8248C22.135 24.714 24.8437 23.9876 26.9554 25.2069C29.0712 26.4285 29.795 29.1296 28.5734 31.2456C27.3545 33.3567 24.6452 34.0819 22.5346 32.8638ZM28.1698 72.7023C26.8216 72.7023 25.7246 71.6053 25.7246 70.2571C25.7246 68.9087 26.8216 67.8117 28.1698 67.8117C29.5182 67.8117 30.6152 68.9087 30.6152 70.2571C30.6152 71.6053 29.5182 72.7023 28.1698 72.7023ZM64.2656 88.6515C64.9413 89.8219 64.5414 91.3159 63.3706 91.9918C62.2028 92.6661 60.7041 92.2644 60.0302 91.0968C59.3559 89.9291 59.7578 88.4306 60.9254 87.7565C62.0956 87.081 63.59 87.4811 64.2656 88.6515ZM92.6738 69.4154L86.7342 65.9861C87.1443 65.4577 87.4849 64.8729 87.7422 64.2453L93.6786 67.6727C93.2732 68.1984 92.9313 68.7864 92.6738 69.4154ZM80.8559 35.4132C83.2934 35.4132 85.2765 37.3963 85.2765 39.834C85.2765 42.2717 83.2936 44.2548 80.8559 44.2548C78.4182 44.2548 76.4351 42.2717 76.4351 39.834C76.4351 37.3963 78.4184 35.4132 80.8559 35.4132ZM61.1465 14.8084C61.813 14.8989 62.4913 14.8989 63.1581 14.8084V21.6649C62.4917 21.5744 61.8134 21.5744 61.1465 21.6649V14.8084ZM62.1523 24.6146C64.5898 24.6146 66.5729 26.5977 66.5729 29.0354C66.5729 31.4732 64.59 33.4561 62.1523 33.4561C59.7146 33.4561 57.7315 31.4732 57.7315 29.0354C57.7315 26.5977 59.7146 24.6146 62.1523 24.6146ZM42.4427 47.2043C43.1052 47.2942 43.7839 47.2952 44.4544 47.2043V54.0637C43.7879 53.9731 43.1096 53.9731 42.4427 54.0637V47.2043ZM43.4485 65.8544C41.011 65.8544 39.0277 63.8715 39.0277 61.4338C39.0277 58.996 41.0108 57.013 43.4485 57.013C45.8863 57.013 47.8694 58.996 47.8694 61.4338C47.8694 63.8715 45.8861 65.8544 43.4485 65.8544ZM67.7025 67.2829C66.3392 65.7548 64.3561 64.7912 62.1523 64.7912C59.9483 64.7912 57.9653 65.7548 56.602 67.2827L50.5119 63.7667C50.7549 63.0326 50.8868 62.2481 50.8868 61.4336C50.8868 58.8134 49.525 56.5052 47.4719 55.1799V46.0872C49.525 44.7618 50.8868 42.4538 50.8868 39.8336C50.8868 39.0181 50.7549 38.2329 50.5113 37.4981L56.6022 33.9817C57.9655 35.5096 59.9486 36.4731 62.1525 36.4731C64.3565 36.4731 66.3394 35.5096 67.7027 33.9817L73.7936 37.4983C73.55 38.2331 73.418 39.0183 73.418 39.8336C73.418 43.4184 75.9668 46.4188 79.3475 47.118V54.1492C75.967 54.8484 73.418 57.8488 73.418 61.4336C73.418 62.2481 73.5498 63.0324 73.7928 63.7665L67.7025 67.2829ZM76.4353 61.4338C76.4353 58.9962 78.4184 57.013 80.8561 57.013C83.4352 57.013 85.4744 59.2224 85.2614 61.7997C85.2606 61.8097 85.2596 61.8198 85.259 61.8299C85.058 64.0825 83.16 65.8542 80.8561 65.8542C78.4184 65.8544 76.4353 63.8713 76.4353 61.4338ZM103.388 74.4399C102.169 76.5506 99.4601 77.2768 97.3491 76.0581C95.2382 74.8392 94.5122 72.1303 95.7309 70.0191C96.9431 67.9195 99.6387 67.1708 101.77 68.4011C103.886 69.6228 104.61 72.3239 103.388 74.4399Z" fill="#6A8B9E"/>
</g>
<defs>
<filter id="filter0_d" x="0" y="0" width="111" height="103.336" filterUnits="userSpaceOnUse" color-interpolation-filters="sRGB">
<feFlood flood-opacity="0" result="BackgroundImageFix"/>
<feColorMatrix in="SourceAlpha" type="matrix" values="0 0 0 0 0 0 0 0 0 0 0 0 0 0 0 0 0 0 127 0"/>
<feOffset dy="4"/>
<feGaussianBlur stdDeviation="2"/>
<feColorMatrix type="matrix" values="0 0 0 0 0 0 0 0 0 0 0 0 0 0 0 0 0 0 0.25 0"/>
<feBlend mode="normal" in2="BackgroundImageFix" result="effect1_dropShadow"/>
<feBlend mode="normal" in="SourceGraphic" in2="effect1_dropShadow" result="shape"/>
</filter>
</defs>
</svg>
