<svg width="103" height="96" viewBox="0 0 103 96" fill="none" xmlns="http://www.w3.org/2000/svg">
<path d="M99.2786 65.788C97.0292 64.4889 94.3603 64.4822 92.1505 65.6158L84.2853 61.0747C84.1218 57.6502 81.6316 54.8251 78.3646 54.1494V47.1182C81.745 46.419 84.294 43.4186 84.294 39.8338C84.294 39.0147 84.1608 38.2261 83.915 37.4884L88.3443 34.9312C89.3274 35.8795 90.6639 36.4637 92.1344 36.4637C95.1467 36.4637 97.5973 34.0129 97.5973 31.0008C97.5973 27.9888 95.1465 25.538 92.1344 25.538C89.1224 25.538 86.6716 27.9888 86.6716 31.0008C86.6716 31.4555 86.7275 31.8972 86.8327 32.3199L82.3992 34.8795C81.0363 33.3561 79.0562 32.3957 76.8559 32.3957C74.6519 32.3957 72.6688 33.3593 71.3055 34.8873L65.2146 31.3708C65.4583 30.6359 65.5902 29.8508 65.5902 29.0354C65.5902 26.4153 64.2283 24.1073 62.1754 22.7818V13.6917C64.2283 12.3663 65.5902 10.0583 65.5902 7.4381C65.5902 6.60467 64.9149 5.92936 64.0815 5.92936C63.248 5.92936 62.5727 6.60467 62.5727 7.4381C62.5727 9.87562 60.5898 11.8589 58.1521 11.8589C55.7144 11.8589 53.7315 9.87562 53.7315 7.4381C53.7315 5.00057 55.7146 3.01748 58.1523 3.01748C58.657 3.01748 59.1509 3.10137 59.6206 3.26653C60.4062 3.54353 61.2682 3.13014 61.5446 2.34438C61.8214 1.55843 61.4084 0.697039 60.6224 0.420436C59.8302 0.141419 58.999 0 58.1523 0C54.0508 0 50.714 3.33673 50.714 7.4381C50.714 10.0583 52.0759 12.3665 54.129 13.6917V22.7816C52.0759 24.1071 50.714 26.4151 50.714 29.0352C50.714 29.8508 50.846 30.6359 51.0896 31.3708L44.9989 34.8871C43.6356 33.3593 41.6525 32.3957 39.4485 32.3957C37.2564 32.3957 35.2617 33.3438 33.8903 34.8827L27.8075 31.371C28.8922 28.0938 27.5681 24.3863 24.4639 22.5939C23.7578 22.1862 23.0119 21.9079 22.2539 21.7514V16.6426C23.6216 16.2506 24.7633 15.359 25.4764 14.1236C26.206 12.8601 26.3999 11.3876 26.0222 9.97822C25.6446 8.56885 24.7405 7.39082 23.4768 6.6612C22.2133 5.93157 20.7411 5.73805 19.3314 6.11523C17.9218 6.49302 16.744 7.39686 16.0144 8.66058C14.5082 11.2693 15.4052 14.6169 18.0137 16.1234C18.4042 16.3487 18.8146 16.5229 19.2366 16.645V21.7555C17.7017 22.0743 16.2717 22.8731 15.1912 24.0866L10.7674 21.5324C11.1114 20.1518 10.91 18.7173 10.1969 17.4821C8.68791 14.8675 5.35017 13.9728 2.73421 15.4825C0.125498 16.9886 -0.771499 20.3364 0.734628 22.9454C1.74548 24.6959 3.58555 25.6756 5.47509 25.6756C6.9263 25.6756 8.2723 25.0968 9.26043 24.1467L13.6825 26.6999C13.1719 28.2426 13.195 29.8805 13.6863 31.3694L9.25882 33.925C8.9454 33.6226 8.59075 33.3533 8.19707 33.1261C5.58775 31.6198 2.24035 32.5174 0.734225 35.1257C0.00459755 36.3895 -0.189125 37.8618 0.188463 39.2711C0.855126 41.7598 3.10094 43.3226 5.45659 43.3226C9.02748 43.3226 11.6201 39.978 10.7647 36.5397L15.1912 33.9841C16.5714 35.5355 18.5812 36.4719 20.7321 36.4719C22.8214 36.4719 24.8669 35.5916 26.2988 33.9839L32.384 37.4971C32.2736 37.8332 32.1859 38.1808 32.1229 38.5385C31.9785 39.3591 32.5268 40.1414 33.3476 40.2858C34.1671 40.4291 34.9503 39.8821 35.0949 39.0611C35.4679 36.9406 37.3049 35.413 39.4485 35.413C41.8861 35.413 43.8694 37.3961 43.8694 39.8338C43.8694 42.2715 41.8863 44.2546 39.4485 44.2546C38.595 44.2546 37.767 44.0112 37.0541 43.5505C36.3542 43.0989 35.4202 43.2993 34.968 43.9989C34.5095 44.7085 34.726 45.6477 35.4252 46.0907V55.1801C33.3721 56.5056 32.0102 58.8136 32.0102 61.4338C32.0102 62.2499 32.1424 63.0354 32.3864 63.7707L27.9598 66.3263C26.9767 65.378 25.6401 64.7938 24.1696 64.7938C21.1574 64.7938 18.707 67.2446 18.707 70.2567C18.707 73.2687 21.1576 75.7193 24.1696 75.7193C27.1817 75.7193 29.6325 73.2687 29.6325 70.2567C29.6325 69.8021 29.5765 69.3603 29.4713 68.9376L33.8992 66.3812C35.2623 67.9083 37.245 68.8715 39.4483 68.8715C41.6531 68.8715 43.637 67.9071 45.0003 66.3782L51.0894 69.8938C50.8458 70.6286 50.7138 71.4138 50.7138 72.2293C50.7138 75.8123 53.2606 78.8117 56.639 79.5125V84.6215C56.2169 84.7436 55.8067 84.9176 55.4165 85.1429C52.8078 86.6489 51.9106 89.9967 53.4169 92.6054C54.916 95.2016 58.2593 96.1175 60.8793 94.6048C63.4941 93.0952 64.3889 89.7575 62.8787 87.1423C62.1656 85.907 61.024 85.0156 59.6564 84.6235V79.5149C60.0704 79.4298 60.4766 79.3093 60.8727 79.1536C61.648 78.8487 62.0296 77.973 61.7248 77.1973C61.4197 76.4218 60.544 76.0408 59.7685 76.3452C59.2547 76.5473 58.7108 76.6497 58.1519 76.6497C55.7144 76.6497 53.7311 74.6668 53.7311 72.2291C53.7311 69.7914 55.7142 67.8083 58.1519 67.8083C60.5896 67.8083 62.5725 69.7914 62.5725 72.2291C62.5725 73.0625 63.2478 73.7379 64.0813 73.7379C64.9147 73.7379 65.59 73.0625 65.59 72.2291C65.59 71.4136 65.4581 70.6284 65.2144 69.8938L71.3037 66.378C72.667 67.9071 74.6509 68.8715 76.8557 68.8715C78.0832 68.8715 79.2419 68.5725 80.2634 68.0437L88.1318 72.5866C88.2533 75.0273 89.5712 77.3606 91.8401 78.6708C95.4219 80.7384 99.9674 79.4703 102.001 75.9483C104.057 72.3888 102.839 67.8435 99.2786 65.788ZM92.1344 28.5555C93.4828 28.5555 94.5798 29.6524 94.5798 31.0008C94.5798 32.3492 93.4828 33.4462 92.1344 33.4462C90.786 33.4462 89.689 32.3492 89.689 31.0008C89.689 29.6524 90.786 28.5555 92.1344 28.5555ZM7.58371 39.08C6.90699 40.2516 5.41133 40.6501 4.24296 39.975C3.07237 39.2991 2.67205 37.8055 3.34777 36.6345C4.01986 35.4705 5.51654 35.063 6.68853 35.7393C7.85629 36.4134 8.25782 37.9123 7.58371 39.08ZM18.6273 10.1691C19.4312 8.77706 21.3372 8.52399 22.4774 9.6642C22.8962 10.083 23.6357 11.2767 22.8632 12.6147C22.1875 13.7849 20.6935 14.186 19.5225 13.5099C18.3547 12.8358 17.953 11.3371 18.6273 10.1691ZM6.68832 22.3314C5.52056 23.0055 4.02187 22.6038 3.34757 21.4362C2.67326 20.2682 3.07519 18.7696 4.24275 18.0955C5.41334 17.4197 6.90739 17.8199 7.58331 18.9906C8.25299 20.1502 7.86917 21.6494 6.68832 22.3314ZM18.5346 32.8638C16.4237 31.645 15.6977 28.9361 16.9164 26.8248C18.135 24.714 20.8437 23.9876 22.9554 25.2069C25.0712 26.4285 25.795 29.1296 24.5734 31.2456C23.3545 33.3567 20.6452 34.0819 18.5346 32.8638ZM24.1698 72.7023C22.8216 72.7023 21.7246 71.6053 21.7246 70.2571C21.7246 68.9087 22.8216 67.8117 24.1698 67.8117C25.5182 67.8117 26.6152 68.9087 26.6152 70.2571C26.6152 71.6053 25.5182 72.7023 24.1698 72.7023ZM60.2656 88.6515C60.9413 89.8219 60.5414 91.3159 59.3706 91.9918C58.2028 92.6661 56.7041 92.2644 56.0302 91.0968C55.3559 89.9291 55.7578 88.4306 56.9254 87.7565C58.0956 87.081 59.59 87.4811 60.2656 88.6515ZM88.6738 69.4154L82.7342 65.9861C83.1443 65.4577 83.4849 64.8729 83.7422 64.2453L89.6786 67.6727C89.2732 68.1984 88.9313 68.7864 88.6738 69.4154ZM76.8559 35.4132C79.2934 35.4132 81.2765 37.3963 81.2765 39.834C81.2765 42.2717 79.2936 44.2548 76.8559 44.2548C74.4182 44.2548 72.4351 42.2717 72.4351 39.834C72.4351 37.3963 74.4184 35.4132 76.8559 35.4132ZM57.1465 14.8084C57.813 14.8989 58.4913 14.8989 59.1581 14.8084V21.6649C58.4917 21.5744 57.8134 21.5744 57.1465 21.6649V14.8084ZM58.1523 24.6146C60.5898 24.6146 62.5729 26.5977 62.5729 29.0354C62.5729 31.4732 60.59 33.4561 58.1523 33.4561C55.7146 33.4561 53.7315 31.4732 53.7315 29.0354C53.7315 26.5977 55.7146 24.6146 58.1523 24.6146ZM38.4427 47.2043C39.1052 47.2942 39.7839 47.2952 40.4544 47.2043V54.0637C39.7879 53.9731 39.1096 53.9731 38.4427 54.0637V47.2043ZM39.4485 65.8544C37.011 65.8544 35.0277 63.8715 35.0277 61.4338C35.0277 58.996 37.0108 57.013 39.4485 57.013C41.8863 57.013 43.8694 58.996 43.8694 61.4338C43.8694 63.8715 41.8861 65.8544 39.4485 65.8544ZM63.7025 67.2829C62.3392 65.7548 60.3561 64.7912 58.1523 64.7912C55.9483 64.7912 53.9653 65.7548 52.602 67.2827L46.5119 63.7667C46.7549 63.0326 46.8868 62.2481 46.8868 61.4336C46.8868 58.8134 45.525 56.5052 43.4719 55.1799V46.0872C45.525 44.7618 46.8868 42.4538 46.8868 39.8336C46.8868 39.0181 46.7549 38.2329 46.5113 37.4981L52.6022 33.9817C53.9655 35.5096 55.9486 36.4731 58.1525 36.4731C60.3565 36.4731 62.3394 35.5096 63.7027 33.9817L69.7936 37.4983C69.55 38.2331 69.418 39.0183 69.418 39.8336C69.418 43.4184 71.9668 46.4188 75.3475 47.118V54.1492C71.967 54.8484 69.418 57.8488 69.418 61.4336C69.418 62.2481 69.5498 63.0324 69.7928 63.7665L63.7025 67.2829ZM72.4353 61.4338C72.4353 58.9962 74.4184 57.013 76.8561 57.013C79.4352 57.013 81.4744 59.2224 81.2614 61.7997C81.2606 61.8097 81.2596 61.8198 81.259 61.8299C81.058 64.0825 79.16 65.8542 76.8561 65.8542C74.4184 65.8544 72.4353 63.8713 72.4353 61.4338ZM99.3878 74.4399C98.1692 76.5506 95.4601 77.2768 93.3491 76.0581C91.2382 74.8392 90.5122 72.1303 91.7309 70.0191C92.9431 67.9195 95.6387 67.1708 97.7699 68.4011C99.8859 69.6228 100.61 72.3239 99.3878 74.4399Z" fill="#6A8B9E"/>
</svg>
