<svg width="83" height="83" viewBox="0 0 83 83" fill="none" xmlns="http://www.w3.org/2000/svg">
<path d="M79.1856 24.6905H66.1907C65.5192 24.6905 64.9748 25.2349 64.9748 25.9063C64.9748 26.5778 65.5192 27.1221 66.1907 27.1221H79.1856C79.9483 27.1221 80.5687 27.7427 80.5687 28.5053V54.4951C80.5687 55.2578 79.9481 55.8782 79.1856 55.8782H57.094C56.4226 55.8782 55.8782 56.4226 55.8782 57.094V79.1854C55.8782 79.9481 55.2576 80.5685 54.4951 80.5685H42.716V42.7363C47.6294 42.6408 52.5684 40.4343 56.4407 36.562C60.6509 32.3518 62.8933 26.8812 62.5929 21.553C62.5581 20.9354 62.0651 20.4424 61.4475 20.4075C56.1197 20.1093 50.6488 22.3495 46.4385 26.5598C42.2404 30.7579 39.9994 36.2092 40.2845 41.5229V55.3084L26.8412 41.8649C26.3664 41.3901 25.5965 41.3901 25.1219 41.8649C24.647 42.3397 24.647 43.1096 25.1219 43.5842L31.7411 50.2038C28.6891 49.6361 25.6636 48.0248 23.2514 45.6124C20.321 42.6821 18.5726 38.8477 18.4407 35.1586C22.1296 35.2907 25.9644 37.0392 28.8945 39.9694C29.9406 41.0156 30.8426 42.175 31.5751 43.4158C31.9165 43.9941 32.6621 44.186 33.2402 43.8446C33.8183 43.5032 34.0104 42.7577 33.669 42.1796C32.8325 40.7629 31.8047 39.4407 30.6138 38.2502C26.8443 34.4806 21.946 32.474 17.1694 32.7422C16.5518 32.777 16.0588 33.27 16.0239 33.8876C15.7548 38.6623 17.7624 43.5627 21.5319 47.3321C25.0771 50.8774 29.6224 52.8641 34.1227 52.8641C34.2143 52.8641 34.3057 52.8618 34.3972 52.8602L38.721 57.184C39.631 58.0941 40.1757 59.2715 40.2843 60.539V80.5687H28.5053C27.7425 80.5687 27.1221 79.9481 27.1221 79.1856V57.094C27.1221 56.4226 26.5778 55.8782 25.9063 55.8782H3.81477C3.05205 55.8782 2.43165 55.2576 2.43165 54.4951V28.5053C2.43165 27.7425 3.05221 27.1221 3.81477 27.1221H25.9062C26.5776 27.1221 27.122 26.5778 27.122 25.9063V3.81477C27.122 3.05205 27.7425 2.43165 28.5051 2.43165H54.4949C55.2576 2.43165 55.878 3.05221 55.878 3.81477V16.8092C55.878 17.4806 56.4224 18.025 57.0938 18.025C57.7653 18.025 58.3097 17.4806 58.3097 16.8092V3.81477C58.3098 1.7114 56.5986 0 54.4951 0H28.5053C26.4017 0 24.6905 1.7114 24.6905 3.81477V24.6903H3.81477C1.7114 24.6905 0 26.4017 0 28.5053V54.4951C0 56.5986 1.7114 58.3098 3.81477 58.3098H24.6903V79.1854C24.6903 81.2889 26.4017 83.0002 28.5051 83.0002H54.4949C56.5984 83.0002 58.3097 81.2888 58.3097 79.1854V58.3098H79.1852C81.2888 58.3098 83 56.5984 83 54.4951V28.5053C83.0003 26.4017 81.2889 24.6905 79.1856 24.6905ZM48.1579 28.2791C51.5242 24.9129 55.9448 22.9217 60.1825 22.8178C60.0786 27.0555 58.0874 31.4763 54.7212 34.8425C51.8528 37.7107 48.2191 39.5796 44.5853 40.1344L51.4563 33.2634C51.9311 32.7885 51.9311 32.0187 51.4563 31.544C50.9815 31.0692 50.2116 31.0692 49.737 31.544L42.8659 38.415C43.4207 34.7812 45.2896 31.1473 48.1579 28.2791Z" fill="#A69398"/>
</svg>
