<svg width="91" height="91" viewBox="0 0 91 91" fill="none" xmlns="http://www.w3.org/2000/svg">
<g filter="url(#filter0_d)">
<path d="M83.1856 24.6905H70.1907C69.5192 24.6905 68.9748 25.2349 68.9748 25.9063C68.9748 26.5778 69.5192 27.1221 70.1907 27.1221H83.1856C83.9483 27.1221 84.5687 27.7427 84.5687 28.5053V54.4951C84.5687 55.2578 83.9481 55.8782 83.1856 55.8782H61.094C60.4226 55.8782 59.8782 56.4226 59.8782 57.094V79.1854C59.8782 79.9481 59.2576 80.5685 58.4951 80.5685H46.716V42.7363C51.6294 42.6408 56.5684 40.4343 60.4407 36.562C64.6509 32.3518 66.8933 26.8812 66.5929 21.553C66.5581 20.9354 66.0651 20.4424 65.4475 20.4075C60.1197 20.1093 54.6488 22.3495 50.4385 26.5598C46.2404 30.7579 43.9994 36.2092 44.2845 41.5229V55.3084L30.8412 41.8649C30.3664 41.3901 29.5965 41.3901 29.1219 41.8649C28.647 42.3397 28.647 43.1096 29.1219 43.5842L35.7411 50.2038C32.6891 49.6361 29.6636 48.0248 27.2514 45.6124C24.321 42.6821 22.5726 38.8477 22.4407 35.1586C26.1296 35.2907 29.9644 37.0392 32.8945 39.9694C33.9406 41.0156 34.8426 42.175 35.5751 43.4158C35.9165 43.9941 36.6621 44.186 37.2402 43.8446C37.8183 43.5032 38.0104 42.7577 37.669 42.1796C36.8325 40.7629 35.8047 39.4407 34.6138 38.2502C30.8443 34.4806 25.946 32.474 21.1694 32.7422C20.5518 32.777 20.0588 33.27 20.0239 33.8876C19.7548 38.6623 21.7624 43.5627 25.5319 47.3321C29.0771 50.8774 33.6224 52.8641 38.1227 52.8641C38.2143 52.8641 38.3057 52.8618 38.3972 52.8602L42.721 57.184C43.631 58.0941 44.1757 59.2715 44.2843 60.539V80.5687H32.5053C31.7425 80.5687 31.1221 79.9481 31.1221 79.1856V57.094C31.1221 56.4226 30.5778 55.8782 29.9063 55.8782H7.81477C7.05205 55.8782 6.43165 55.2576 6.43165 54.4951V28.5053C6.43165 27.7425 7.05221 27.1221 7.81477 27.1221H29.9062C30.5776 27.1221 31.122 26.5778 31.122 25.9063V3.81477C31.122 3.05205 31.7425 2.43165 32.5051 2.43165H58.4949C59.2576 2.43165 59.878 3.05221 59.878 3.81477V16.8092C59.878 17.4806 60.4224 18.025 61.0938 18.025C61.7653 18.025 62.3097 17.4806 62.3097 16.8092V3.81477C62.3098 1.7114 60.5986 0 58.4951 0H32.5053C30.4017 0 28.6905 1.7114 28.6905 3.81477V24.6903H7.81477C5.7114 24.6905 4 26.4017 4 28.5053V54.4951C4 56.5986 5.7114 58.3098 7.81477 58.3098H28.6903V79.1854C28.6903 81.2889 30.4017 83.0002 32.5051 83.0002H58.4949C60.5984 83.0002 62.3097 81.2888 62.3097 79.1854V58.3098H83.1852C85.2888 58.3098 87 56.5984 87 54.4951V28.5053C87.0003 26.4017 85.2889 24.6905 83.1856 24.6905ZM52.1579 28.2791C55.5242 24.9129 59.9448 22.9217 64.1825 22.8178C64.0786 27.0555 62.0874 31.4763 58.7212 34.8425C55.8528 37.7107 52.2191 39.5796 48.5853 40.1344L55.4563 33.2634C55.9311 32.7885 55.9311 32.0187 55.4563 31.544C54.9815 31.0692 54.2116 31.0692 53.737 31.544L46.8659 38.415C47.4207 34.7812 49.2896 31.1473 52.1579 28.2791Z" fill="#A69398"/>
</g>
<defs>
<filter id="filter0_d" x="0" y="0" width="91" height="91.0002" filterUnits="userSpaceOnUse" color-interpolation-filters="sRGB">
<feFlood flood-opacity="0" result="BackgroundImageFix"/>
<feColorMatrix in="SourceAlpha" type="matrix" values="0 0 0 0 0 0 0 0 0 0 0 0 0 0 0 0 0 0 127 0"/>
<feOffset dy="4"/>
<feGaussianBlur stdDeviation="2"/>
<feColorMatrix type="matrix" values="0 0 0 0 0 0 0 0 0 0 0 0 0 0 0 0 0 0 0.25 0"/>
<feBlend mode="normal" in2="BackgroundImageFix" result="effect1_dropShadow"/>
<feBlend mode="normal" in="SourceGraphic" in2="effect1_dropShadow" result="shape"/>
</filter>
</defs>
</svg>
