<svg width="95" height="98" viewBox="0 0 95 98" fill="none" xmlns="http://www.w3.org/2000/svg">
<g filter="url(#filter0_d)">
<path d="M73.2981 58.6614H67.8605V56.4664C76.6724 53.9474 82.6916 46.7685 82.573 38.972C85.7088 39.1044 88.4858 37.021 88.4858 34.3468V31.0225C88.4858 28.71 86.4508 26.7885 83.8032 26.4502C85.3304 23.9288 86.0481 21.229 85.8929 18.5273C85.7951 16.8254 82.6574 16.9539 82.7552 18.654C82.8572 20.4291 82.533 23.0411 80.5952 25.8928C78.8427 24.6665 75.6186 22.0935 72.9911 18.2171C74.9084 16.0817 76.3289 13.6598 77.2259 10.9749C78.4238 11.3092 79.5434 12.0095 80.4639 13.0159C81.7374 14.4084 84.1678 12.7372 82.9569 11.4135C81.4126 9.72512 79.4146 8.62734 77.2452 8.25708C73.6242 0.295517 63.9434 -0.397602 55.4751 2.28516C53.4359 2.93123 51.6748 3.48899 49.6109 3.48899C46.1943 3.48899 45.5342 1.28779 45.4735 1.05061C45.0356 0.0481495 44.2343 -0.236963 43.0699 0.195446C42.7859 0.35152 36.0861 4.08906 33.9759 10.3856C32.1182 15.9286 33.0305 21.96 37.2966 26.5661C35.3074 27.0304 33.7677 28.4077 33.3627 30.123C31.0985 29.4827 28.701 29.1502 26.2425 29.1502C14.0366 29.1502 4 37.8839 4 48.0433V56.4871C4 58.1895 7.14142 58.1895 7.14142 56.4871V48.0433C7.14142 39.143 15.6446 31.8493 26.0961 31.7841C36.5778 31.7106 45.3411 39.0434 45.3411 47.8254V73.2685C45.3411 74.1583 45.0291 75.0068 44.4575 75.724C42.1205 73.4666 38.6769 72.0372 34.8433 72.0372H31.5854V71.3725C38.058 69.5045 42.7224 64.3416 42.7224 58.281V49.7643C42.625 48.9409 42.0841 48.5024 41.0991 48.4483C30.3098 48.7501 27.8643 41.0621 27.7651 40.7345C27.3776 39.4346 25.0502 39.4407 24.7059 40.7754C23.4236 45.8698 17.0139 48.4474 11.3518 48.4474C10.5515 48.4474 9.7599 49.0975 9.7599 49.7641V58.2808C9.7599 64.3414 14.4243 69.5043 20.8971 71.3723V72.037H17.6392C13.8056 72.037 10.362 73.4664 8.025 75.7236C7.45347 75.0064 7.14142 74.1578 7.14142 73.2682V63.7896C7.14142 62.0872 4 62.0872 4 63.7896V73.2682C4 75.0545 4.78913 76.7378 6.20025 78.0289C5.36882 79.4489 4.90159 81.0449 4.90159 82.731V88.5221C4.90159 89.2492 5.60464 89.8388 6.4723 89.8388C7.33996 89.8388 8.04301 89.2492 8.04301 88.5221V82.731C8.04301 78.2863 12.3478 74.6702 17.639 74.6702H20.8969V74.6767C20.8969 77.1469 23.294 79.1565 26.2415 79.1565C29.1881 79.1565 31.5854 77.1469 31.5854 74.6767V74.6702H34.8433C40.0579 74.6702 44.4393 78.3804 44.4393 82.731V88.5221C44.4393 89.2492 45.1424 89.8388 46.01 89.8388C46.8777 89.8388 47.5807 89.2492 47.5807 88.5221V82.731C47.5807 81.0449 47.1135 79.4487 46.2821 78.0289C47.6934 76.7378 48.4823 75.0549 48.4823 73.268V61.2947H53.8956C54.113 64.3621 57.1587 66.8017 60.8721 66.8017C64.5848 66.8017 67.6303 64.3621 67.8477 61.2947H73.2979C81.3267 61.2947 87.8586 66.781 87.8586 73.5247V88.551C87.8586 89.2782 88.5616 89.8678 89.4293 89.8678C90.297 89.8678 91 89.2782 91 88.551V73.5247C91.0004 65.3291 83.0593 58.6614 73.2981 58.6614ZM12.9015 58.2808V51.0382C18.3944 50.7299 23.4898 48.465 26.2643 44.4083C29.0453 48.4602 34.0217 50.8695 39.5812 51.0738V58.2806C39.5812 64.4588 33.597 69.4854 26.2415 69.4854C18.8859 69.4854 12.9015 64.459 12.9015 58.2808ZM26.2411 76.5231C25.0266 76.5231 24.0385 75.6948 24.0385 74.6767V71.9957C25.507 72.1599 26.9755 72.1599 28.444 71.9957V74.6767C28.4442 75.695 27.4562 76.5231 26.2411 76.5231ZM85.3446 31.0225V34.3468C85.3446 35.6734 83.9953 36.3605 82.5732 36.3386V29.0306C83.9953 29.0087 85.3446 29.696 85.3446 31.0225ZM37.0004 11.0978C38.2218 7.45318 41.3909 4.73899 43.2898 3.37751C44.3323 4.75356 46.3049 6.12242 49.6109 6.12242C52.2487 6.12242 54.4533 5.42386 56.5857 4.74847C63.4227 2.58256 71.7707 2.71002 74.4407 9.49075C70.9238 21.8029 55.0278 26.5167 41.3402 26.4075C39.7624 25.19 34.014 20.0083 37.0004 11.0978ZM36.3994 31.0225C36.3994 29.696 37.7487 29.0088 39.1707 29.0306V32.6242C38.2855 32.0908 37.3594 31.6156 36.3994 31.2007V31.0225ZM42.3122 34.9149V29.0412C45.0337 29.0087 50.7747 28.7258 56.9296 27.1161C62.6637 25.6163 67.33 23.3247 70.827 20.3268C74.0598 24.775 77.8833 27.4937 79.4316 28.4871V39.2431C79.4316 47.8214 71.1064 54.8003 60.8704 54.8003C56.2655 54.8003 51.8922 53.3935 48.4825 50.8272V47.8252C48.4825 42.9713 46.2959 38.4063 42.3122 34.9149ZM48.4825 54.1818C50.1533 55.1586 51.9697 55.9272 53.8833 56.4715V58.6613H48.4825V54.1818ZM60.8715 64.1685C58.7504 64.1685 57.0247 62.7218 57.0247 60.9437V57.1491C58.2836 57.3375 59.5705 57.4339 60.8736 57.4339C62.1856 57.4339 63.4707 57.3358 64.7191 57.1479V60.9439C64.7193 62.7218 62.9934 64.1685 60.8715 64.1685Z" fill="#A69398"/>
</g>
<path d="M60.8722 49.3303C64.4586 49.3303 67.8317 48.1561 70.3706 46.0241C70.9836 45.5094 70.9827 44.6756 70.3687 44.1619C69.7542 43.648 68.7601 43.6489 68.1475 44.1635C66.2023 45.7971 63.6186 46.6967 60.8724 46.6967C58.1261 46.6967 55.5422 45.7971 53.5968 44.1635C52.984 43.6489 51.9895 43.6482 51.3756 44.1619C50.7616 44.6758 50.7608 45.5094 51.3737 46.0241C53.9124 48.1563 57.2857 49.3303 60.8722 49.3303Z" fill="#A69398"/>
<path d="M77.453 75.3743C76.5854 75.3743 75.8823 75.9638 75.8823 76.691V88.5511C75.8823 89.2782 76.5854 89.8678 77.453 89.8678C78.3207 89.8678 79.0237 89.2782 79.0237 88.5511V76.691C79.0237 75.9638 78.3207 75.3743 77.453 75.3743Z" fill="#A69398"/>
<path d="M14.7631 83.6062C13.8954 83.6062 13.1924 84.1957 13.1924 84.9229V88.5221C13.1924 89.2493 13.8954 89.8388 14.7631 89.8388C15.6308 89.8388 16.3338 89.2493 16.3338 88.5221V84.9229C16.3338 84.1957 15.6308 83.6062 14.7631 83.6062Z" fill="#A69398"/>
<path d="M37.7196 83.6062C36.852 83.6062 36.1489 84.1957 36.1489 84.9229V88.5221C36.1489 89.2493 36.852 89.8388 37.7196 89.8388C38.5873 89.8388 39.2903 89.2493 39.2903 88.5221V84.9229C39.2903 84.1957 38.5871 83.6062 37.7196 83.6062Z" fill="#A69398"/>
<path d="M32.7735 63.7762C33.3865 63.2615 33.3857 62.4279 32.7716 61.9141C32.1576 61.4002 31.163 61.4011 30.5505 61.9156C29.398 62.8833 27.8677 63.4162 26.2413 63.4162C24.6148 63.4162 23.0848 62.8833 21.9323 61.9156C21.3195 61.4011 20.3249 61.4002 19.7111 61.9141C19.097 62.4279 19.0962 63.2615 19.7092 63.7762C21.455 65.2424 23.7748 66.0498 26.2413 66.0498C28.7079 66.0498 31.0277 65.2424 32.7735 63.7762Z" fill="#A69398"/>
<defs>
<filter id="filter0_d" x="0" y="0" width="95" height="97.8678" filterUnits="userSpaceOnUse" color-interpolation-filters="sRGB">
<feFlood flood-opacity="0" result="BackgroundImageFix"/>
<feColorMatrix in="SourceAlpha" type="matrix" values="0 0 0 0 0 0 0 0 0 0 0 0 0 0 0 0 0 0 127 0"/>
<feOffset dy="4"/>
<feGaussianBlur stdDeviation="2"/>
<feColorMatrix type="matrix" values="0 0 0 0 0 0 0 0 0 0 0 0 0 0 0 0 0 0 0.25 0"/>
<feBlend mode="normal" in2="BackgroundImageFix" result="effect1_dropShadow"/>
<feBlend mode="normal" in="SourceGraphic" in2="effect1_dropShadow" result="shape"/>
</filter>
</defs>
</svg>
