<svg width="94" height="118" viewBox="0 0 94 118" fill="none" xmlns="http://www.w3.org/2000/svg">
<g filter="url(#filter0_dd)">
<path d="M87.1506 87.022V33.3008C87.1506 24.3686 82.9444 15.9814 75.3064 9.68387C74.5454 9.05652 73.3155 9.05931 72.5591 9.69053C71.8027 10.3217 71.8063 11.3418 72.5671 11.9692C79.4658 17.6576 83.2651 25.2332 83.2651 33.3008V84.4514C82.4877 84.1242 81.6598 83.8612 80.7889 83.6737L60.9538 79.4007C60.4401 79.29 60.0811 78.9052 60.0811 78.465V70.4284C61.1713 69.6536 62.3155 68.8804 63.8519 68.1914L67.9337 66.3962C75.5059 63.0659 79.6448 56.1172 78.2328 49.1058C78.0022 48.09 77.8284 46.8168 77.9258 45.4137C77.9258 45.4137 78.1517 42.4774 78.3509 39.7439C78.4693 38.1212 77.7665 36.5116 76.4229 35.3278C75.079 34.1438 73.1839 33.4649 71.2233 33.4649H61.4397L57.9567 23.8356C57.7109 23.1559 56.9579 22.6896 56.1023 22.6873C55.2519 22.6798 54.49 23.147 54.2388 23.8255L50.6687 33.4649H41.8245C40.7515 33.4649 39.8817 34.1864 39.8817 35.0762C39.8817 35.9661 40.7515 36.6876 41.8245 36.6876H52.1043C52.9576 36.6876 53.7108 36.2259 53.9613 35.5493L56.0738 29.8454L58.1334 35.5392C58.38 36.2207 59.1364 36.6876 59.9943 36.6876H71.2233C72.1301 36.6876 72.972 36.9892 73.5937 37.5368C74.2151 38.0843 74.5273 38.7991 74.4726 39.5495C74.2739 42.2754 74.0488 45.2031 74.0488 45.204C73.9405 46.3854 74.0612 48.183 74.4006 49.6364C75.5367 55.2782 72.2066 60.8693 66.1138 63.5491L62.0319 65.3443C60.6237 65.9214 58.6188 67.1967 57.2451 68.1938C54.3748 70.1776 50.7363 71.2701 47.0003 71.2701C43.2642 71.2701 39.6258 70.1776 36.7554 68.1938C35.3457 67.193 33.8407 66.1708 31.9687 65.3443L27.8868 63.5491C21.794 60.8693 18.4638 55.2782 19.5999 49.6362C19.8797 48.4148 20.0724 46.7968 19.952 45.2089C19.952 45.2089 19.7266 42.278 19.5277 39.5497C19.473 38.7993 19.7851 38.0845 20.4066 37.5371C21.028 36.9894 21.8699 36.6878 22.777 36.6878H32.7644C33.8373 36.6878 34.7072 35.9663 34.7072 35.0765C34.7072 34.1866 33.8373 33.4651 32.7644 33.4651H22.777C20.8164 33.4651 18.9213 34.1443 17.5774 35.328C16.2338 36.5118 15.531 38.1212 15.6494 39.7442C15.8486 42.4776 16.0745 45.4139 16.0747 45.4188C16.1579 46.3394 16.0662 47.8463 15.7675 49.1058C14.3555 56.1174 18.4944 63.0659 26.0665 66.3962L30.1484 68.1914C31.2024 68.6247 32.8072 69.6177 33.9192 70.4284V78.465C33.9192 78.9052 33.5604 79.29 33.0465 79.4007L13.2113 83.6737C12.3407 83.8612 11.5128 84.1242 10.7352 84.4514V33.3008C10.7352 16.7157 27.0037 3.22266 47.0003 3.22266C53.6466 3.22266 60.1461 4.72656 65.7957 7.57217C66.7132 8.03408 67.9078 7.79174 68.4648 7.03119C69.0217 6.27043 68.7295 5.27936 67.8125 4.81744C61.5545 1.6659 54.3577 0 47 0C24.861 0 6.8494 14.9387 6.8494 33.3008V87.022C5.05583 88.8093 4 91.0983 4 93.5509V108.389C4 109.279 4.86984 110 5.94277 110C7.0157 110 7.88554 109.279 7.88554 108.389V93.5511C7.88554 90.3714 10.4769 87.5924 14.1876 86.793L19.588 85.6296V108.389C19.588 109.279 20.4579 110 21.5308 110C22.6037 110 23.4736 109.279 23.4736 108.389V84.7924L27.7114 83.8795C28.4597 86.5775 30.245 89.0845 32.8729 91.0776C33.2457 91.3604 33.7153 91.4998 34.1837 91.4998C34.71 91.4998 35.2346 91.3234 35.618 90.976C36.342 90.3192 36.287 89.3 35.4954 88.6995C33.425 87.1292 32.0339 85.1651 31.4765 83.0685L34.0231 82.52C36.2495 82.0404 37.8045 80.3728 37.8045 78.465V72.6208C40.6272 73.8405 43.7841 74.4928 47.0003 74.4928C50.2165 74.4928 53.3733 73.8405 56.196 72.6208V78.465C56.196 80.3728 57.751 82.0404 59.9775 82.52L62.524 83.0685C61.1364 88.3098 54.6369 92.2524 47.0003 92.2524C45.5048 92.2524 44.0257 92.1033 42.6042 91.8094C41.5626 91.5945 40.5088 92.1196 40.2493 92.9831C39.9897 93.8467 40.6233 94.7209 41.6644 94.9362C43.3932 95.2937 45.1883 95.4748 47.0003 95.4748C51.9561 95.4748 56.6908 94.1157 60.3318 91.6478C63.4068 89.5634 65.4685 86.8523 66.2873 83.8791L70.5238 84.7917V92.3963C70.5238 93.2862 71.3937 94.0077 72.4666 94.0077C73.5396 94.0077 74.4094 93.2862 74.4094 92.3963V85.6288L79.8124 86.7928C83.5231 87.5922 86.1145 90.3712 86.1145 93.5511V108.389C86.1145 109.279 86.9843 110 88.0572 110C89.1302 110 90 109.279 90 108.389V93.5511C90 91.0985 88.9442 88.8093 87.1506 87.022Z" fill="#6A8B9E"/>
<path d="M41.0664 42.7387C38.439 40.9952 34.769 40.9954 32.1418 42.7387C31.3039 43.2945 31.1681 44.3085 31.8385 45.0035C32.5089 45.6983 33.7313 45.8111 34.5693 45.2551C35.7673 44.4602 37.4409 44.46 38.6393 45.2551C38.9975 45.4927 39.4259 45.6083 39.8515 45.6083C40.4214 45.6083 40.9861 45.4012 41.3698 45.0035C42.0401 44.3085 41.9044 43.2947 41.0664 42.7387Z" fill="#6A8B9E"/>
<path d="M55.3605 45.2551C56.5588 44.46 58.2322 44.4602 59.4305 45.2551C59.7888 45.4927 60.2172 45.6083 60.6428 45.6083C61.2127 45.6083 61.7774 45.4012 62.161 45.0035C62.8311 44.3087 62.6954 43.2947 61.8577 42.7387C59.2305 40.9954 55.5605 40.9952 52.9331 42.7387C52.0951 43.2945 51.9594 44.3085 52.6298 45.0035C53.2999 45.6983 54.5225 45.8111 55.3605 45.2551Z" fill="#6A8B9E"/>
<path d="M46.9971 53.6223C48.192 53.6223 49.389 53.3412 50.4425 52.7775L50.5593 52.715C51.4608 52.2322 51.7196 51.2347 51.1375 50.4872C50.5552 49.7396 49.3528 49.5252 48.4516 50.0077L48.3355 50.07C47.4952 50.5199 46.4202 50.5057 45.597 50.035C44.7134 49.5293 43.5037 49.714 42.8947 50.4466C42.2855 51.1793 42.5077 52.1828 43.391 52.6879C44.4787 53.3101 45.7369 53.6223 46.9971 53.6223Z" fill="#6A8B9E"/>
<path d="M38.5598 58.8694V59.3006C38.5598 63.1605 42.3461 66.3008 47 66.3008C51.6538 66.3008 55.4402 63.1607 55.4402 59.3006V58.8694C55.4402 57.9795 54.5703 57.2581 53.4974 57.2581H40.5028C39.4297 57.2581 38.5598 57.9795 38.5598 58.8694ZM51.3269 60.4807C50.728 61.9876 49.0148 63.078 47 63.078C44.9852 63.078 43.2719 61.9874 42.673 60.4807H51.3269Z" fill="#6A8B9E"/>
<path d="M72.4665 98.3276C71.3935 98.3276 70.5237 99.0491 70.5237 99.939V108.389C70.5237 109.279 71.3935 110 72.4665 110C73.5394 110 74.4092 109.279 74.4092 108.389V99.939C74.4092 99.0491 73.5396 98.3276 72.4665 98.3276Z" fill="#6A8B9E"/>
</g>
<defs>
<filter id="filter0_dd" x="0" y="0" width="94" height="118" filterUnits="userSpaceOnUse" color-interpolation-filters="sRGB">
<feFlood flood-opacity="0" result="BackgroundImageFix"/>
<feColorMatrix in="SourceAlpha" type="matrix" values="0 0 0 0 0 0 0 0 0 0 0 0 0 0 0 0 0 0 127 0"/>
<feOffset dy="4"/>
<feGaussianBlur stdDeviation="2"/>
<feColorMatrix type="matrix" values="0 0 0 0 0 0 0 0 0 0 0 0 0 0 0 0 0 0 0.25 0"/>
<feBlend mode="normal" in2="BackgroundImageFix" result="effect1_dropShadow"/>
<feColorMatrix in="SourceAlpha" type="matrix" values="0 0 0 0 0 0 0 0 0 0 0 0 0 0 0 0 0 0 127 0"/>
<feOffset dy="4"/>
<feGaussianBlur stdDeviation="2"/>
<feColorMatrix type="matrix" values="0 0 0 0 0 0 0 0 0 0 0 0 0 0 0 0 0 0 0.25 0"/>
<feBlend mode="normal" in2="effect1_dropShadow" result="effect2_dropShadow"/>
<feBlend mode="normal" in="SourceGraphic" in2="effect2_dropShadow" result="shape"/>
</filter>
</defs>
</svg>
