<svg width="86" height="110" viewBox="0 0 86 110" fill="none" xmlns="http://www.w3.org/2000/svg">
<path d="M83.1506 87.022V33.3008C83.1506 24.3686 78.9444 15.9814 71.3064 9.68387C70.5454 9.05652 69.3155 9.05931 68.5591 9.69053C67.8027 10.3217 67.8063 11.3418 68.5671 11.9692C75.4658 17.6576 79.2651 25.2332 79.2651 33.3008V84.4514C78.4877 84.1242 77.6598 83.8612 76.7889 83.6737L56.9538 79.4007C56.4401 79.29 56.0811 78.9052 56.0811 78.465V70.4284C57.1713 69.6536 58.3155 68.8804 59.8519 68.1914L63.9337 66.3962C71.5059 63.0659 75.6448 56.1172 74.2328 49.1058C74.0022 48.09 73.8284 46.8168 73.9258 45.4137C73.9258 45.4137 74.1517 42.4774 74.3509 39.7439C74.4693 38.1212 73.7665 36.5116 72.4229 35.3278C71.079 34.1438 69.1839 33.4649 67.2233 33.4649H57.4397L53.9567 23.8356C53.7109 23.1559 52.9579 22.6896 52.1023 22.6873C51.2519 22.6798 50.49 23.147 50.2388 23.8255L46.6687 33.4649H37.8245C36.7515 33.4649 35.8817 34.1864 35.8817 35.0762C35.8817 35.9661 36.7515 36.6876 37.8245 36.6876H48.1043C48.9576 36.6876 49.7108 36.2259 49.9613 35.5493L52.0738 29.8454L54.1334 35.5392C54.38 36.2207 55.1364 36.6876 55.9943 36.6876H67.2233C68.1301 36.6876 68.972 36.9892 69.5937 37.5368C70.2151 38.0843 70.5273 38.7991 70.4726 39.5495C70.2739 42.2754 70.0488 45.2031 70.0488 45.204C69.9405 46.3854 70.0612 48.183 70.4006 49.6364C71.5367 55.2782 68.2066 60.8693 62.1138 63.5491L58.0319 65.3443C56.6237 65.9214 54.6188 67.1967 53.2451 68.1938C50.3748 70.1776 46.7363 71.2701 43.0003 71.2701C39.2642 71.2701 35.6258 70.1776 32.7554 68.1938C31.3457 67.193 29.8407 66.1708 27.9687 65.3443L23.8868 63.5491C17.794 60.8693 14.4638 55.2782 15.5999 49.6362C15.8797 48.4148 16.0724 46.7968 15.952 45.2089C15.952 45.2089 15.7266 42.278 15.5277 39.5497C15.473 38.7993 15.7851 38.0845 16.4066 37.5371C17.028 36.9894 17.8699 36.6878 18.777 36.6878H28.7644C29.8373 36.6878 30.7072 35.9663 30.7072 35.0765C30.7072 34.1866 29.8373 33.4651 28.7644 33.4651H18.777C16.8164 33.4651 14.9213 34.1443 13.5774 35.328C12.2338 36.5118 11.531 38.1212 11.6494 39.7442C11.8486 42.4776 12.0745 45.4139 12.0747 45.4188C12.1579 46.3394 12.0662 47.8463 11.7675 49.1058C10.3555 56.1174 14.4944 63.0659 22.0665 66.3962L26.1484 68.1914C27.2024 68.6247 28.8072 69.6177 29.9192 70.4284V78.465C29.9192 78.9052 29.5604 79.29 29.0465 79.4007L9.21132 83.6737C8.3407 83.8612 7.51283 84.1242 6.7352 84.4514V33.3008C6.7352 16.7157 23.0037 3.22266 43.0003 3.22266C49.6466 3.22266 56.1461 4.72656 61.7957 7.57217C62.7132 8.03408 63.9078 7.79174 64.4648 7.03119C65.0217 6.27043 64.7295 5.27936 63.8125 4.81744C57.5545 1.6659 50.3577 0 43 0C20.861 0 2.8494 14.9387 2.8494 33.3008V87.022C1.05583 88.8093 0 91.0983 0 93.5509V108.389C0 109.279 0.869843 110 1.94277 110C3.0157 110 3.88554 109.279 3.88554 108.389V93.5511C3.88554 90.3714 6.47694 87.5924 10.1876 86.793L15.588 85.6296V108.389C15.588 109.279 16.4579 110 17.5308 110C18.6037 110 19.4736 109.279 19.4736 108.389V84.7924L23.7114 83.8795C24.4597 86.5775 26.245 89.0845 28.8729 91.0776C29.2457 91.3604 29.7153 91.4998 30.1837 91.4998C30.71 91.4998 31.2346 91.3234 31.618 90.976C32.342 90.3192 32.287 89.3 31.4954 88.6995C29.425 87.1292 28.0339 85.1651 27.4765 83.0685L30.0231 82.52C32.2495 82.0404 33.8045 80.3728 33.8045 78.465V72.6208C36.6272 73.8405 39.7841 74.4928 43.0003 74.4928C46.2165 74.4928 49.3733 73.8405 52.196 72.6208V78.465C52.196 80.3728 53.751 82.0404 55.9775 82.52L58.524 83.0685C57.1364 88.3098 50.6369 92.2524 43.0003 92.2524C41.5048 92.2524 40.0257 92.1033 38.6042 91.8094C37.5626 91.5945 36.5088 92.1196 36.2493 92.9831C35.9897 93.8467 36.6233 94.7209 37.6644 94.9362C39.3932 95.2937 41.1883 95.4748 43.0003 95.4748C47.9561 95.4748 52.6908 94.1157 56.3318 91.6478C59.4068 89.5634 61.4685 86.8523 62.2873 83.8791L66.5238 84.7917V92.3963C66.5238 93.2862 67.3937 94.0077 68.4666 94.0077C69.5396 94.0077 70.4094 93.2862 70.4094 92.3963V85.6288L75.8124 86.7928C79.5231 87.5922 82.1145 90.3712 82.1145 93.5511V108.389C82.1145 109.279 82.9843 110 84.0572 110C85.1302 110 86 109.279 86 108.389V93.5511C86 91.0985 84.9442 88.8093 83.1506 87.022Z" fill="#6A8B9E"/>
<path d="M37.0664 42.7387C34.439 40.9952 30.769 40.9954 28.1418 42.7387C27.3039 43.2945 27.1681 44.3085 27.8385 45.0035C28.5089 45.6983 29.7313 45.8111 30.5693 45.2551C31.7673 44.4602 33.4409 44.46 34.6393 45.2551C34.9975 45.4927 35.4259 45.6083 35.8515 45.6083C36.4214 45.6083 36.9861 45.4012 37.3698 45.0035C38.0401 44.3085 37.9044 43.2947 37.0664 42.7387Z" fill="#6A8B9E"/>
<path d="M51.3605 45.2551C52.5588 44.46 54.2322 44.4602 55.4305 45.2551C55.7888 45.4927 56.2172 45.6083 56.6428 45.6083C57.2127 45.6083 57.7774 45.4012 58.161 45.0035C58.8311 44.3087 58.6954 43.2947 57.8577 42.7387C55.2305 40.9954 51.5605 40.9952 48.9331 42.7387C48.0951 43.2945 47.9594 44.3085 48.6298 45.0035C49.2999 45.6983 50.5225 45.8111 51.3605 45.2551Z" fill="#6A8B9E"/>
<path d="M42.9971 53.6223C44.192 53.6223 45.389 53.3412 46.4425 52.7775L46.5593 52.715C47.4608 52.2322 47.7196 51.2347 47.1375 50.4872C46.5552 49.7396 45.3528 49.5252 44.4516 50.0077L44.3355 50.07C43.4952 50.5199 42.4202 50.5057 41.597 50.035C40.7134 49.5293 39.5037 49.714 38.8947 50.4466C38.2855 51.1793 38.5077 52.1828 39.391 52.6879C40.4787 53.3101 41.7369 53.6223 42.9971 53.6223Z" fill="#6A8B9E"/>
<path d="M34.5598 58.8694V59.3006C34.5598 63.1605 38.3461 66.3008 43 66.3008C47.6538 66.3008 51.4402 63.1607 51.4402 59.3006V58.8694C51.4402 57.9795 50.5703 57.2581 49.4974 57.2581H36.5028C35.4297 57.2581 34.5598 57.9795 34.5598 58.8694ZM47.3269 60.4807C46.728 61.9876 45.0148 63.078 43 63.078C40.9852 63.078 39.2719 61.9874 38.673 60.4807H47.3269Z" fill="#6A8B9E"/>
<path d="M68.4665 98.3276C67.3935 98.3276 66.5237 99.0491 66.5237 99.939V108.389C66.5237 109.279 67.3935 110 68.4665 110C69.5394 110 70.4092 109.279 70.4092 108.389V99.939C70.4092 99.0491 69.5396 98.3276 68.4665 98.3276Z" fill="#6A8B9E"/>
</svg>
