<svg width="103" height="38" viewBox="0 0 103 38" fill="none" xmlns="http://www.w3.org/2000/svg">
<path d="M25.2825 32.9398C24.9464 32.9876 24.7174 33.2697 24.7709 33.5697C24.9972 34.8367 24.1201 36.0408 22.7308 36.3703C21.3972 36.6869 19.9841 36.0707 19.4438 34.9373L16.8711 29.5392C16.4841 28.7271 15.5952 28.2025 14.6066 28.2025C13.6179 28.2025 12.729 28.7272 12.342 29.5392L9.76929 34.9373C9.22906 36.0706 7.81584 36.6866 6.48232 36.3703C5.09301 36.0407 4.21591 34.8368 4.44219 33.5697L5.02991 30.2779C5.54968 27.3666 4.9687 24.336 3.39427 21.7445C1.97999 19.4167 1.23246 16.7867 1.23246 14.1387C1.23246 13.8349 0.956552 13.5886 0.616229 13.5886C0.275906 13.5886 0 13.8349 0 14.1387C0 16.9693 0.799126 19.7808 2.31086 22.2691C3.75662 24.6487 4.29002 27.4314 3.81273 30.1047L3.22501 33.3965C2.89891 35.223 4.16316 36.9586 6.16582 37.4338C6.50541 37.5143 6.84828 37.553 7.18737 37.553C8.7682 37.5529 10.2624 36.7132 10.9035 35.3681L13.4762 29.9701C13.6694 29.5647 14.1131 29.3028 14.6066 29.3028C15.1001 29.3028 15.5438 29.5647 15.737 29.9701L18.3097 35.3681C19.0883 37.0018 21.1249 37.8897 23.0474 37.4338C25.05 36.9586 26.3143 35.2231 25.9882 33.3966C25.9345 33.0965 25.6183 32.8923 25.2825 32.9398Z" fill="#A69398"/>
<path d="M20.3993 9.51782C19.9885 9.51782 19.6362 9.75451 19.5227 10.1069L19.242 10.9772C19.0174 11.6732 18.4179 12.2084 17.6382 12.4089L16.6633 12.6594C16.2686 12.7609 16.0034 13.0754 16.0034 13.442C16.0034 13.8087 16.2686 14.1232 16.6633 14.2246L17.6382 14.4752C18.418 14.6756 19.0175 15.2108 19.2421 15.9069L19.5227 16.7771C19.6364 17.1295 19.9887 17.3662 20.3994 17.3662C20.8101 17.3662 21.1624 17.1295 21.276 16.7771L21.5566 15.9068C21.7812 15.2107 22.3807 14.6755 23.1605 14.4751L24.1353 14.2246C24.5301 14.1231 24.7952 13.8086 24.7952 13.442C24.7952 13.0754 24.5301 12.7609 24.1353 12.6595L23.1604 12.409C22.3806 12.2085 21.781 11.6733 21.5565 10.9773L21.2758 10.1069C21.1623 9.75451 20.81 9.51782 20.3993 9.51782ZM20.0916 10.4112V10.4114C20.0916 10.4113 20.0916 10.4112 20.0916 10.4112C20.0915 10.4112 20.0915 10.4112 20.0916 10.4112ZM22.7298 13.442C21.6134 13.7567 20.7518 14.5258 20.3993 15.5223C20.0468 14.5258 19.185 13.7567 18.0688 13.442C19.185 13.1273 20.0467 12.3582 20.3993 11.3617C20.7518 12.3582 21.6135 13.1273 22.7298 13.442Z" fill="#A69398"/>
<path d="M34.9491 5.41386L33.2641 4.98083C31.7672 4.59605 30.6162 3.56863 30.1852 2.23227L29.7001 0.728248C29.5596 0.292649 29.1241 0 28.6163 0C28.1085 0 27.673 0.292649 27.5325 0.728248L27.0474 2.23235C26.8636 2.80202 26.5481 3.31478 26.1316 3.74635C25.8908 3.62225 25.6401 3.51171 25.3827 3.41768C23.6538 2.78596 21.7224 2.883 20.0839 3.68386L17.036 5.17358C16.3115 5.52769 15.4918 5.71494 14.6658 5.71494H14.5477C13.7216 5.71494 12.9019 5.52776 12.1774 5.17358L9.12956 3.68386C7.49088 2.883 5.55954 2.78589 3.83073 3.41768C1.50368 4.26798 0 6.26753 0 8.5119V11.5715C0 11.8753 0.275906 12.1216 0.616229 12.1216C0.956552 12.1216 1.23246 11.8753 1.23246 11.5715V8.5119C1.23246 6.71618 2.43558 5.1163 4.2975 4.43594C5.68098 3.93052 7.2264 4.00812 8.53749 4.64894L11.5854 6.13866C12.4909 6.58123 13.5151 6.8152 14.5476 6.8152H14.6657C15.6981 6.8152 16.7224 6.58123 17.6279 6.13866L20.6758 4.64894C21.987 4.00812 23.5323 3.93044 24.9158 4.43594C24.9862 4.46169 25.056 4.48919 25.1251 4.51787C24.7711 4.71641 24.3838 4.87418 23.9685 4.9809L22.2835 5.41401C21.7955 5.53943 21.4677 5.92823 21.4677 6.38151C21.4677 6.83471 21.7955 7.22359 22.2835 7.34901L23.9684 7.78204C25.4654 8.16681 26.6164 9.19424 27.0474 10.5306L27.5325 12.0347C27.608 12.2689 27.7693 12.4611 27.9807 12.5894V14.1389C27.9807 14.4624 27.9689 14.7893 27.9468 15.1127C27.8324 15.21 27.7451 15.3346 27.6985 15.4791L27.4178 16.3494C27.1933 17.0454 26.5937 17.5806 25.814 17.7811L24.839 18.0316C24.4444 18.1331 24.1793 18.4476 24.1793 18.8142C24.1793 19.1808 24.4444 19.4953 24.8391 19.5967L25.8141 19.8472C26.1167 19.9251 26.3917 20.0538 26.6287 20.2223C26.389 20.7406 26.1182 21.2523 25.819 21.7446C24.2445 24.3361 23.6636 27.3667 24.1834 30.278L24.3183 31.0338C24.3703 31.3354 24.6953 31.5393 25.0238 31.4906C25.36 31.4427 25.589 31.1607 25.5355 30.8607L25.4006 30.1049C24.9233 27.4316 25.4567 24.6489 26.9024 22.2693C27.0898 21.9609 27.2664 21.6452 27.4329 21.3255L27.6985 22.1493C27.8121 22.5017 28.1645 22.7384 28.5751 22.7384C28.9859 22.7384 29.3382 22.5017 29.4517 22.1493L29.7324 21.279C29.957 20.583 30.5565 20.0478 31.3362 19.8473L32.3112 19.5968C32.7058 19.4953 32.971 19.1808 32.971 18.8142C32.971 18.4477 32.7058 18.1332 32.3111 18.0317L31.3362 17.7812C30.5563 17.5807 29.9568 17.0455 29.7323 16.3495L29.4516 15.4791C29.4021 15.3258 29.3074 15.1944 29.1824 15.0949C29.2024 14.7769 29.213 14.4564 29.213 14.139V12.6123C29.4436 12.4846 29.6198 12.283 29.6998 12.0348L30.185 10.5307C30.6159 9.19438 31.7669 8.16689 33.2639 7.78219L34.9489 7.34908C35.4369 7.22366 35.7647 6.83486 35.7647 6.38158C35.765 5.92816 35.4371 5.53935 34.9491 5.41386ZM30.9058 18.814C29.7894 19.1287 28.9278 19.8979 28.5753 20.8943C28.2227 19.8979 27.3611 19.1287 26.2447 18.814C27.3611 18.4993 28.2227 17.7302 28.5752 16.7337C28.9278 17.7302 29.7893 18.4994 30.9058 18.814ZM32.9232 6.72462C31.0161 7.21471 29.5499 8.52371 29.0009 10.226L28.6164 11.4181L28.2318 10.226C27.6828 8.52371 26.2165 7.21479 24.3095 6.72462L22.9739 6.38136L24.3095 6.0381C26.2165 5.54801 27.6827 4.23901 28.2318 2.53673L28.6163 1.34457L29.0008 2.53673C29.5498 4.23901 31.0161 5.54793 32.9232 6.0381L34.2587 6.38136L32.9232 6.72462Z" fill="#A69398"/>
<path d="M33.8635 35H37.8595C37.9795 35 38.2075 34.997 38.5435 34.991C38.8795 34.985 39.1975 34.961 39.4975 34.919C40.4995 34.787 41.3365 34.424 42.0085 33.83C42.6865 33.236 43.1965 32.48 43.5385 31.562C43.8805 30.638 44.0515 29.624 44.0515 28.52C44.0515 27.416 43.8805 26.405 43.5385 25.487C43.1965 24.569 42.6865 23.813 42.0085 23.219C41.3365 22.619 40.4995 22.253 39.4975 22.121C39.1915 22.079 38.8735 22.055 38.5435 22.049C38.2135 22.043 37.9855 22.04 37.8595 22.04H33.8635V35ZM35.5105 33.47V23.57H37.8595C38.0755 23.57 38.3275 23.576 38.6155 23.588C38.9035 23.6 39.1525 23.627 39.3625 23.669C40.0645 23.795 40.6345 24.089 41.0725 24.551C41.5105 25.007 41.8315 25.58 42.0355 26.27C42.2455 26.954 42.3505 27.704 42.3505 28.52C42.3505 29.318 42.2485 30.062 42.0445 30.752C41.8405 31.442 41.5195 32.018 41.0815 32.48C40.6435 32.942 40.0705 33.239 39.3625 33.371C39.1525 33.413 38.9065 33.44 38.6245 33.452C38.3425 33.464 38.0875 33.47 37.8595 33.47H35.5105ZM50.3275 35.27C51.2695 35.27 52.1185 35.036 52.8745 34.568C53.6305 34.094 54.2005 33.428 54.5845 32.57L53.0455 32.039C52.4875 33.179 51.5575 33.749 50.2555 33.749C49.3615 33.749 48.6595 33.476 48.1495 32.93C47.6455 32.378 47.3605 31.598 47.2945 30.59H54.7465C54.7945 29.438 54.6445 28.445 54.2965 27.611C53.9545 26.777 53.4385 26.135 52.7485 25.685C52.0645 25.235 51.2335 25.01 50.2555 25.01C49.3135 25.01 48.4915 25.223 47.7895 25.649C47.0875 26.069 46.5415 26.669 46.1515 27.449C45.7675 28.223 45.5755 29.141 45.5755 30.203C45.5755 31.217 45.7705 32.105 46.1605 32.867C46.5565 33.623 47.1115 34.214 47.8255 34.64C48.5395 35.06 49.3735 35.27 50.3275 35.27ZM50.3095 26.45C51.9595 26.45 52.8835 27.401 53.0815 29.303H47.3215C47.4355 28.379 47.7445 27.674 48.2485 27.188C48.7525 26.696 49.4395 26.45 50.3095 26.45ZM56.4776 35H58.0976V29.879C58.0976 28.751 58.3406 27.914 58.8266 27.368C59.3186 26.822 59.9666 26.549 60.7706 26.549C61.4546 26.549 61.9886 26.72 62.3726 27.062C62.7566 27.404 63.0236 27.848 63.1736 28.394C63.3296 28.94 63.4076 29.519 63.4076 30.131V35H65.0276V29.627C65.0276 29.165 64.9706 28.67 64.8566 28.142C64.7486 27.608 64.5506 27.107 64.2626 26.639C63.9806 26.165 63.5876 25.778 63.0836 25.478C62.5856 25.178 61.9436 25.028 61.1576 25.028C59.7416 25.028 58.6616 25.529 57.9176 26.531V25.28H56.4776V35ZM72.7944 35V33.623C72.1284 33.725 71.5584 33.743 71.0844 33.677C70.6164 33.611 70.2744 33.386 70.0584 33.002C69.9444 32.798 69.8814 32.558 69.8694 32.282C69.8634 32 69.8604 31.658 69.8604 31.256V26.603H72.7944V25.28H69.8604V22.58H68.2584V25.28H66.2874V26.603H68.2584V31.328C68.2584 31.832 68.2644 32.282 68.2764 32.678C68.2944 33.068 68.3994 33.452 68.5914 33.83C68.8194 34.268 69.1524 34.592 69.5904 34.802C70.0284 35.006 70.5264 35.117 71.0844 35.135C71.6484 35.159 72.2184 35.114 72.7944 35ZM77.5308 35.27C79.1508 35.27 80.3508 34.676 81.1308 33.488V35H82.5528V28.988C82.5528 28.604 82.5348 28.238 82.4988 27.89C82.4628 27.536 82.3758 27.209 82.2378 26.909C81.9618 26.273 81.5058 25.799 80.8698 25.487C80.2338 25.169 79.4778 25.01 78.6018 25.01C77.5038 25.01 76.6158 25.253 75.9378 25.739C75.2658 26.225 74.8158 26.894 74.5878 27.746L76.1088 28.205C76.2828 27.611 76.5918 27.179 77.0358 26.909C77.4798 26.639 77.9958 26.504 78.5838 26.504C79.4238 26.504 80.0268 26.693 80.3928 27.071C80.7648 27.443 80.9598 28.016 80.9778 28.79C80.2578 28.892 79.5018 29 78.7098 29.114C77.9238 29.222 77.2248 29.357 76.6128 29.519C75.8748 29.735 75.2928 30.074 74.8668 30.536C74.4408 30.992 74.2278 31.604 74.2278 32.372C74.2278 32.894 74.3508 33.374 74.5968 33.812C74.8488 34.25 75.2178 34.604 75.7038 34.874C76.1958 35.138 76.8048 35.27 77.5308 35.27ZM77.7738 33.929C77.0838 33.929 76.5858 33.77 76.2798 33.452C75.9738 33.128 75.8208 32.765 75.8208 32.363C75.8208 31.907 75.9708 31.559 76.2708 31.319C76.5768 31.073 76.9308 30.887 77.3328 30.761C77.8068 30.629 78.3588 30.518 78.9888 30.428C79.6188 30.338 80.2758 30.248 80.9598 30.158C80.9598 30.38 80.9478 30.632 80.9238 30.914C80.9058 31.196 80.8638 31.454 80.7978 31.688C80.6838 32.288 80.3658 32.813 79.8438 33.263C79.3278 33.707 78.6378 33.929 77.7738 33.929ZM85.0728 35H86.6748V21.77H85.0728V35ZM93.0472 35.261C94.2592 35.261 95.2102 34.994 95.9002 34.46C96.5902 33.926 96.9352 33.188 96.9352 32.246C96.9352 31.742 96.8302 31.319 96.6202 30.977C96.4102 30.629 96.0562 30.329 95.5582 30.077C95.0662 29.819 94.3912 29.582 93.5332 29.366C92.7712 29.174 92.1892 29.003 91.7872 28.853C91.3912 28.703 91.1182 28.544 90.9682 28.376C90.8242 28.208 90.7522 28.007 90.7522 27.773C90.7522 27.359 90.9472 27.029 91.3372 26.783C91.7332 26.537 92.2462 26.423 92.8762 26.441C93.5362 26.459 94.0792 26.621 94.5052 26.927C94.9312 27.227 95.1832 27.635 95.2612 28.151L96.8992 27.854C96.7972 26.996 96.3772 26.309 95.6392 25.793C94.9072 25.271 93.9862 25.01 92.8762 25.01C91.7542 25.01 90.8512 25.271 90.1672 25.793C89.4832 26.309 89.1412 26.996 89.1412 27.854C89.1412 28.316 89.2432 28.709 89.4472 29.033C89.6572 29.357 90.0082 29.642 90.5002 29.888C90.9982 30.134 91.6762 30.371 92.5342 30.599C93.3262 30.809 93.9172 30.992 94.3072 31.148C94.7032 31.298 94.9642 31.457 95.0902 31.625C95.2162 31.793 95.2792 32.015 95.2792 32.291C95.2792 32.765 95.0872 33.14 94.7032 33.416C94.3252 33.692 93.8062 33.83 93.1462 33.83C92.4442 33.83 91.8562 33.677 91.3822 33.371C90.9082 33.059 90.6052 32.639 90.4732 32.111L88.8352 32.372C89.0032 33.284 89.4562 33.995 90.1942 34.505C90.9382 35.009 91.8892 35.261 93.0472 35.261Z" fill="#A69398"/>
</svg>
