<svg width="128" height="38" viewBox="0 0 128 38" fill="none" xmlns="http://www.w3.org/2000/svg">
<path d="M25.2825 32.9398C24.9464 32.9876 24.7174 33.2697 24.7709 33.5697C24.9972 34.8367 24.1201 36.0408 22.7308 36.3703C21.3972 36.6869 19.9841 36.0707 19.4438 34.9373L16.8711 29.5392C16.4841 28.7271 15.5952 28.2025 14.6066 28.2025C13.6179 28.2025 12.729 28.7272 12.342 29.5392L9.76929 34.9373C9.22906 36.0706 7.81584 36.6866 6.48232 36.3703C5.09301 36.0407 4.21591 34.8368 4.44219 33.5697L5.02991 30.2779C5.54968 27.3666 4.9687 24.336 3.39427 21.7445C1.97999 19.4167 1.23246 16.7867 1.23246 14.1387C1.23246 13.8349 0.956552 13.5886 0.616229 13.5886C0.275906 13.5886 0 13.8349 0 14.1387C0 16.9693 0.799126 19.7808 2.31086 22.2691C3.75662 24.6487 4.29002 27.4314 3.81273 30.1047L3.22501 33.3965C2.89891 35.223 4.16316 36.9586 6.16582 37.4338C6.50541 37.5143 6.84828 37.553 7.18737 37.553C8.7682 37.5529 10.2624 36.7132 10.9035 35.3681L13.4762 29.9701C13.6694 29.5647 14.1131 29.3028 14.6066 29.3028C15.1001 29.3028 15.5438 29.5647 15.737 29.9701L18.3097 35.3681C19.0883 37.0018 21.1249 37.8897 23.0474 37.4338C25.05 36.9586 26.3143 35.2231 25.9882 33.3966C25.9345 33.0965 25.6183 32.8923 25.2825 32.9398Z" fill="#A69398"/>
<path d="M20.3993 9.51782C19.9885 9.51782 19.6362 9.75451 19.5227 10.1069L19.242 10.9772C19.0174 11.6732 18.4179 12.2084 17.6382 12.4089L16.6633 12.6594C16.2686 12.7609 16.0034 13.0754 16.0034 13.442C16.0034 13.8087 16.2686 14.1232 16.6633 14.2246L17.6382 14.4752C18.418 14.6756 19.0175 15.2108 19.2421 15.9069L19.5227 16.7771C19.6364 17.1295 19.9887 17.3662 20.3994 17.3662C20.8101 17.3662 21.1624 17.1295 21.276 16.7771L21.5566 15.9068C21.7812 15.2107 22.3807 14.6755 23.1605 14.4751L24.1353 14.2246C24.5301 14.1231 24.7952 13.8086 24.7952 13.442C24.7952 13.0754 24.5301 12.7609 24.1353 12.6595L23.1604 12.409C22.3806 12.2085 21.781 11.6733 21.5565 10.9773L21.2758 10.1069C21.1623 9.75451 20.81 9.51782 20.3993 9.51782ZM20.0916 10.4112V10.4114C20.0916 10.4113 20.0916 10.4112 20.0916 10.4112C20.0915 10.4112 20.0915 10.4112 20.0916 10.4112ZM22.7298 13.442C21.6134 13.7567 20.7518 14.5258 20.3993 15.5223C20.0468 14.5258 19.185 13.7567 18.0688 13.442C19.185 13.1273 20.0467 12.3582 20.3993 11.3617C20.7518 12.3582 21.6135 13.1273 22.7298 13.442Z" fill="#A69398"/>
<path d="M34.9491 5.41386L33.2641 4.98083C31.7672 4.59605 30.6162 3.56863 30.1852 2.23227L29.7001 0.728248C29.5596 0.292649 29.1241 0 28.6163 0C28.1085 0 27.673 0.292649 27.5325 0.728248L27.0474 2.23235C26.8636 2.80202 26.5481 3.31478 26.1316 3.74635C25.8908 3.62225 25.6401 3.51171 25.3827 3.41768C23.6538 2.78596 21.7224 2.883 20.0839 3.68386L17.036 5.17358C16.3115 5.52769 15.4918 5.71494 14.6658 5.71494H14.5477C13.7216 5.71494 12.9019 5.52776 12.1774 5.17358L9.12956 3.68386C7.49088 2.883 5.55954 2.78589 3.83073 3.41768C1.50368 4.26798 0 6.26753 0 8.5119V11.5715C0 11.8753 0.275906 12.1216 0.616229 12.1216C0.956552 12.1216 1.23246 11.8753 1.23246 11.5715V8.5119C1.23246 6.71618 2.43558 5.1163 4.2975 4.43594C5.68098 3.93052 7.2264 4.00812 8.53749 4.64894L11.5854 6.13866C12.4909 6.58123 13.5151 6.8152 14.5476 6.8152H14.6657C15.6981 6.8152 16.7224 6.58123 17.6279 6.13866L20.6758 4.64894C21.987 4.00812 23.5323 3.93044 24.9158 4.43594C24.9862 4.46169 25.056 4.48919 25.1251 4.51787C24.7711 4.71641 24.3838 4.87418 23.9685 4.9809L22.2835 5.41401C21.7955 5.53943 21.4677 5.92823 21.4677 6.38151C21.4677 6.83471 21.7955 7.22359 22.2835 7.34901L23.9684 7.78204C25.4654 8.16681 26.6164 9.19424 27.0474 10.5306L27.5325 12.0347C27.608 12.2689 27.7693 12.4611 27.9807 12.5894V14.1389C27.9807 14.4624 27.9689 14.7893 27.9468 15.1127C27.8324 15.21 27.7451 15.3346 27.6985 15.4791L27.4178 16.3494C27.1933 17.0454 26.5937 17.5806 25.814 17.7811L24.839 18.0316C24.4444 18.1331 24.1793 18.4476 24.1793 18.8142C24.1793 19.1808 24.4444 19.4953 24.8391 19.5967L25.8141 19.8472C26.1167 19.9251 26.3917 20.0538 26.6287 20.2223C26.389 20.7406 26.1182 21.2523 25.819 21.7446C24.2445 24.3361 23.6636 27.3667 24.1834 30.278L24.3183 31.0338C24.3703 31.3354 24.6953 31.5393 25.0238 31.4906C25.36 31.4427 25.589 31.1607 25.5355 30.8607L25.4006 30.1049C24.9233 27.4316 25.4567 24.6489 26.9024 22.2693C27.0898 21.9609 27.2664 21.6452 27.4329 21.3255L27.6985 22.1493C27.8121 22.5017 28.1645 22.7384 28.5751 22.7384C28.9859 22.7384 29.3382 22.5017 29.4517 22.1493L29.7324 21.279C29.957 20.583 30.5565 20.0478 31.3362 19.8473L32.3112 19.5968C32.7058 19.4953 32.971 19.1808 32.971 18.8142C32.971 18.4477 32.7058 18.1332 32.3111 18.0317L31.3362 17.7812C30.5563 17.5807 29.9568 17.0455 29.7323 16.3495L29.4516 15.4791C29.4021 15.3258 29.3074 15.1944 29.1824 15.0949C29.2024 14.7769 29.213 14.4564 29.213 14.139V12.6123C29.4436 12.4846 29.6198 12.283 29.6998 12.0348L30.185 10.5307C30.6159 9.19438 31.7669 8.16689 33.2639 7.78219L34.9489 7.34908C35.4369 7.22366 35.7647 6.83486 35.7647 6.38158C35.765 5.92816 35.4371 5.53935 34.9491 5.41386ZM30.9058 18.814C29.7894 19.1287 28.9278 19.8979 28.5753 20.8943C28.2227 19.8979 27.3611 19.1287 26.2447 18.814C27.3611 18.4993 28.2227 17.7302 28.5752 16.7337C28.9278 17.7302 29.7893 18.4994 30.9058 18.814ZM32.9232 6.72462C31.0161 7.21471 29.5499 8.52371 29.0009 10.226L28.6164 11.4181L28.2318 10.226C27.6828 8.52371 26.2165 7.21479 24.3095 6.72462L22.9739 6.38136L24.3095 6.0381C26.2165 5.54801 27.6827 4.23901 28.2318 2.53673L28.6163 1.34457L29.0008 2.53673C29.5498 4.23901 31.0161 5.54793 32.9232 6.0381L34.2587 6.38136L32.9232 6.72462Z" fill="#A69398"/>
<path d="M33.9224 34.647H37.9184C38.0384 34.647 38.2664 34.644 38.6024 34.638C38.9384 34.632 39.2564 34.608 39.5564 34.566C40.5584 34.434 41.3954 34.071 42.0674 33.477C42.7454 32.883 43.2554 32.127 43.5974 31.209C43.9394 30.285 44.1104 29.271 44.1104 28.167C44.1104 27.063 43.9394 26.052 43.5974 25.134C43.2554 24.216 42.7454 23.46 42.0674 22.866C41.3954 22.266 40.5584 21.9 39.5564 21.768C39.2504 21.726 38.9324 21.702 38.6024 21.696C38.2724 21.69 38.0444 21.687 37.9184 21.687H33.9224V34.647ZM35.5694 33.117V23.217H37.9184C38.1344 23.217 38.3864 23.223 38.6744 23.235C38.9624 23.247 39.2114 23.274 39.4214 23.316C40.1234 23.442 40.6934 23.736 41.1314 24.198C41.5694 24.654 41.8904 25.227 42.0944 25.917C42.3044 26.601 42.4094 27.351 42.4094 28.167C42.4094 28.965 42.3074 29.709 42.1034 30.399C41.8994 31.089 41.5784 31.665 41.1404 32.127C40.7024 32.589 40.1294 32.886 39.4214 33.018C39.2114 33.06 38.9654 33.087 38.6834 33.099C38.4014 33.111 38.1464 33.117 37.9184 33.117H35.5694ZM50.3863 34.917C51.3283 34.917 52.1773 34.683 52.9333 34.215C53.6893 33.741 54.2593 33.075 54.6433 32.217L53.1043 31.686C52.5463 32.826 51.6163 33.396 50.3143 33.396C49.4203 33.396 48.7183 33.123 48.2083 32.577C47.7043 32.025 47.4193 31.245 47.3533 30.237H54.8053C54.8533 29.085 54.7033 28.092 54.3553 27.258C54.0133 26.424 53.4973 25.782 52.8073 25.332C52.1233 24.882 51.2923 24.657 50.3143 24.657C49.3723 24.657 48.5503 24.87 47.8483 25.296C47.1463 25.716 46.6003 26.316 46.2103 27.096C45.8263 27.87 45.6343 28.788 45.6343 29.85C45.6343 30.864 45.8293 31.752 46.2193 32.514C46.6153 33.27 47.1703 33.861 47.8843 34.287C48.5983 34.707 49.4323 34.917 50.3863 34.917ZM50.3683 26.097C52.0183 26.097 52.9423 27.048 53.1403 28.95H47.3803C47.4943 28.026 47.8033 27.321 48.3073 26.835C48.8113 26.343 49.4983 26.097 50.3683 26.097ZM56.5364 34.647H58.1564V29.526C58.1564 28.398 58.3994 27.561 58.8854 27.015C59.3774 26.469 60.0254 26.196 60.8294 26.196C61.5134 26.196 62.0474 26.367 62.4314 26.709C62.8154 27.051 63.0824 27.495 63.2324 28.041C63.3884 28.587 63.4664 29.166 63.4664 29.778V34.647H65.0864V29.274C65.0864 28.812 65.0294 28.317 64.9154 27.789C64.8074 27.255 64.6094 26.754 64.3214 26.286C64.0394 25.812 63.6464 25.425 63.1424 25.125C62.6444 24.825 62.0024 24.675 61.2164 24.675C59.8004 24.675 58.7204 25.176 57.9764 26.178V24.927H56.5364V34.647ZM72.8533 34.647V33.27C72.1873 33.372 71.6173 33.39 71.1433 33.324C70.6753 33.258 70.3333 33.033 70.1173 32.649C70.0033 32.445 69.9403 32.205 69.9283 31.929C69.9223 31.647 69.9193 31.305 69.9193 30.903V26.25H72.8533V24.927H69.9193V22.227H68.3173V24.927H66.3463V26.25H68.3173V30.975C68.3173 31.479 68.3233 31.929 68.3353 32.325C68.3533 32.715 68.4583 33.099 68.6503 33.477C68.8783 33.915 69.2113 34.239 69.6493 34.449C70.0873 34.653 70.5853 34.764 71.1433 34.782C71.7073 34.806 72.2773 34.761 72.8533 34.647ZM77.5897 34.917C79.2097 34.917 80.4097 34.323 81.1897 33.135V34.647H82.6117V28.635C82.6117 28.251 82.5937 27.885 82.5577 27.537C82.5217 27.183 82.4347 26.856 82.2967 26.556C82.0207 25.92 81.5647 25.446 80.9287 25.134C80.2927 24.816 79.5367 24.657 78.6607 24.657C77.5627 24.657 76.6747 24.9 75.9967 25.386C75.3247 25.872 74.8747 26.541 74.6467 27.393L76.1677 27.852C76.3417 27.258 76.6507 26.826 77.0947 26.556C77.5387 26.286 78.0547 26.151 78.6427 26.151C79.4827 26.151 80.0857 26.34 80.4517 26.718C80.8237 27.09 81.0187 27.663 81.0367 28.437C80.3167 28.539 79.5607 28.647 78.7687 28.761C77.9827 28.869 77.2837 29.004 76.6717 29.166C75.9337 29.382 75.3517 29.721 74.9257 30.183C74.4997 30.639 74.2867 31.251 74.2867 32.019C74.2867 32.541 74.4097 33.021 74.6557 33.459C74.9077 33.897 75.2767 34.251 75.7627 34.521C76.2547 34.785 76.8637 34.917 77.5897 34.917ZM77.8327 33.576C77.1427 33.576 76.6447 33.417 76.3387 33.099C76.0327 32.775 75.8797 32.412 75.8797 32.01C75.8797 31.554 76.0297 31.206 76.3297 30.966C76.6357 30.72 76.9897 30.534 77.3917 30.408C77.8657 30.276 78.4177 30.165 79.0477 30.075C79.6777 29.985 80.3347 29.895 81.0187 29.805C81.0187 30.027 81.0067 30.279 80.9827 30.561C80.9647 30.843 80.9227 31.101 80.8567 31.335C80.7427 31.935 80.4247 32.46 79.9027 32.91C79.3867 33.354 78.6967 33.576 77.8327 33.576ZM85.1317 34.647H86.7337V21.417H85.1317V34.647ZM93.6461 34.917C94.5881 34.917 95.4371 34.683 96.1931 34.215C96.9491 33.741 97.5191 33.075 97.9031 32.217L96.3641 31.686C95.8061 32.826 94.8761 33.396 93.5741 33.396C92.6801 33.396 91.9781 33.123 91.4681 32.577C90.9641 32.025 90.6791 31.245 90.6131 30.237H98.0651C98.1131 29.085 97.9631 28.092 97.6151 27.258C97.2731 26.424 96.7571 25.782 96.0671 25.332C95.3831 24.882 94.5521 24.657 93.5741 24.657C92.6321 24.657 91.8101 24.87 91.1081 25.296C90.4061 25.716 89.8601 26.316 89.4701 27.096C89.0861 27.87 88.8941 28.788 88.8941 29.85C88.8941 30.864 89.0891 31.752 89.4791 32.514C89.8751 33.27 90.4301 33.861 91.1441 34.287C91.8581 34.707 92.6921 34.917 93.6461 34.917ZM93.6281 26.097C95.2781 26.097 96.2021 27.048 96.4001 28.95H90.6401C90.7541 28.026 91.0631 27.321 91.5671 26.835C92.0711 26.343 92.7581 26.097 93.6281 26.097ZM103.741 34.908C104.953 34.908 105.904 34.641 106.594 34.107C107.284 33.573 107.629 32.835 107.629 31.893C107.629 31.389 107.524 30.966 107.314 30.624C107.104 30.276 106.75 29.976 106.252 29.724C105.76 29.466 105.085 29.229 104.227 29.013C103.465 28.821 102.883 28.65 102.481 28.5C102.085 28.35 101.812 28.191 101.662 28.023C101.518 27.855 101.446 27.654 101.446 27.42C101.446 27.006 101.641 26.676 102.031 26.43C102.427 26.184 102.94 26.07 103.57 26.088C104.23 26.106 104.773 26.268 105.199 26.574C105.625 26.874 105.877 27.282 105.955 27.798L107.593 27.501C107.491 26.643 107.071 25.956 106.333 25.44C105.601 24.918 104.68 24.657 103.57 24.657C102.448 24.657 101.545 24.918 100.861 25.44C100.177 25.956 99.8348 26.643 99.8348 27.501C99.8348 27.963 99.9368 28.356 100.141 28.68C100.351 29.004 100.702 29.289 101.194 29.535C101.692 29.781 102.37 30.018 103.228 30.246C104.02 30.456 104.611 30.639 105.001 30.795C105.397 30.945 105.658 31.104 105.784 31.272C105.91 31.44 105.973 31.662 105.973 31.938C105.973 32.412 105.781 32.787 105.397 33.063C105.019 33.339 104.5 33.477 103.84 33.477C103.138 33.477 102.55 33.324 102.076 33.018C101.602 32.706 101.299 32.286 101.167 31.758L99.5288 32.019C99.6968 32.931 100.15 33.642 100.888 34.152C101.632 34.656 102.583 34.908 103.741 34.908Z" fill="#A69398"/>
</svg>
