<svg width="40" height="35" viewBox="0 0 40 35" fill="none" xmlns="http://www.w3.org/2000/svg">
<path d="M39.6 35H0.4C0.18 35 0 34.821 0 34.6023V31.4205C0 31.2017 0.18 31.0227 0.4 31.0227H39.6C39.82 31.0227 40 31.2017 40 31.4205V34.6023C40 34.821 39.82 35 39.6 35ZM39.6 3.97727H0.4C0.18 3.97727 0 3.79829 0 3.57954V0.397728C0 0.178978 0.18 0 0.4 0H39.6C39.82 0 40 0.178978 40 0.397728V3.57954C40 3.79829 39.82 3.97727 39.6 3.97727ZM39.6 19.4886H0.4C0.18 19.4886 0 19.3097 0 19.0909V15.9091C0 15.6903 0.18 15.5114 0.4 15.5114H39.6C39.82 15.5114 40 15.6903 40 15.9091V19.0909C40 19.3097 39.82 19.4886 39.6 19.4886Z" fill="#A69398"/>
</svg>
