<svg width="75" height="93" viewBox="0 0 75 93" fill="none" xmlns="http://www.w3.org/2000/svg">
<path d="M66.7465 79.3624H58.6262L56.2265 77.1396C61.3501 74.8548 65.7527 71.2575 69.0464 66.6369C72.8518 61.2985 74.8632 55.0091 74.8632 48.449C74.8632 40.8111 72.094 33.4846 67.0536 27.7451C67.0754 27.4968 67.0887 27.2459 67.0887 26.9922C67.0887 23.6825 65.2018 20.8067 62.4478 19.3776L64.7426 17.0838L68.9692 14.972C69.6784 14.6177 70.1777 13.9391 70.3047 13.1565C70.4316 12.3742 70.1726 11.5726 69.6121 11.0123L59.3164 0.723531C58.7559 0.16353 57.9541 -0.0947642 57.1718 0.0316584C56.3896 0.158626 55.711 0.657414 55.3565 1.366L53.2423 5.59135L37.2531 21.5685C36.2285 20.9335 34.8631 21.0578 33.9745 21.9456L30.0011 25.9163H21.0102C19.647 25.9163 18.538 27.0252 18.538 28.3885V33.0131C18.538 34.3761 19.647 35.4852 21.0102 35.4852H28.0574L24.6617 38.8785C23.7049 39.8235 23.7029 41.4274 24.6617 42.3763L27.9342 45.6464C28.8978 46.6097 30.4659 46.6097 31.4295 45.6464L34.8277 42.2506V49.2916C34.8277 50.6557 35.9375 51.7656 37.3016 51.7656H41.9299C43.2929 51.7656 44.402 50.6557 44.402 49.2916V40.3094L48.3752 36.3389C48.8775 35.837 49.1541 35.1697 49.1541 34.4598C49.1541 33.9576 49.0132 33.4781 48.7543 33.0619L50.8886 30.9293C52.3185 33.6819 55.1961 35.568 58.5079 35.568C59.1068 35.568 59.6915 35.5059 60.2563 35.3886C63.15 39.1104 64.735 43.7147 64.735 48.4488C64.735 49.2013 65.3449 49.8111 66.0973 49.8111C66.8497 49.8111 67.4596 49.2013 67.4596 48.4488C67.4596 43.379 65.8472 38.4411 62.8906 34.361C64.2687 33.5393 65.3971 32.3423 66.1358 30.9124C70.0209 35.926 72.1387 42.0683 72.1387 48.4488C72.1387 60.1699 64.8972 70.7791 54.0348 75.1092L50.1504 71.5111C57.9656 69.2253 64.2504 63.0115 66.5278 55.0914C66.7358 54.3685 66.318 53.6136 65.5949 53.4058C64.8718 53.198 64.117 53.6154 63.9092 54.3387C61.7346 61.9019 55.438 67.7097 47.7642 69.3009L46.8651 68.4679C44.9346 66.6796 41.9106 66.6796 39.9803 68.4679L39.0806 69.3013C35.1301 68.4839 31.5147 66.5648 28.625 63.7755H38.703C40.0664 63.7755 41.1755 62.6664 41.1755 61.303V57.0657C41.1755 55.7023 40.0664 54.5932 38.703 54.5932H14.2188C13.4664 54.5932 12.8565 55.2029 12.8565 55.9555C12.8565 56.708 13.4664 57.3178 14.2188 57.3178H38.4511V61.0511H2.8611V57.3178H7.86133C8.61369 57.3178 9.22365 56.708 9.22365 55.9555C9.22365 55.2029 8.61369 54.5932 7.86133 54.5932H2.60898C1.24576 54.5932 0.136475 55.7023 0.136475 57.0657V61.303C0.136475 62.6664 1.24558 63.7755 2.60898 63.7755H15.9838C19.3149 69.7128 24.4378 74.3836 30.6163 77.1418L28.219 79.3624H20.0989C16.287 79.3624 13.1856 82.4635 13.1856 86.2757V90.7297C13.1856 91.9818 14.2041 93.0002 15.4561 93.0002H71.3893C72.6413 93.0002 73.6598 91.9818 73.6598 90.7297V86.2757C73.6598 82.4635 70.5586 79.3624 66.7465 79.3624ZM57.6368 2.89706L67.4378 12.6912L64.2053 14.3063L56.0207 6.12737L57.6368 2.89706ZM21.2627 32.7604V28.6408H28.7367C28.8101 29.2229 29.0702 29.7617 29.492 30.1833L31.4273 32.1174L30.784 32.7604H21.2627ZM35.246 37.981C35.2337 37.9928 35.2215 38.0049 35.2097 38.0173L29.6821 43.541L26.7664 40.6271L33.3547 34.0432L36.2705 36.957L35.246 37.981ZM41.6774 49.0409H37.5523V39.5278L38.1977 38.883L40.1345 40.8186C40.567 41.2507 41.113 41.4999 41.6774 41.5713V49.0409ZM42.0136 38.8445L31.466 28.3042L35.8538 23.9195L46.4013 34.4598L42.0136 38.8445ZM49.9268 26.992C49.9268 27.3262 49.9481 27.6555 49.9855 27.98L46.8782 31.0848L39.2314 23.4433L54.3631 8.32287L62.0091 15.9634L59.4968 18.4746C59.172 18.4372 58.8425 18.416 58.5079 18.416C53.7764 18.416 49.9268 22.2633 49.9268 26.992ZM58.5079 32.8434C55.6914 32.8434 53.3333 30.8463 52.7766 28.195C52.7761 28.1921 52.7752 28.1892 52.7746 28.1863C52.6941 27.8005 52.6516 27.4012 52.6516 26.992C52.6516 23.7655 55.2787 21.1406 58.5081 21.1406C61.7374 21.1406 64.3644 23.7655 64.3644 26.992C64.3644 30.2185 61.7372 32.8434 58.5079 32.8434ZM41.8318 70.4667C42.7238 69.6406 44.1214 69.6406 45.0134 70.4667L52.796 77.6758C52.798 77.6777 52.8 77.6797 52.8022 77.6815L54.617 79.3624H32.2284L41.8318 70.4667ZM19.1567 63.7755H24.9157C28.0029 67.4954 32.1014 70.1784 36.6924 71.5135L32.8102 75.1096C27.1637 72.8598 22.4019 68.8969 19.1567 63.7755ZM70.9352 90.2754H15.9102V86.2755C15.9102 83.9659 17.7893 82.0868 20.0989 82.0868H66.7467C69.0562 82.0868 70.9353 83.9659 70.9353 86.2755V90.2754H70.9352Z" fill="#A69398"/>
</svg>
