<svg width="93" height="101" viewBox="0 0 93 101" fill="none" xmlns="http://www.w3.org/2000/svg">
<g clip-path="url(#clip0)" filter="url(#filter0_d)">
<path d="M75.7465 79.3624H67.6262L65.2265 77.1396C70.3501 74.8548 74.7527 71.2575 78.0464 66.6369C81.8518 61.2985 83.8632 55.0091 83.8632 48.449C83.8632 40.8111 81.094 33.4846 76.0536 27.7451C76.0754 27.4968 76.0887 27.2459 76.0887 26.9922C76.0887 23.6825 74.2018 20.8067 71.4478 19.3776L73.7426 17.0838L77.9692 14.972C78.6784 14.6177 79.1777 13.9391 79.3047 13.1565C79.4316 12.3742 79.1726 11.5726 78.6121 11.0123L68.3164 0.723531C67.7559 0.16353 66.9541 -0.0947642 66.1718 0.0316584C65.3896 0.158626 64.711 0.657414 64.3565 1.366L62.2423 5.59135L46.2531 21.5685C45.2285 20.9335 43.8631 21.0578 42.9745 21.9456L39.0011 25.9163H30.0102C28.647 25.9163 27.538 27.0252 27.538 28.3885V33.0131C27.538 34.3761 28.647 35.4852 30.0102 35.4852H37.0574L33.6617 38.8785C32.7049 39.8235 32.7029 41.4274 33.6617 42.3763L36.9342 45.6464C37.8978 46.6097 39.4659 46.6097 40.4295 45.6464L43.8277 42.2506V49.2916C43.8277 50.6557 44.9375 51.7656 46.3016 51.7656H50.9299C52.2929 51.7656 53.402 50.6557 53.402 49.2916V40.3094L57.3752 36.3389C57.8775 35.837 58.1541 35.1697 58.1541 34.4598C58.1541 33.9576 58.0132 33.4781 57.7543 33.0619L59.8886 30.9293C61.3185 33.6819 64.1961 35.568 67.5079 35.568C68.1068 35.568 68.6915 35.5059 69.2563 35.3886C72.15 39.1104 73.735 43.7147 73.735 48.4488C73.735 49.2013 74.3449 49.8111 75.0973 49.8111C75.8497 49.8111 76.4596 49.2013 76.4596 48.4488C76.4596 43.379 74.8472 38.4411 71.8906 34.361C73.2687 33.5393 74.3971 32.3423 75.1358 30.9124C79.0209 35.926 81.1387 42.0683 81.1387 48.4488C81.1387 60.1699 73.8972 70.7791 63.0348 75.1092L59.1504 71.5111C66.9656 69.2253 73.2504 63.0115 75.5278 55.0914C75.7358 54.3685 75.318 53.6136 74.5949 53.4058C73.8718 53.198 73.117 53.6154 72.9092 54.3387C70.7346 61.9019 64.438 67.7097 56.7642 69.3009L55.8651 68.4679C53.9346 66.6796 50.9106 66.6796 48.9803 68.4679L48.0806 69.3013C44.1301 68.4839 40.5147 66.5648 37.625 63.7755H47.703C49.0664 63.7755 50.1755 62.6664 50.1755 61.303V57.0657C50.1755 55.7023 49.0664 54.5932 47.703 54.5932H23.2188C22.4664 54.5932 21.8565 55.2029 21.8565 55.9555C21.8565 56.708 22.4664 57.3178 23.2188 57.3178H47.4511V61.0511H11.8611V57.3178H16.8613C17.6137 57.3178 18.2236 56.708 18.2236 55.9555C18.2236 55.2029 17.6137 54.5932 16.8613 54.5932H11.609C10.2458 54.5932 9.13647 55.7023 9.13647 57.0657V61.303C9.13647 62.6664 10.2456 63.7755 11.609 63.7755H24.9838C28.3149 69.7128 33.4378 74.3836 39.6163 77.1418L37.219 79.3624H29.0989C25.287 79.3624 22.1856 82.4635 22.1856 86.2757V90.7297C22.1856 91.9818 23.2041 93.0002 24.4561 93.0002H80.3893C81.6413 93.0002 82.6598 91.9818 82.6598 90.7297V86.2757C82.6598 82.4635 79.5586 79.3624 75.7465 79.3624ZM66.6368 2.89706L76.4378 12.6912L73.2053 14.3063L65.0207 6.12737L66.6368 2.89706ZM30.2627 32.7604V28.6408H37.7367C37.8101 29.2229 38.0702 29.7617 38.492 30.1833L40.4273 32.1174L39.784 32.7604H30.2627ZM44.246 37.981C44.2337 37.9928 44.2215 38.0049 44.2097 38.0173L38.6821 43.541L35.7664 40.6271L42.3547 34.0432L45.2705 36.957L44.246 37.981ZM50.6774 49.0409H46.5523V39.5278L47.1977 38.883L49.1345 40.8186C49.567 41.2507 50.113 41.4999 50.6774 41.5713V49.0409ZM51.0136 38.8445L40.466 28.3042L44.8538 23.9195L55.4013 34.4598L51.0136 38.8445ZM58.9268 26.992C58.9268 27.3262 58.9481 27.6555 58.9855 27.98L55.8782 31.0848L48.2314 23.4433L63.3631 8.32287L71.0091 15.9634L68.4968 18.4746C68.172 18.4372 67.8425 18.416 67.5079 18.416C62.7764 18.416 58.9268 22.2633 58.9268 26.992ZM67.5079 32.8434C64.6914 32.8434 62.3333 30.8463 61.7766 28.195C61.7761 28.1921 61.7752 28.1892 61.7746 28.1863C61.6941 27.8005 61.6516 27.4012 61.6516 26.992C61.6516 23.7655 64.2787 21.1406 67.5081 21.1406C70.7374 21.1406 73.3644 23.7655 73.3644 26.992C73.3644 30.2185 70.7372 32.8434 67.5079 32.8434ZM50.8318 70.4667C51.7238 69.6406 53.1214 69.6406 54.0134 70.4667L61.796 77.6758C61.798 77.6777 61.8 77.6797 61.8022 77.6815L63.617 79.3624H41.2284L50.8318 70.4667ZM28.1567 63.7755H33.9157C37.0029 67.4954 41.1014 70.1784 45.6924 71.5135L41.8102 75.1096C36.1637 72.8598 31.4019 68.8969 28.1567 63.7755ZM79.9352 90.2754H24.9102V86.2755C24.9102 83.9659 26.7893 82.0868 29.0989 82.0868H75.7467C78.0562 82.0868 79.9353 83.9659 79.9353 86.2755V90.2754H79.9352Z" fill="#A69398"/>
</g>
<defs>
<filter id="filter0_d" x="-4" y="0" width="101" height="101" filterUnits="userSpaceOnUse" color-interpolation-filters="sRGB">
<feFlood flood-opacity="0" result="BackgroundImageFix"/>
<feColorMatrix in="SourceAlpha" type="matrix" values="0 0 0 0 0 0 0 0 0 0 0 0 0 0 0 0 0 0 127 0"/>
<feOffset dy="4"/>
<feGaussianBlur stdDeviation="2"/>
<feColorMatrix type="matrix" values="0 0 0 0 0 0 0 0 0 0 0 0 0 0 0 0 0 0 0.25 0"/>
<feBlend mode="normal" in2="BackgroundImageFix" result="effect1_dropShadow"/>
<feBlend mode="normal" in="SourceGraphic" in2="effect1_dropShadow" result="shape"/>
</filter>
<clipPath id="clip0">
<rect width="93" height="93" fill="white"/>
</clipPath>
</defs>
</svg>
