<svg width="81" height="81" viewBox="0 0 81 81" fill="none" xmlns="http://www.w3.org/2000/svg">
<g filter="url(#filter0_d)">
<path d="M43.9392 56.4741V51.5842H48.8291C49.6165 51.5842 50.2548 50.9459 50.2548 50.1584V46.6942C50.2548 45.9067 49.6165 45.2684 48.8291 45.2684H43.9392V40.3785C43.9392 39.5911 43.3009 38.9528 42.5134 38.9528H39.0493C38.2618 38.9528 37.6235 39.5911 37.6235 40.3785V45.2684H32.7336C31.9462 45.2684 31.3079 45.9067 31.3079 46.6942V50.1583C31.3079 50.9457 31.9462 51.5841 32.7336 51.5841H37.6235V56.4739C37.6235 57.2614 38.2618 57.8997 39.0493 57.8997H42.5134C43.3009 57.8999 43.9392 57.2614 43.9392 56.4741Z" fill="#A69398"/>
<path d="M76.9961 31.0316C76.9961 30.2441 76.3577 29.6058 75.5703 29.6058H63.4967L70.2837 21.72C72.5864 19.0447 72.435 14.9938 69.939 12.4978C67.443 10.0018 63.3921 9.85024 60.7167 12.153L40.4389 29.6058H5.99195C5.20449 29.6058 4.56616 30.2441 4.56616 31.0316C4.56616 40.705 8.33323 49.7993 15.1733 56.6394C17.6824 59.1485 20.4957 61.2422 23.529 62.89V70.0403C23.529 71.6722 24.8567 72.9998 26.4885 72.9998H55.0739C56.7057 72.9998 58.0334 71.6722 58.0334 70.0403V62.89C61.0665 61.2422 63.8798 59.1485 66.3891 56.6394C73.229 49.7993 76.9961 40.7048 76.9961 31.0316ZM62.577 14.3142C64.1279 12.9794 66.476 13.0674 67.9226 14.5141C69.3694 15.9609 69.4572 18.309 68.1225 19.8598L59.7345 29.6056H44.8102L62.577 14.3142ZM55.1818 70.0403C55.1818 70.0998 55.1335 70.1483 55.0739 70.1483H26.4885C26.429 70.1483 26.3805 70.0999 26.3805 70.0403V64.2789C30.8665 66.2231 35.745 67.2465 40.7811 67.2465C45.8173 67.2465 50.6957 66.2232 55.1817 64.2789V70.0403H55.1818ZM40.7811 64.3949C31.8695 64.3949 23.4912 60.9246 17.1896 54.623C11.2254 48.6588 7.79742 40.8337 7.44753 32.4574H74.1148C73.7649 40.8337 70.3368 48.6588 64.3726 54.623C58.071 60.9244 49.6928 64.3949 40.7811 64.3949Z" fill="#A69398"/>
<path d="M18.2955 23.2007C18.3166 23.2007 18.3384 23.2007 18.3597 23.2006C19.7378 23.1946 21.0969 22.9909 22.4072 22.5976C23.7178 22.9911 25.0764 23.1946 26.456 23.2006C26.4774 23.2006 26.4986 23.2007 26.5201 23.2007C30.3123 23.2007 33.888 21.7188 36.595 19.0239C39.3168 16.3139 40.8159 12.7204 40.8158 8.90481C40.8158 5.90354 39.8951 3.03029 38.154 0.596193C37.9103 0.25543 37.5289 0.0391386 37.1114 0.0047772C36.6928 -0.0294416 36.2823 0.121406 35.9861 0.417542C34.7294 1.67437 33.1778 2.523 31.4996 2.87175C27.6652 3.66862 24.4449 5.99621 22.4201 9.12966C20.3703 5.93177 17.1216 3.66263 13.3162 2.87175C11.6379 2.523 10.0864 1.67437 8.82971 0.417542C8.53343 0.121264 8.12195 -0.0288713 7.70433 0.0047772C7.28686 0.0391386 6.90547 0.25543 6.6618 0.596193C4.92034 3.03044 4 5.90354 4 8.90481C4 12.7202 5.49893 16.3139 8.22075 19.0239C10.9277 21.7189 14.503 23.2007 18.2955 23.2007ZM32.0797 5.66343C33.7345 5.31953 35.2919 4.6132 36.6608 3.59419C37.5172 5.22329 37.9642 7.03262 37.9642 8.90481C37.9642 11.9561 36.7634 14.8322 34.5831 17.003C32.4025 19.1742 29.5236 20.3596 26.4687 20.349C25.7274 20.3457 24.9943 20.2705 24.2752 20.1273C25.3021 18.007 27.1242 16.3121 29.3488 15.4701C30.0852 15.1914 30.4563 14.3684 30.1774 13.6319C29.8987 12.8956 29.0759 12.5243 28.3392 12.8032C26.2006 13.6126 24.3451 15.0247 22.9785 16.8175C23.0026 11.4424 26.8221 6.75616 32.0797 5.66343ZM8.15502 3.59419C9.52392 4.6132 11.0813 5.31968 12.7361 5.66343C16.3899 6.42281 19.4033 8.88571 20.887 12.294C20.5769 13.2046 20.3559 14.1523 20.2354 15.1265C19.1501 14.1268 17.884 13.336 16.4766 12.8032C15.7399 12.5243 14.9171 12.8956 14.6384 13.6319C14.3596 14.3683 14.7306 15.1914 15.467 15.4701C17.6553 16.2984 19.4026 17.9544 20.4209 20.1497C19.74 20.2777 19.0469 20.346 18.3471 20.3492C15.2978 20.3613 12.4133 19.1743 10.2327 17.0031C8.05222 14.8322 6.85157 11.9561 6.85157 8.90481C6.85157 7.03262 7.29855 5.22329 8.15502 3.59419Z" fill="#A69398"/>
</g>
<defs>
<filter id="filter0_d" x="0" y="0" width="80.9961" height="80.9998" filterUnits="userSpaceOnUse" color-interpolation-filters="sRGB">
<feFlood flood-opacity="0" result="BackgroundImageFix"/>
<feColorMatrix in="SourceAlpha" type="matrix" values="0 0 0 0 0 0 0 0 0 0 0 0 0 0 0 0 0 0 127 0"/>
<feOffset dy="4"/>
<feGaussianBlur stdDeviation="2"/>
<feColorMatrix type="matrix" values="0 0 0 0 0 0 0 0 0 0 0 0 0 0 0 0 0 0 0.25 0"/>
<feBlend mode="normal" in2="BackgroundImageFix" result="effect1_dropShadow"/>
<feBlend mode="normal" in="SourceGraphic" in2="effect1_dropShadow" result="shape"/>
</filter>
</defs>
</svg>
