<svg width="87" height="87" viewBox="0 0 87 87" fill="none" xmlns="http://www.w3.org/2000/svg">
<path d="M47.5992 67.3047V61.477H53.4268C54.3653 61.477 55.1261 60.7163 55.1261 59.7778V55.6492C55.1261 54.7107 54.3653 53.95 53.4268 53.95H47.5992V48.1223C47.5992 47.1838 46.8384 46.4231 45.9 46.4231H41.7715C40.833 46.4231 40.0723 47.1838 40.0723 48.1223V53.95H34.2446C33.3062 53.95 32.5454 54.7107 32.5454 55.6492V59.7776C32.5454 60.7161 33.3062 61.4769 34.2446 61.4769H40.0723V67.3045C40.0723 68.243 40.833 69.0037 41.7715 69.0037H45.9C46.8384 69.0039 47.5992 68.243 47.5992 67.3047Z" fill="#7A97A8"/>
<path d="M86.9956 36.9829C86.9956 36.0444 86.2349 35.2836 85.2964 35.2836H70.9074L78.996 25.8856C81.7403 22.6971 81.5598 17.8693 78.5852 14.8946C75.6105 11.92 70.7827 11.7394 67.5942 14.4838L43.4275 35.2836H2.37427C1.43579 35.2836 0.675049 36.0444 0.675049 36.9829C0.675049 48.5114 5.16457 59.3499 13.3164 67.5018C16.3067 70.4921 19.6596 72.9874 23.2746 74.9512V83.4728C23.2746 85.4175 24.8569 86.9999 26.8016 86.9999H60.8692C62.814 86.9999 64.3963 85.4175 64.3963 83.4728V74.9512C68.0111 72.9874 71.364 70.4921 74.3544 67.5018C82.5061 59.3499 86.9956 48.5112 86.9956 36.9829ZM69.8112 17.0595C71.6596 15.4686 74.4581 15.5735 76.1821 17.2977C77.9063 19.0219 78.011 21.8203 76.4203 23.6686L66.4236 35.2835H48.6372L69.8112 17.0595ZM60.9978 83.4728C60.9978 83.5436 60.9402 83.6014 60.8692 83.6014H26.8016C26.7308 83.6014 26.673 83.5438 26.673 83.4728V76.6064C32.0193 78.9235 37.8333 80.1432 43.8353 80.1432C49.8373 80.1432 55.6514 78.9236 60.9977 76.6064V83.4728H60.9978ZM43.8353 76.7447C33.2147 76.7447 23.2295 72.6088 15.7195 65.0987C8.61145 57.9907 4.526 48.6649 4.10901 38.6821H83.5618C83.1449 48.6649 79.0592 57.9907 71.9512 65.0987C64.4412 72.6086 54.4562 76.7447 43.8353 76.7447Z" fill="#7A97A8"/>
<path d="M17.0371 27.6502C17.0622 27.6502 17.0882 27.6502 17.1136 27.65C18.756 27.6429 20.3757 27.4001 21.9373 26.9314C23.4993 27.4004 25.1184 27.6429 26.7626 27.65C26.7881 27.65 26.8134 27.6502 26.8391 27.6502C31.3585 27.6502 35.62 25.884 38.8461 22.6723C42.09 19.4426 43.8765 15.1599 43.8763 10.6126C43.8763 7.03572 42.7792 3.61145 40.7041 0.710532C40.4137 0.304417 39.9591 0.0466447 39.4616 0.00569338C38.9627 -0.035088 38.4735 0.14469 38.1204 0.497619C36.6227 1.99548 34.7736 3.00686 32.7734 3.42249C28.2037 4.37219 24.3659 7.14617 21.9528 10.8806C19.5098 7.06937 15.6381 4.36505 11.1029 3.42249C9.10274 3.00686 7.25365 1.99548 5.75595 0.497619C5.40285 0.14452 4.91246 -0.0344083 4.41475 0.00569338C3.91722 0.0466447 3.46268 0.304417 3.17228 0.710532C1.09685 3.61162 0 7.03572 0 10.6126C0 15.1597 1.78639 19.4426 5.03021 22.6723C8.25636 25.8842 12.5173 27.6502 17.0371 27.6502ZM33.4649 6.74957C35.437 6.33972 37.293 5.49793 38.9245 4.28349C39.9452 6.22502 40.4779 8.38134 40.4779 10.6126C40.4779 14.2491 39.0468 17.6768 36.4484 20.2638C33.8496 22.8514 30.4185 24.2642 26.7777 24.2516C25.8943 24.2477 25.0206 24.158 24.1636 23.9874C25.3874 21.4604 27.559 19.4404 30.2102 18.437C31.0878 18.1048 31.5301 17.124 31.1978 16.2462C30.8656 15.3687 29.8849 14.9262 29.0069 15.2586C26.4583 16.2233 24.2469 17.9062 22.6182 20.0428C22.6469 13.6369 27.199 8.05186 33.4649 6.74957ZM4.95188 4.28349C6.5833 5.49793 8.43937 6.33989 10.4115 6.74957C14.7661 7.65458 18.3574 10.5898 20.1256 14.6518C19.756 15.7369 19.4926 16.8664 19.3491 18.0275C18.0556 16.836 16.5467 15.8936 14.8694 15.2586C13.9914 14.9262 13.0108 15.3687 12.6786 16.2462C12.3464 17.1238 12.7885 18.1048 13.6662 18.437C16.2741 19.4241 18.3565 21.3977 19.5701 24.014C18.7586 24.1666 17.9326 24.248 17.0986 24.2518C13.4645 24.2662 10.0268 22.8516 7.42799 20.264C4.82936 17.6768 3.39845 14.2491 3.39845 10.6126C3.39845 8.38134 3.93115 6.22502 4.95188 4.28349Z" fill="#7A97A8"/>
</svg>
