<svg width="95" height="95" viewBox="0 0 95 95" fill="none" xmlns="http://www.w3.org/2000/svg">
<g filter="url(#filter0_d)">
<path d="M51.5992 67.3047V61.477H57.4268C58.3653 61.477 59.1261 60.7163 59.1261 59.7778V55.6492C59.1261 54.7107 58.3653 53.95 57.4268 53.95H51.5992V48.1223C51.5992 47.1838 50.8384 46.4231 49.9 46.4231H45.7715C44.833 46.4231 44.0723 47.1838 44.0723 48.1223V53.95H38.2446C37.3062 53.95 36.5454 54.7107 36.5454 55.6492V59.7776C36.5454 60.7161 37.3062 61.4769 38.2446 61.4769H44.0723V67.3045C44.0723 68.243 44.833 69.0037 45.7715 69.0037H49.9C50.8384 69.0039 51.5992 68.243 51.5992 67.3047Z" fill="#7A97A8"/>
<path d="M90.9956 36.9829C90.9956 36.0444 90.2349 35.2836 89.2964 35.2836H74.9074L82.996 25.8856C85.7403 22.6971 85.5598 17.8693 82.5852 14.8946C79.6105 11.92 74.7827 11.7394 71.5942 14.4838L47.4275 35.2836H6.37427C5.43579 35.2836 4.67505 36.0444 4.67505 36.9829C4.67505 48.5114 9.16457 59.3499 17.3164 67.5018C20.3067 70.4921 23.6596 72.9874 27.2746 74.9512V83.4728C27.2746 85.4175 28.8569 86.9999 30.8016 86.9999H64.8692C66.814 86.9999 68.3963 85.4175 68.3963 83.4728V74.9512C72.0111 72.9874 75.364 70.4921 78.3544 67.5018C86.5061 59.3499 90.9956 48.5112 90.9956 36.9829ZM73.8112 17.0595C75.6596 15.4686 78.4581 15.5735 80.1821 17.2977C81.9063 19.0219 82.011 21.8203 80.4203 23.6686L70.4236 35.2835H52.6372L73.8112 17.0595ZM64.9978 83.4728C64.9978 83.5436 64.9402 83.6014 64.8692 83.6014H30.8016C30.7308 83.6014 30.673 83.5438 30.673 83.4728V76.6064C36.0193 78.9235 41.8333 80.1432 47.8353 80.1432C53.8373 80.1432 59.6514 78.9236 64.9977 76.6064V83.4728H64.9978ZM47.8353 76.7447C37.2147 76.7447 27.2295 72.6088 19.7195 65.0987C12.6114 57.9907 8.526 48.6649 8.10901 38.6821H87.5618C87.1449 48.6649 83.0592 57.9907 75.9512 65.0987C68.4412 72.6086 58.4562 76.7447 47.8353 76.7447Z" fill="#7A97A8"/>
<path d="M21.0371 27.6502C21.0622 27.6502 21.0882 27.6502 21.1136 27.65C22.756 27.6429 24.3757 27.4001 25.9373 26.9314C27.4993 27.4004 29.1184 27.6429 30.7626 27.65C30.7881 27.65 30.8134 27.6502 30.8391 27.6502C35.3585 27.6502 39.62 25.884 42.8461 22.6723C46.09 19.4426 47.8765 15.1599 47.8763 10.6126C47.8763 7.03572 46.7792 3.61145 44.7041 0.710532C44.4137 0.304417 43.9591 0.0466447 43.4616 0.00569338C42.9627 -0.035088 42.4735 0.14469 42.1204 0.497619C40.6227 1.99548 38.7736 3.00686 36.7734 3.42249C32.2037 4.37219 28.3659 7.14617 25.9528 10.8806C23.5098 7.06937 19.6381 4.36505 15.1029 3.42249C13.1027 3.00686 11.2536 1.99548 9.75595 0.497619C9.40285 0.14452 8.91246 -0.0344083 8.41475 0.00569338C7.91722 0.0466447 7.46268 0.304417 7.17228 0.710532C5.09685 3.61162 4 7.03572 4 10.6126C4 15.1597 5.78639 19.4426 9.03021 22.6723C12.2564 25.8842 16.5173 27.6502 21.0371 27.6502ZM37.4649 6.74957C39.437 6.33972 41.293 5.49793 42.9245 4.28349C43.9452 6.22502 44.4779 8.38134 44.4779 10.6126C44.4779 14.2491 43.0468 17.6768 40.4484 20.2638C37.8496 22.8514 34.4185 24.2642 30.7777 24.2516C29.8943 24.2477 29.0206 24.158 28.1636 23.9874C29.3874 21.4604 31.559 19.4404 34.2102 18.437C35.0878 18.1048 35.5301 17.124 35.1978 16.2462C34.8656 15.3687 33.8849 14.9262 33.0069 15.2586C30.4583 16.2233 28.2469 17.9062 26.6182 20.0428C26.6469 13.6369 31.199 8.05186 37.4649 6.74957ZM8.95188 4.28349C10.5833 5.49793 12.4394 6.33989 14.4115 6.74957C18.7661 7.65458 22.3574 10.5898 24.1256 14.6518C23.756 15.7369 23.4926 16.8664 23.3491 18.0275C22.0556 16.836 20.5467 15.8936 18.8694 15.2586C17.9914 14.9262 17.0108 15.3687 16.6786 16.2462C16.3464 17.1238 16.7885 18.1048 17.6662 18.437C20.2741 19.4241 22.3565 21.3977 23.5701 24.014C22.7586 24.1666 21.9326 24.248 21.0986 24.2518C17.4645 24.2662 14.0268 22.8516 11.428 20.264C8.82936 17.6768 7.39845 14.2491 7.39845 10.6126C7.39845 8.38134 7.93115 6.22502 8.95188 4.28349Z" fill="#7A97A8"/>
</g>
<defs>
<filter id="filter0_d" x="0" y="0" width="94.9956" height="94.9999" filterUnits="userSpaceOnUse" color-interpolation-filters="sRGB">
<feFlood flood-opacity="0" result="BackgroundImageFix"/>
<feColorMatrix in="SourceAlpha" type="matrix" values="0 0 0 0 0 0 0 0 0 0 0 0 0 0 0 0 0 0 127 0"/>
<feOffset dy="4"/>
<feGaussianBlur stdDeviation="2"/>
<feColorMatrix type="matrix" values="0 0 0 0 0 0 0 0 0 0 0 0 0 0 0 0 0 0 0.25 0"/>
<feBlend mode="normal" in2="BackgroundImageFix" result="effect1_dropShadow"/>
<feBlend mode="normal" in="SourceGraphic" in2="effect1_dropShadow" result="shape"/>
</filter>
</defs>
</svg>
