<svg width="104" height="104" viewBox="0 0 104 104" fill="none" xmlns="http://www.w3.org/2000/svg">
<path d="M103.042 20.2397L98.549 15.7469C97.9536 15.1518 96.9892 15.1522 96.3944 15.7469C95.7995 16.3419 95.7995 17.3065 96.3944 17.9013L100.887 22.3941C100.976 22.4831 100.976 22.6277 100.887 22.7167L99.0611 24.543C99.0058 24.5982 98.9427 24.61 98.8996 24.61C98.8563 24.61 98.7936 24.5984 98.7383 24.5432L79.4564 5.26125C79.3674 5.17228 79.3674 5.02745 79.4564 4.93848L81.2825 3.11215C81.3715 3.02318 81.5163 3.02318 81.6053 3.11195L91.0761 12.583C91.6711 13.178 92.6355 13.178 93.2307 12.583C93.8257 11.988 93.8257 11.0234 93.2307 10.4286L83.7601 0.957572C82.483 -0.319292 80.4052 -0.319089 79.1281 0.957572L77.3018 2.7841C76.0251 4.06096 76.0251 6.13856 77.3018 7.41563L82.3851 12.4989L75.8762 19.0077L68.7917 11.9232C68.173 11.3047 67.3505 10.9639 66.4761 10.9639C65.601 10.9639 64.7787 11.3045 64.1602 11.9232L62.3339 13.7498C61.057 15.0268 61.0572 17.1044 62.3339 18.3813L64.161 20.2084L60.6762 23.6933C60.0812 24.2883 60.0812 25.2529 60.6762 25.8477C60.9737 26.1451 61.3638 26.294 61.7536 26.294C62.1434 26.294 62.5334 26.1453 62.8309 25.8477L66.3158 22.3628L69.4188 25.4658L57.7757 37.1089L54.6727 34.0059L57.5128 31.1658C58.1078 30.5708 58.1078 29.6062 57.5128 29.0114C56.9177 28.4164 55.9532 28.4164 55.3583 29.0114L19.0381 65.3311C15.7893 68.58 15.3514 73.5891 17.7194 77.3157L15.9636 79.0715C15.366 78.5213 14.4361 78.5343 13.8561 79.1142C13.2762 79.6939 13.2632 80.6238 13.8135 81.2216L13.4808 81.5544C11.5973 83.4378 11.5898 86.4957 13.4554 88.3902L0.446222 101.399C-0.148741 101.994 -0.148741 102.959 0.446222 103.554C0.743601 103.851 1.13361 104 1.52341 104C1.91321 104 2.30322 103.851 2.6006 103.554L15.6091 90.545C16.5226 91.4449 17.7298 91.9405 19.0136 91.9405C20.3101 91.9405 21.5289 91.4357 22.4456 90.5188L22.7783 90.1861C23.0694 90.454 23.4385 90.5897 23.8084 90.5897C24.1982 90.5897 24.5882 90.441 24.8856 90.1434C25.4655 89.5637 25.4785 88.6338 24.9282 88.036L26.6841 86.2801C28.2551 87.2785 30.0532 87.7802 31.8525 87.7802C34.3209 87.7802 36.7893 86.8408 38.6686 84.9614L83.7913 39.8383L85.6183 41.6653C86.2368 42.284 87.0593 42.6246 87.9341 42.6246C88.809 42.6246 89.6313 42.284 90.2498 41.6653L92.0759 39.8389C92.6946 39.2204 93.0355 38.398 93.0355 37.5231C93.0355 36.6482 92.6946 35.8259 92.0761 35.2074L84.9916 28.1229L91.5005 21.6141L96.5833 26.697C97.2019 27.3157 98.0243 27.6563 98.8992 27.6563C99.7739 27.6563 100.596 27.3157 101.215 26.697L103.041 24.8704C104.319 23.5944 104.319 21.5166 103.042 20.2397ZM63.4105 42.7441L75.0536 31.101L76.3794 32.4268L64.7365 44.0701L63.4105 42.7441ZM71.573 27.6204L72.899 28.9464L61.2559 40.5895L59.9299 39.2635L71.573 27.6204ZM24.3654 84.2905L22.7763 85.8796L18.1204 81.2237L19.7095 79.6346L24.3654 84.2905ZM19.0138 88.8936C18.5313 88.8936 18.0775 88.7057 17.7363 88.3644L15.6355 86.2637C15.2943 85.9224 15.1064 85.4686 15.1064 84.986C15.1064 84.5036 15.2943 84.0498 15.6355 83.7085L15.966 83.3781L20.6219 88.034L20.2914 88.3644C19.95 88.7057 19.4964 88.8936 19.0138 88.8936ZM36.5141 82.8073C33.9435 85.3774 29.7611 85.3774 27.1909 82.8073L21.1925 76.8089C18.6221 74.2385 18.6221 70.0561 21.1925 67.4857L46.9951 41.6831C47.2104 42.1201 47.494 42.5253 47.8486 42.8798L50.3036 45.3348C50.8986 45.9297 51.8632 45.9297 52.458 45.3348C53.0532 44.7398 53.0532 43.7754 52.4582 43.1804L50.0032 40.7252C49.7294 40.4514 49.5787 40.0874 49.5787 39.7002C49.5787 39.3135 49.7292 38.9499 50.0024 38.676L52.5181 36.1603L67.8395 51.4816L65.3237 53.9974C65.0499 54.2706 64.6863 54.4209 64.2996 54.4209C63.9124 54.4209 63.5484 54.2702 63.2746 53.9964L57.7767 48.4985C57.1815 47.9035 56.2171 47.9035 55.6221 48.4985C55.0272 49.0935 55.0272 50.0581 55.6221 50.6529L58.16 53.1908L32.5287 78.8223C31.9337 79.4173 31.9337 80.3819 32.5287 80.9767C32.8261 81.2741 33.2161 81.4229 33.6059 81.4229C33.9957 81.4229 34.3857 81.2743 34.6831 80.9767L60.3142 55.3456L61.1196 56.151C61.4743 56.5054 61.8795 56.7892 62.3164 57.0045L36.5141 82.8073ZM69.9937 49.3273L66.8909 46.2245L78.534 34.5812L81.6368 37.684L69.9937 49.3273ZM89.9888 37.5235C89.9888 37.5666 89.977 37.6295 89.9217 37.6848L88.0954 39.5113C88.0404 39.5663 87.9774 39.5781 87.9343 39.5781C87.8911 39.5781 87.8283 39.5666 87.7731 39.5113L64.4885 16.2267C64.3995 16.1377 64.3995 15.9931 64.4885 15.9041L66.3148 14.0776C66.3698 14.0226 66.4328 14.0108 66.4761 14.0108C66.5191 14.0108 66.5819 14.0224 66.6372 14.0776L89.922 37.3624C89.977 37.4177 89.9888 37.4804 89.9888 37.5235ZM82.8372 25.9687L81.5114 24.6429L84.5762 21.5781C85.1712 20.9832 85.1712 20.0185 84.5762 19.4238C83.9811 18.8288 83.0166 18.8288 82.4216 19.4238L79.357 22.4886L78.031 21.1625L84.5397 14.6537L89.3463 19.4603L82.8372 25.9687Z" fill="#6A8B9E"/>
</svg>
