<svg width="102" height="108" viewBox="0 0 102 108" fill="none" xmlns="http://www.w3.org/2000/svg">
<g filter="url(#filter0_d)">
<path d="M70.4502 87.6986C69.5667 87.8259 68.9649 88.5768 69.1057 89.3756C69.7004 92.7488 67.3951 95.9546 63.7436 96.832C60.2385 97.6748 56.5244 96.0343 55.1045 93.0167L48.3427 78.6449C47.3255 76.4828 44.9892 75.086 42.3909 75.086C39.7923 75.086 37.456 76.483 36.4388 78.6449L29.677 93.0167C28.2571 96.0341 24.5428 97.674 21.0379 96.832C17.3864 95.9544 15.0811 92.749 15.6758 89.3756L17.2205 80.6115C18.5866 72.8605 17.0597 64.792 12.9216 57.8923C9.20446 51.6949 7.23975 44.6928 7.23975 37.6428C7.23975 36.834 6.51458 36.1782 5.62012 36.1782C4.72565 36.1782 4.00049 36.834 4.00049 37.6428C4.00049 45.179 6.10082 52.6643 10.0741 59.2889C13.874 65.6244 15.2759 73.0331 14.0215 80.1505L12.4768 88.9146C11.6197 93.7773 14.9425 98.3981 20.2061 99.6633C21.0986 99.8777 21.9997 99.9806 22.891 99.9806C27.0459 99.9804 30.9731 97.7449 32.658 94.1638L39.4198 79.792C39.9275 78.7129 41.0939 78.0156 42.3909 78.0156C43.6879 78.0156 44.8542 78.7129 45.3619 79.792L52.1238 94.1638C54.1701 98.5131 59.5229 100.877 64.5757 99.6633C69.8392 98.3983 73.1621 93.7775 72.305 88.9148C72.164 88.1157 71.3328 87.5721 70.4502 87.6986V87.6986Z" fill="#6A8B9E"/>
<path d="M57.6161 25.3398C56.5365 25.3398 55.6105 25.97 55.3121 26.9081L54.5744 29.2252C53.9842 31.0784 52.4084 32.5033 50.3591 33.037L47.7968 33.704C46.7594 33.9741 46.0625 34.8114 46.0625 35.7876C46.0625 36.7638 46.7594 37.6011 47.7968 37.871L50.3593 38.5382C52.4086 39.0717 53.9844 40.4966 54.5746 42.35L55.3123 44.6669C55.611 45.605 56.537 46.2352 57.6163 46.2352C58.6958 46.2352 59.6218 45.605 59.9203 44.6669L60.6579 42.3498C61.2481 40.4964 62.8239 39.0715 64.8733 38.538L67.4356 37.871C68.473 37.6009 69.1699 36.7636 69.1699 35.7876C69.1699 34.8114 68.473 33.9741 67.4356 33.7042L64.8731 33.0372C62.8235 32.5035 61.2477 31.0786 60.6577 29.2254L59.9198 26.9083C59.6216 25.97 58.6956 25.3398 57.6161 25.3398ZM56.8073 27.7185V27.7189C56.8073 27.7187 56.8073 27.7185 56.8073 27.7185C56.8071 27.7185 56.8071 27.7185 56.8073 27.7185ZM63.7413 35.7876C60.8072 36.6253 58.5427 38.673 57.6161 41.3262C56.6896 38.673 54.4248 36.6253 51.4908 35.7876C54.4248 34.9497 56.6894 32.902 57.6161 30.249C58.5427 32.902 60.8074 34.9497 63.7413 35.7876Z" fill="#6A8B9E"/>
<path d="M95.8563 14.4138L91.4278 13.2609C87.4934 12.2365 84.4681 9.50107 83.3355 5.94317L82.0605 1.93888C81.6912 0.779145 80.5465 0 79.2119 0C77.8773 0 76.7326 0.779145 76.3635 1.93888L75.0883 5.94337C74.6054 7.46007 73.776 8.82523 72.6815 9.97422C72.0486 9.64382 71.3895 9.34954 70.7132 9.0992C66.1689 7.4173 61.0928 7.67565 56.7863 9.80785L48.7756 13.7741C46.8714 14.7169 44.717 15.2154 42.5459 15.2154H42.2355C40.0644 15.2154 37.9101 14.717 36.0058 13.7741L27.9951 9.80785C23.6882 7.67565 18.6121 7.41711 14.0683 9.0992C7.95211 11.363 4 16.6866 4 22.662V30.8078C4 31.6167 4.72516 32.2724 5.61963 32.2724C6.5141 32.2724 7.23926 31.6167 7.23926 30.8078V22.662C7.23926 17.8811 10.4014 13.6216 15.2951 11.8102C18.9312 10.4646 22.9931 10.6712 26.439 12.3773L34.4497 16.3435C36.8297 17.5218 39.5217 18.1447 42.2353 18.1447H42.5456C45.2591 18.1447 47.9513 17.5218 50.3313 16.3435L58.342 12.3773C61.7881 10.6712 65.8497 10.4644 69.4859 11.8102C69.671 11.8787 69.8543 11.952 70.0361 12.0283C69.1056 12.5569 68.0876 12.977 66.9962 13.2611L62.5675 14.4142C61.285 14.7481 60.4233 15.7832 60.4233 16.99C60.4233 18.1966 61.285 19.232 62.5675 19.5659L66.996 20.7188C70.9304 21.7432 73.9556 24.4786 75.0883 28.0365L76.3633 32.041C76.5617 32.6645 76.9859 33.1763 77.5415 33.5179V37.6432C77.5415 38.5044 77.5104 39.3749 77.4523 40.2359C77.1515 40.4948 76.9222 40.8266 76.7997 41.2113L76.062 43.5284C75.4718 45.3816 73.896 46.8065 71.8467 47.3402L69.2842 48.0072C68.247 48.2773 67.5501 49.1146 67.5501 50.0906C67.5501 51.0666 68.247 51.9039 69.2844 52.174L71.8469 52.841C72.6422 53.0482 73.365 53.3909 73.9878 53.8395C73.3579 55.2195 72.6461 56.5819 71.8598 57.8926C67.7216 64.7922 66.1948 72.8608 67.5609 80.6118L67.9155 82.6241C68.0522 83.4271 68.9063 83.9699 69.7699 83.8401C70.6533 83.7127 71.2554 82.9619 71.1146 82.1632L70.76 80.1509C69.5058 73.0336 70.9075 65.6249 74.7074 59.2894C75.1997 58.4685 75.664 57.628 76.1015 56.7768L76.7997 58.9701C77.0984 59.9082 78.0244 60.5384 79.1037 60.5384C80.1832 60.5384 81.1092 59.9082 81.4077 58.9701L82.1454 56.653C82.7355 54.7998 84.3113 53.3749 86.3607 52.8412L88.9232 52.1742C89.9604 51.9041 90.6573 51.0668 90.6573 50.0908C90.6573 49.1148 89.9604 48.2775 88.923 48.0074L86.3605 47.3404C84.3109 46.8067 82.7351 45.3818 82.1451 43.5286L81.4072 41.2115C81.2772 40.8032 81.0282 40.4534 80.6998 40.1884C80.7523 39.3419 80.7803 38.4886 80.7803 37.6434V33.5788C81.3863 33.2388 81.8493 32.7022 82.0596 32.0412L83.3348 28.0367C84.4675 24.479 87.4927 21.7434 91.4271 20.7192L95.8558 19.5661C97.1384 19.2322 98 18.197 98 16.9902C98.0007 15.783 97.139 14.7479 95.8563 14.4138V14.4138ZM85.2293 50.0902C82.2952 50.9281 80.0306 52.9758 79.1041 55.6288C78.1775 52.9758 75.9128 50.9281 72.9787 50.0902C75.9128 49.2523 78.1775 47.2046 79.1039 44.5516C80.0306 47.2046 82.295 49.2525 85.2293 50.0902ZM90.5316 17.9035C85.5194 19.2084 81.6657 22.6934 80.2227 27.2255L79.2121 30.3995L78.2014 27.2255C76.7585 22.6934 72.9046 19.2086 67.8924 17.9035L64.3821 16.9896L67.8924 16.0758C72.9046 14.7709 76.7583 11.2859 78.2012 6.75376L79.2119 3.57977L80.2225 6.75376C81.6655 11.2859 85.5194 14.7707 90.5316 16.0758L94.0419 16.9896L90.5316 17.9035Z" fill="#6A8B9E"/>
</g>
<defs>
<filter id="filter0_d" x="0" y="0" width="102" height="107.981" filterUnits="userSpaceOnUse" color-interpolation-filters="sRGB">
<feFlood flood-opacity="0" result="BackgroundImageFix"/>
<feColorMatrix in="SourceAlpha" type="matrix" values="0 0 0 0 0 0 0 0 0 0 0 0 0 0 0 0 0 0 127 0"/>
<feOffset dy="4"/>
<feGaussianBlur stdDeviation="2"/>
<feColorMatrix type="matrix" values="0 0 0 0 0 0 0 0 0 0 0 0 0 0 0 0 0 0 0.25 0"/>
<feBlend mode="normal" in2="BackgroundImageFix" result="effect1_dropShadow"/>
<feBlend mode="normal" in="SourceGraphic" in2="effect1_dropShadow" result="shape"/>
</filter>
</defs>
</svg>
