<svg width="85" height="100" viewBox="0 0 85 100" fill="none" xmlns="http://www.w3.org/2000/svg">
<path d="M60.088 87.6986C59.2891 87.8259 58.7449 88.5768 58.8722 89.3756C59.41 92.7488 57.3254 95.9546 54.0235 96.832C50.854 97.6748 47.4955 96.0343 46.2116 93.0167L40.0971 78.6449C39.1774 76.4828 37.0647 75.086 34.7152 75.086C32.3655 75.086 30.2528 76.483 29.333 78.6449L23.2186 93.0167C21.9347 96.0341 18.576 97.674 15.4067 96.832C12.1048 95.9544 10.0202 92.749 10.558 89.3756L11.9548 80.6115C13.1901 72.8605 11.8093 64.792 8.06747 57.8923C4.70621 51.6949 2.9296 44.6928 2.9296 37.6428C2.9296 36.834 2.27387 36.1782 1.46505 36.1782C0.65622 36.1782 0.000488281 36.834 0.000488281 37.6428C0.000488281 45.179 1.89973 52.6643 5.49258 59.2889C8.92863 65.6244 10.1963 73.0331 9.062 80.1505L7.6652 88.9146C6.89016 93.7773 9.89484 98.3981 14.6545 99.6633C15.4615 99.8777 16.2764 99.9806 17.0823 99.9806C20.8394 99.9804 24.3906 97.7449 25.9142 94.1638L32.0286 79.792C32.4877 78.7129 33.5424 78.0156 34.7152 78.0156C35.888 78.0156 36.9427 78.7129 37.4018 79.792L43.5162 94.1638C45.3666 98.5131 50.2069 100.877 54.7759 99.6633C59.5355 98.3983 62.5402 93.7775 61.7652 88.9148C61.6377 88.1157 60.8861 87.5721 60.088 87.6986Z" fill="#6A8B9E"/>
<path d="M48.4825 25.3398C47.5064 25.3398 46.669 25.97 46.3992 26.9081L45.7321 29.2252C45.1984 31.0784 43.7735 32.5033 41.9203 33.037L39.6034 33.704C38.6653 33.9741 38.0352 34.8114 38.0352 35.7876C38.0352 36.7638 38.6653 37.6011 39.6034 37.871L41.9205 38.5382C43.7737 39.0717 45.1986 40.4966 45.7323 42.35L46.3993 44.6669C46.6694 45.605 47.5068 46.2352 48.4827 46.2352C49.4589 46.2352 50.2962 45.605 50.5661 44.6669L51.2332 42.3498C51.7669 40.4964 53.1918 39.0715 55.0449 38.538L57.3619 37.871C58.3 37.6009 58.9301 36.7636 58.9301 35.7876C58.9301 34.8114 58.3 33.9741 57.3619 33.7042L55.0447 33.0372C53.1914 32.5035 51.7665 31.0786 51.233 29.2254L50.5657 26.9083C50.296 25.97 49.4587 25.3398 48.4825 25.3398ZM47.7512 27.7185V27.7189C47.7512 27.7187 47.7512 27.7185 47.7512 27.7185C47.751 27.7185 47.751 27.7185 47.7512 27.7185ZM54.0213 35.7876C51.3681 36.6253 49.3205 38.673 48.4825 41.3262C47.6448 38.673 45.5968 36.6253 42.9438 35.7876C45.5968 34.9497 47.6446 32.902 48.4825 30.249C49.3205 32.902 51.3683 34.9497 54.0213 35.7876Z" fill="#6A8B9E"/>
<path d="M83.0615 14.4138L79.057 13.2609C75.4993 12.2365 72.7637 9.50107 71.7395 5.94317L70.5866 1.93888C70.2527 0.779145 69.2175 0 68.0107 0C66.8039 0 65.7688 0.779145 65.4351 1.93888L64.282 5.94337C63.8453 7.46007 63.0953 8.82523 62.1056 9.97422C61.5333 9.64382 60.9373 9.34954 60.3257 9.0992C56.2166 7.4173 51.6264 7.67565 47.7323 9.80785L40.4886 13.7741C38.7666 14.7169 36.8186 15.2154 34.8553 15.2154H34.5747C32.6114 15.2154 30.6633 14.717 28.9414 13.7741L21.6977 9.80785C17.8032 7.67565 13.213 7.41711 9.10428 9.0992C3.57372 11.363 0 16.6866 0 22.662V30.8078C0 31.6167 0.655731 32.2724 1.46456 32.2724C2.27338 32.2724 2.92912 31.6167 2.92912 30.8078V22.662C2.92912 17.8811 5.78852 13.6216 10.2136 11.8102C13.5017 10.4646 17.1746 10.6712 20.2906 12.3773L27.5343 16.3435C29.6864 17.5218 32.1207 18.1447 34.5745 18.1447H34.8551C37.3087 18.1447 39.7432 17.5218 41.8953 16.3435L49.139 12.3773C52.2552 10.6712 55.9279 10.4644 59.216 11.8102C59.3833 11.8787 59.5491 11.952 59.7135 12.0283C58.8721 12.5569 57.9516 12.977 56.9647 13.2611L52.96 14.4142C51.8002 14.7481 51.0211 15.7832 51.0211 16.99C51.0211 18.1966 51.8002 19.232 52.96 19.5659L56.9645 20.7188C60.5222 21.7432 63.2578 24.4786 64.282 28.0365L65.4349 32.041C65.6143 32.6645 65.9978 33.1763 66.5003 33.5179V37.6432C66.5003 38.5044 66.4722 39.3749 66.4196 40.2359C66.1476 40.4948 65.9402 40.8266 65.8295 41.2113L65.1625 43.5284C64.6288 45.3816 63.2039 46.8065 61.3507 47.3402L59.0336 48.0072C58.0957 48.2773 57.4655 49.1146 57.4655 50.0906C57.4655 51.0666 58.0957 51.9039 59.0338 52.174L61.3509 52.841C62.0701 53.0482 62.7237 53.3909 63.2869 53.8395C62.7172 55.2195 62.0736 56.5819 61.3626 57.8926C57.6206 64.7922 56.24 72.8608 57.4753 80.6118L57.7959 82.6241C57.9195 83.4271 58.6919 83.9699 59.4728 83.8401C60.2716 83.7127 60.8161 82.9619 60.6887 82.1632L60.3681 80.1509C59.2339 73.0336 60.5015 65.6249 63.9375 59.2894C64.3827 58.4685 64.8026 57.628 65.1982 56.7768L65.8295 58.9701C66.0996 59.9082 66.9369 60.5384 67.9129 60.5384C68.8891 60.5384 69.7264 59.9082 69.9963 58.9701L70.6633 56.653C71.197 54.7998 72.6219 53.3749 74.4751 52.8412L76.7922 52.1742C77.7301 51.9041 78.3603 51.0668 78.3603 50.0908C78.3603 49.1148 77.7301 48.2775 76.792 48.0074L74.4749 47.3404C72.6216 46.8067 71.1966 45.3818 70.6631 43.5286L69.9959 41.2115C69.8783 40.8032 69.6532 40.4534 69.3562 40.1884C69.4036 39.3419 69.429 38.4886 69.429 37.6434V33.5788C69.977 33.2388 70.3956 32.7022 70.5858 32.0412L71.7389 28.0367C72.7631 24.479 75.4987 21.7434 79.0564 20.7192L83.0611 19.5661C84.2209 19.2322 85 18.197 85 16.9902C85.0006 15.783 84.2214 14.7479 83.0615 14.4138ZM73.4521 50.0902C70.7989 50.9281 68.751 52.9758 67.9133 55.6288C67.0754 52.9758 65.0275 50.9281 62.3743 50.0902C65.0275 49.2523 67.0754 47.2046 67.9131 44.5516C68.751 47.2046 70.7987 49.2525 73.4521 50.0902ZM78.2466 17.9035C73.7143 19.2084 70.2296 22.6934 68.9248 27.2255L68.0109 30.3995L67.097 27.2255C65.7922 22.6934 62.3074 19.2086 57.775 17.9035L54.6009 16.9896L57.775 16.0758C62.3074 14.7709 65.792 11.2859 67.0969 6.75376L68.0107 3.57977L68.9246 6.75376C70.2294 11.2859 73.7143 14.7707 78.2466 16.0758L81.4208 16.9896L78.2466 17.9035Z" fill="#6A8B9E"/>
</svg>
