<svg width="107" height="96" viewBox="0 0 107 96" fill="none" xmlns="http://www.w3.org/2000/svg">
<g filter="url(#filter0_d)">
<path d="M38.6128 66.8714C37.8141 66.8053 37.1125 67.3959 37.0448 68.1938L36.2132 77.9864C35.922 81.8563 32.6537 84.8877 28.773 84.8877C24.8675 84.8877 21.5978 81.8356 21.3294 77.9392L19.4917 51.2659C19.0848 45.3621 16.5318 39.8354 12.3011 35.6991L12.297 35.695C8.99084 32.3382 7.07416 27.9038 6.89973 23.2089C6.87014 22.4084 6.19676 21.7789 5.39652 21.8134C4.59608 21.8429 3.97124 22.5161 4.00102 23.3166C4.20176 28.7255 6.40484 33.8338 10.2053 37.7051C10.2202 37.7209 10.2353 37.7364 10.251 37.7515C13.9851 41.392 16.239 46.2623 16.5976 51.4653L18.4354 78.1386C18.8082 83.5496 23.3492 87.7885 28.7732 87.7885C34.1627 87.7885 38.7015 83.5784 39.1049 78.2181L39.9354 68.4394C40.003 67.6413 39.4109 66.9393 38.6128 66.8714Z" fill="#6A8B9E"/>
<path d="M84.8854 20.4815C83.8478 9.30925 74.3627 0.690106 63.0854 0.788927C58.6035 0.825864 54.3114 2.21865 50.6734 4.81625C46.9705 7.46006 41.995 7.46006 38.2922 4.81625C26.0438 -3.92898 8.67706 2.23335 4.72767 16.8789C4.519 17.6522 4.97695 18.4482 5.7505 18.6569C6.52406 18.8654 7.32005 18.4076 7.52852 17.6341C11.8291 1.68645 33.3204 -1.52864 41.9237 12.9583C42.3145 13.6164 42.6684 14.3051 42.9753 15.0049C43.2962 15.7361 44.1505 16.0732 44.8862 15.7504C45.6197 15.4286 45.9535 14.5731 45.6317 13.8396C45.2772 13.0316 44.8688 12.2366 44.4176 11.4771C44.0388 10.8393 43.6292 10.2255 43.1927 9.63607C46.3722 9.93931 49.6358 9.12127 52.3587 7.17714C55.509 4.92783 59.2265 3.72167 63.1092 3.68956C72.569 3.61395 80.5827 10.6131 81.8913 19.8507C80.7186 19.6791 79.52 19.5888 78.3005 19.5888C64.6811 19.5888 53.6009 30.669 53.6009 44.2884C53.6009 54.387 59.6936 63.0879 68.3955 66.9124L67.6357 77.9394C67.3672 81.8358 64.0976 84.8879 60.1919 84.8879C56.3112 84.8879 53.0429 81.8565 52.7505 77.9727L50.7722 54.6792C50.526 51.4076 47.763 48.8451 44.4824 48.8451C41.2018 48.8451 38.4388 51.4076 38.1936 54.6653L37.5682 62.0297C37.5003 62.8278 38.0924 63.5298 38.8906 63.5977C39.6906 63.6644 40.3907 63.0732 40.4586 62.2753L41.0851 54.897C41.2182 53.13 42.7104 51.7459 44.4822 51.7459C46.254 51.7459 47.7464 53.13 47.8804 54.9109L49.8588 78.2044C50.2634 83.5788 54.8022 87.7887 60.1917 87.7887C65.6157 87.7887 70.1565 83.55 70.5295 78.1388L71.2312 67.9555C73.4718 68.626 75.8444 68.988 78.3003 68.988C82.6709 68.988 86.9662 67.831 90.7218 65.6416C91.414 65.2382 91.648 64.3502 91.2446 63.6582C90.8412 62.9661 89.9529 62.7321 89.2612 63.1355C85.9484 65.0665 82.1582 66.0872 78.3005 66.0872C66.2806 66.0872 56.5017 56.3083 56.5017 44.2884C56.5017 32.2685 66.2806 22.4897 78.3005 22.4897C90.3204 22.4897 100.099 32.2685 100.099 44.2884C100.099 49.9793 97.9196 55.3642 93.9617 59.4515C93.4045 60.0268 93.4192 60.9452 93.9946 61.5023C94.5701 62.0597 95.4881 62.0448 96.0454 61.4695C100.53 56.8384 103 50.7368 103 44.2886C103 32.9487 95.3181 23.3707 84.8854 20.4815Z" fill="#6A8B9E"/>
<path d="M87.4196 38.2784H84.3105V35.1693C84.3105 31.8554 81.6145 29.1592 78.3006 29.1592C74.9867 29.1592 72.2906 31.8552 72.2906 35.1693V38.2784H69.1815C65.8676 38.2784 63.1714 40.9745 63.1714 44.2884C63.1714 47.6023 65.8674 50.2983 69.1815 50.2983H72.2906V53.4074C72.2906 56.7213 74.9867 59.4175 78.3006 59.4175C81.6145 59.4175 84.3105 56.7215 84.3105 53.4074V50.2983H87.4196C90.7335 50.2983 93.4298 47.6023 93.4298 44.2884C93.4298 40.9745 90.7337 38.2784 87.4196 38.2784ZM87.4196 47.3977H82.8601C82.0591 47.3977 81.4097 48.0471 81.4097 48.8481V53.4076C81.4097 55.122 80.015 56.5169 78.3006 56.5169C76.5862 56.5169 75.1915 55.1222 75.1915 53.4076V48.8481C75.1915 48.0471 74.5421 47.3977 73.741 47.3977H69.1815C67.4671 47.3977 66.0722 46.0029 66.0722 44.2886C66.0722 42.5742 67.4669 41.1794 69.1815 41.1794H73.741C74.5421 41.1794 75.1915 40.53 75.1915 39.729V35.1695C75.1915 33.4551 76.5862 32.0602 78.3006 32.0602C80.015 32.0602 81.4097 33.4549 81.4097 35.1695V39.729C81.4097 40.53 82.0591 41.1794 82.8601 41.1794H87.4196C89.134 41.1794 90.5289 42.5742 90.5289 44.2886C90.5289 46.0029 89.1342 47.3977 87.4196 47.3977Z" fill="#6A8B9E"/>
</g>
<defs>
<filter id="filter0_d" x="0" y="0.788086" width="107" height="95.0006" filterUnits="userSpaceOnUse" color-interpolation-filters="sRGB">
<feFlood flood-opacity="0" result="BackgroundImageFix"/>
<feColorMatrix in="SourceAlpha" type="matrix" values="0 0 0 0 0 0 0 0 0 0 0 0 0 0 0 0 0 0 127 0"/>
<feOffset dy="4"/>
<feGaussianBlur stdDeviation="2"/>
<feColorMatrix type="matrix" values="0 0 0 0 0 0 0 0 0 0 0 0 0 0 0 0 0 0 0.25 0"/>
<feBlend mode="normal" in2="BackgroundImageFix" result="effect1_dropShadow"/>
<feBlend mode="normal" in="SourceGraphic" in2="effect1_dropShadow" result="shape"/>
</filter>
</defs>
</svg>
