<svg width="99" height="88" viewBox="0 0 99 88" fill="none" xmlns="http://www.w3.org/2000/svg">
<path d="M34.6128 66.8714C33.8141 66.8053 33.1125 67.3959 33.0448 68.1938L32.2132 77.9864C31.922 81.8563 28.6537 84.8877 24.773 84.8877C20.8675 84.8877 17.5978 81.8356 17.3294 77.9392L15.4917 51.2659C15.0848 45.3621 12.5318 39.8354 8.30107 35.6991L8.29701 35.695C4.99084 32.3382 3.07416 27.9038 2.89973 23.2089C2.87014 22.4084 2.19676 21.7789 1.39652 21.8134C0.596079 21.8429 -0.02876 22.5161 0.0010219 23.3166C0.201759 28.7255 2.40484 33.8338 6.20532 37.7051C6.22021 37.7209 6.23529 37.7364 6.25096 37.7515C9.9851 41.392 12.239 46.2623 12.5976 51.4653L14.4354 78.1386C14.8082 83.5496 19.3492 87.7885 24.7732 87.7885C30.1627 87.7885 34.7015 83.5784 35.1049 78.2181L35.9354 68.4394C36.003 67.6413 35.4109 66.9393 34.6128 66.8714Z" fill="#6A8B9E"/>
<path d="M80.8854 20.4815C79.8478 9.30925 70.3627 0.690106 59.0854 0.788927C54.6035 0.825864 50.3114 2.21865 46.6734 4.81625C42.9705 7.46006 37.995 7.46006 34.2922 4.81625C22.0438 -3.92898 4.67706 2.23335 0.727671 16.8789C0.519005 17.6522 0.976949 18.4482 1.7505 18.6569C2.52406 18.8654 3.32005 18.4076 3.52852 17.6341C7.8291 1.68645 29.3204 -1.52864 37.9237 12.9583C38.3145 13.6164 38.6684 14.3051 38.9753 15.0049C39.2962 15.7361 40.1505 16.0732 40.8862 15.7504C41.6197 15.4286 41.9535 14.5731 41.6317 13.8396C41.2772 13.0316 40.8688 12.2366 40.4176 11.4771C40.0388 10.8393 39.6292 10.2255 39.1927 9.63607C42.3722 9.93931 45.6358 9.12127 48.3587 7.17714C51.509 4.92783 55.2265 3.72167 59.1092 3.68956C68.569 3.61395 76.5827 10.6131 77.8913 19.8507C76.7186 19.6791 75.52 19.5888 74.3005 19.5888C60.6811 19.5888 49.6009 30.669 49.6009 44.2884C49.6009 54.387 55.6936 63.0879 64.3955 66.9124L63.6357 77.9394C63.3672 81.8358 60.0976 84.8879 56.1919 84.8879C52.3112 84.8879 49.0429 81.8565 48.7505 77.9727L46.7722 54.6792C46.526 51.4076 43.763 48.8451 40.4824 48.8451C37.2018 48.8451 34.4388 51.4076 34.1936 54.6653L33.5682 62.0297C33.5003 62.8278 34.0924 63.5298 34.8906 63.5977C35.6906 63.6644 36.3907 63.0732 36.4586 62.2753L37.0851 54.897C37.2182 53.13 38.7104 51.7459 40.4822 51.7459C42.254 51.7459 43.7464 53.13 43.8804 54.9109L45.8588 78.2044C46.2634 83.5788 50.8022 87.7887 56.1917 87.7887C61.6157 87.7887 66.1565 83.55 66.5295 78.1388L67.2312 67.9555C69.4718 68.626 71.8444 68.988 74.3003 68.988C78.6709 68.988 82.9662 67.831 86.7218 65.6416C87.414 65.2382 87.648 64.3502 87.2446 63.6582C86.8412 62.9661 85.9529 62.7321 85.2612 63.1355C81.9484 65.0665 78.1582 66.0872 74.3005 66.0872C62.2806 66.0872 52.5017 56.3083 52.5017 44.2884C52.5017 32.2685 62.2806 22.4897 74.3005 22.4897C86.3204 22.4897 96.0993 32.2685 96.0993 44.2884C96.0993 49.9793 93.9196 55.3642 89.9617 59.4515C89.4045 60.0268 89.4192 60.9452 89.9946 61.5023C90.5701 62.0597 91.4881 62.0448 92.0454 61.4695C96.5301 56.8384 99.0001 50.7368 99.0001 44.2886C99.0003 32.9487 91.3181 23.3707 80.8854 20.4815Z" fill="#6A8B9E"/>
<path d="M83.4196 38.2784H80.3105V35.1693C80.3105 31.8554 77.6145 29.1592 74.3006 29.1592C70.9867 29.1592 68.2906 31.8552 68.2906 35.1693V38.2784H65.1815C61.8676 38.2784 59.1714 40.9745 59.1714 44.2884C59.1714 47.6023 61.8674 50.2983 65.1815 50.2983H68.2906V53.4074C68.2906 56.7213 70.9867 59.4175 74.3006 59.4175C77.6145 59.4175 80.3105 56.7215 80.3105 53.4074V50.2983H83.4196C86.7335 50.2983 89.4298 47.6023 89.4298 44.2884C89.4298 40.9745 86.7337 38.2784 83.4196 38.2784ZM83.4196 47.3977H78.8601C78.0591 47.3977 77.4097 48.0471 77.4097 48.8481V53.4076C77.4097 55.122 76.015 56.5169 74.3006 56.5169C72.5862 56.5169 71.1915 55.1222 71.1915 53.4076V48.8481C71.1915 48.0471 70.5421 47.3977 69.741 47.3977H65.1815C63.4671 47.3977 62.0722 46.0029 62.0722 44.2886C62.0722 42.5742 63.4669 41.1794 65.1815 41.1794H69.741C70.5421 41.1794 71.1915 40.53 71.1915 39.729V35.1695C71.1915 33.4551 72.5862 32.0602 74.3006 32.0602C76.015 32.0602 77.4097 33.4549 77.4097 35.1695V39.729C77.4097 40.53 78.0591 41.1794 78.8601 41.1794H83.4196C85.134 41.1794 86.5289 42.5742 86.5289 44.2886C86.5289 46.0029 85.1342 47.3977 83.4196 47.3977Z" fill="#6A8B9E"/>
</svg>
