<svg width="54" height="54" viewBox="0 0 54 54" fill="none" xmlns="http://www.w3.org/2000/svg">
<g filter="url(#filter0_d)">
<path d="M43.2635 6.73648C38.9193 2.39245 33.1435 0 27 0C20.8565 0 15.0807 2.39245 10.7365 6.73648C6.39245 11.0806 4 16.8565 4 23C4 29.1435 6.39245 34.9194 10.7365 39.2635C15.0807 43.6075 20.8565 46 27 46C33.1435 46 38.9193 43.6075 43.2635 39.2635C47.6075 34.9194 50 29.1435 50 23C50 16.8565 47.6075 11.0806 43.2635 6.73648ZM27 44.6523C15.0608 44.6523 5.34766 34.9392 5.34766 23C5.34766 11.0608 15.0608 1.34766 27 1.34766C38.9392 1.34766 48.6523 11.0608 48.6523 23C48.6523 34.9392 38.9392 44.6523 27 44.6523Z" fill="#A69398" fill-opacity="0.65"/>
<path d="M41.7167 16.3692L33.6307 8.28323C33.3676 8.02017 32.9409 8.02017 32.6779 8.28323L24.5919 16.3692C24.3992 16.562 24.3415 16.8517 24.4458 17.1036C24.5501 17.3554 24.7959 17.5195 25.0684 17.5195H27.0898V19.541C27.0898 19.9132 27.3915 20.2148 27.7637 20.2148C28.1358 20.2148 28.4375 19.9132 28.4375 19.541V16.8457C28.4375 16.4735 28.1358 16.1719 27.7637 16.1719H26.6951L33.1543 9.71265L39.6135 16.1719H38.5449C38.1728 16.1719 37.8711 16.4735 37.8711 16.8457V24.3477C37.8711 31.085 32.3898 36.5664 25.6523 36.5664C18.9149 36.5664 13.4336 31.085 13.4336 24.3477V23.6738H14.7812V24.3477C14.7812 28.1126 17.8443 31.1758 21.6094 31.1758C25.3745 31.1758 28.4375 28.1126 28.4375 24.3477V22.2363C28.4375 21.8641 28.1358 21.5625 27.7637 21.5625C27.3915 21.5625 27.0898 21.8641 27.0898 22.2363V24.3477C27.0898 27.3696 24.6314 29.8281 21.6094 29.8281C18.5874 29.8281 16.1289 27.3696 16.1289 24.3477V23C16.1289 22.6278 15.8272 22.3262 15.4551 22.3262H12.7598C12.3876 22.3262 12.0859 22.6278 12.0859 23V24.3477C12.0859 31.8282 18.1718 37.9141 25.6523 37.9141C33.1329 37.9141 39.2188 31.8282 39.2188 24.3477V17.5195H41.2402C41.5128 17.5195 41.7585 17.3554 41.8628 17.1036C41.9671 16.8517 41.9094 16.562 41.7167 16.3692Z" fill="#A69398" fill-opacity="0.65"/>
</g>
<defs>
<filter id="filter0_d" x="0" y="0" width="54" height="54" filterUnits="userSpaceOnUse" color-interpolation-filters="sRGB">
<feFlood flood-opacity="0" result="BackgroundImageFix"/>
<feColorMatrix in="SourceAlpha" type="matrix" values="0 0 0 0 0 0 0 0 0 0 0 0 0 0 0 0 0 0 127 0"/>
<feOffset dy="4"/>
<feGaussianBlur stdDeviation="2"/>
<feColorMatrix type="matrix" values="0 0 0 0 0 0 0 0 0 0 0 0 0 0 0 0 0 0 0.25 0"/>
<feBlend mode="normal" in2="BackgroundImageFix" result="effect1_dropShadow"/>
<feBlend mode="normal" in="SourceGraphic" in2="effect1_dropShadow" result="shape"/>
</filter>
</defs>
</svg>
