<svg width="91" height="97" viewBox="0 0 91 97" fill="none" xmlns="http://www.w3.org/2000/svg">
<g filter="url(#filter0_d)">
<path d="M16.1894 13.7283H55.9048C56.6188 13.7283 57.1977 13.1495 57.1977 12.4354C57.1977 11.7214 56.6188 11.1425 55.9048 11.1425H16.1894C15.4754 11.1425 14.8965 11.7214 14.8965 12.4354C14.8965 13.1495 15.4754 13.7283 16.1894 13.7283Z" fill="#A69398"/>
<path d="M16.1894 25.9207H55.9048C56.6188 25.9207 57.1977 25.3418 57.1977 24.6278C57.1977 23.9137 56.6188 23.3348 55.9048 23.3348H16.1894C15.4754 23.3348 14.8965 23.9137 14.8965 24.6278C14.8965 25.3418 15.4754 25.9207 16.1894 25.9207Z" fill="#A69398"/>
<path d="M16.1894 38.1128H55.9048C56.6188 38.1128 57.1977 37.5339 57.1977 36.8199C57.1977 36.1059 56.6188 35.527 55.9048 35.527H16.1894C15.4754 35.527 14.8965 36.1059 14.8965 36.8199C14.8965 37.5341 15.4754 38.1128 16.1894 38.1128Z" fill="#A69398"/>
<path d="M16.1894 50.3054H55.9048C56.6188 50.3054 57.1977 49.7265 57.1977 49.0125C57.1977 48.2984 56.6188 47.7195 55.9048 47.7195H16.1894C15.4754 47.7195 14.8965 48.2984 14.8965 49.0125C14.8965 49.7265 15.4754 50.3054 16.1894 50.3054Z" fill="#A69398"/>
<path d="M16.1894 60.9745H22.8365C23.5506 60.9745 24.1294 60.3956 24.1294 59.6816C24.1294 58.9676 23.5506 58.3887 22.8365 58.3887H16.1894C15.4754 58.3887 14.8965 58.9676 14.8965 59.6816C14.8965 60.3956 15.4754 60.9745 16.1894 60.9745Z" fill="#A69398"/>
<path d="M49.2186 56.0399C48.9045 55.8125 48.5053 55.7382 48.1301 55.837C47.7552 55.936 47.4445 56.1978 47.2837 56.5507L46.0184 59.326L42.9281 56.2718C42.5342 55.8827 41.9362 55.7875 41.4408 56.0351L29.7616 61.8775C29.1229 62.1969 28.8643 62.9736 29.1838 63.6123C29.4103 64.0651 29.8668 64.3271 30.341 64.327C30.5355 64.327 30.7329 64.283 30.9185 64.1901L41.7692 58.7621L45.5176 62.4667C45.8181 62.7638 46.2445 62.8951 46.66 62.8187C47.0755 62.7424 47.4275 62.4679 47.6028 62.0835L48.981 59.0608L55.1463 63.5261C55.7249 63.9448 56.533 63.8155 56.9519 63.2373C57.3708 62.6589 57.2416 61.8506 56.6632 61.4317L49.2186 56.0399Z" fill="#A69398"/>
<path d="M83.9834 17.8284H81.8763V12.7723C81.8763 9.6855 79.3651 7.17432 76.2781 7.17432C73.1914 7.17432 70.6802 9.6855 70.6802 12.7723V56.2288C70.6802 58.8705 72.5201 61.0892 74.9852 61.6744V65.1793C74.9852 65.8933 75.5641 66.4722 76.2781 66.4722C76.9922 66.4722 77.5711 65.8933 77.5711 65.1793V61.6744C80.0364 61.0892 81.8763 58.8705 81.8763 56.2288V45.941C81.8763 45.227 81.2974 44.6481 80.5834 44.6481C79.8693 44.6481 79.2905 45.227 79.2905 45.941V48.5867H73.266V20.4143H79.2905V40.3064C79.2905 41.0204 79.8693 41.5993 80.5834 41.5993C81.2974 41.5993 81.8763 41.0204 81.8763 40.3064V20.4143H83.9834C84.2209 20.4143 84.4144 20.6077 84.4144 20.8452V35.8063C84.4144 36.5204 84.9932 37.0992 85.7073 37.0992C86.4213 37.0992 87.0002 36.5204 87.0002 35.8063V20.8452C87.0002 19.1819 85.6468 17.8284 83.9834 17.8284ZM79.2905 51.1725V56.2288C79.2905 57.8898 77.9391 59.241 76.2781 59.241C74.6172 59.241 73.266 57.8898 73.266 56.2288V51.1725H79.2905ZM73.266 17.8284V12.7723C73.266 11.1113 74.6172 9.76014 76.2781 9.76014C77.9391 9.76014 79.2905 11.1113 79.2905 12.7723V17.8284H73.266Z" fill="#A69398"/>
<path d="M81.6279 69.058H68.094V3.0168C68.094 1.35342 66.7406 0 65.0772 0H7.0168C5.35342 0 4 1.35342 4 3.0168V34.2817C4 34.9957 4.57888 35.5746 5.29291 35.5746C6.00695 35.5746 6.58583 34.9957 6.58583 34.2817V3.0168C6.58583 2.77925 6.77925 2.58583 7.0168 2.58583H65.0772C65.3148 2.58583 65.5082 2.77925 65.5082 3.0168V69.058H48.3173C47.6033 69.058 47.0244 69.6369 47.0244 70.3509C47.0244 71.0649 47.6033 71.6438 48.3173 71.6438H81.6279C81.8655 71.6438 82.0589 71.8372 82.0589 72.0748V78.6947C82.0589 82.5448 78.9266 85.6771 75.0765 85.6771H20.0244C21.9355 83.9254 23.1365 81.4108 23.1365 78.6262V72.0748C23.1365 71.8372 23.3299 71.6438 23.5675 71.6438H42.6826C43.3966 71.6438 43.9755 71.0649 43.9755 70.3509C43.9755 69.6369 43.3966 69.058 42.6826 69.058H23.5675C21.9041 69.058 20.5507 70.4114 20.5507 72.0748V78.6262C20.5507 82.4601 17.4315 85.5919 13.5976 85.6078C9.74743 85.6078 6.586 82.5448 6.586 78.6947V39.9164C6.586 39.2024 6.00712 38.6235 5.29309 38.6235C4.57905 38.6235 4.00017 39.2024 4.00017 39.9164V78.6947C4.00017 83.9706 8.29247 88.2629 13.5684 88.2629H75.0766C80.3526 88.2629 84.6449 83.9706 84.6449 78.6947V72.0748C84.6447 70.4112 83.2915 69.058 81.6279 69.058Z" fill="#A69398"/>
</g>
<defs>
<filter id="filter0_d" x="0" y="0" width="91.0002" height="96.2629" filterUnits="userSpaceOnUse" color-interpolation-filters="sRGB">
<feFlood flood-opacity="0" result="BackgroundImageFix"/>
<feColorMatrix in="SourceAlpha" type="matrix" values="0 0 0 0 0 0 0 0 0 0 0 0 0 0 0 0 0 0 127 0"/>
<feOffset dy="4"/>
<feGaussianBlur stdDeviation="2"/>
<feColorMatrix type="matrix" values="0 0 0 0 0 0 0 0 0 0 0 0 0 0 0 0 0 0 0.25 0"/>
<feBlend mode="normal" in2="BackgroundImageFix" result="effect1_dropShadow"/>
<feBlend mode="normal" in="SourceGraphic" in2="effect1_dropShadow" result="shape"/>
</filter>
</defs>
</svg>
