<svg width="86" height="86" viewBox="0 0 86 86" fill="none" xmlns="http://www.w3.org/2000/svg">
<g filter="url(#filter0_d)">
<path d="M37 37.5756C37 39.8321 38.5633 41.7292 40.6635 42.2435V55.8937C40.6635 56.5247 41.1751 57.0362 41.8061 57.0362C42.4371 57.0362 42.9487 56.5247 42.9487 55.8937V42.2435C45.0488 41.7293 46.6122 39.8321 46.6122 37.5756C46.6122 36.6638 46.3568 35.8106 45.9141 35.0833L56.047 24.9504C56.4932 24.5042 56.4932 23.7807 56.047 23.3347C55.6008 22.8884 54.8773 22.8884 54.4313 23.3347L44.2984 33.4675C43.5713 33.0248 42.718 32.7695 41.8061 32.7695C39.1561 32.7695 37 34.9256 37 37.5756ZM41.8062 35.0546C43.1964 35.0546 44.3272 36.1855 44.3272 37.5756C44.3272 38.9657 43.1964 40.0967 41.8062 40.0967C40.4161 40.0967 39.2853 38.9657 39.2853 37.5756C39.2851 36.1855 40.4161 35.0546 41.8062 35.0546Z" fill="#A69398"/>
<path d="M19.7188 38.9995C19.7188 38.3685 19.2072 37.8569 18.5762 37.8569H14.9126C14.2816 37.8569 13.77 38.3685 13.77 38.9995C13.77 39.6307 14.2816 40.1421 14.9126 40.1421H18.5762C19.2072 40.1421 19.7188 39.6307 19.7188 38.9995Z" fill="#A69398"/>
<path d="M72.2305 38.9995C72.2305 38.3685 71.7189 37.8569 71.0879 37.8569H67.4243C66.7933 37.8569 66.2817 38.3685 66.2817 38.9995C66.2817 39.6307 66.7933 40.1421 67.4243 40.1421H71.0879C71.7189 40.1421 72.2305 39.6307 72.2305 38.9995Z" fill="#A69398"/>
<path d="M44.1431 14.5758V10.9121C44.1431 10.2811 43.6315 9.76953 43.0005 9.76953C42.3695 9.76953 41.8579 10.2811 41.8579 10.9121V14.5758C41.8579 15.2068 42.3695 15.7184 43.0005 15.7184C43.6315 15.7184 44.1431 15.2067 44.1431 14.5758Z" fill="#A69398"/>
<path d="M43.0005 62.2809C42.3695 62.2809 41.8579 62.7925 41.8579 63.4235V67.087C41.8579 67.718 42.3695 68.2296 43.0005 68.2296C43.6315 68.2296 44.1431 67.718 44.1431 67.087V63.4235C44.1431 62.7925 43.6315 62.2809 43.0005 62.2809Z" fill="#A69398"/>
<path d="M28.3854 64.3134C28.5653 64.4175 28.7619 64.4667 28.9556 64.4667C29.3505 64.4667 29.7346 64.2618 29.9462 63.8953L31.778 60.7226C32.0935 60.1759 31.9062 59.4771 31.3598 59.1618C30.8133 58.8461 30.1145 59.0334 29.799 59.58L27.9672 62.7527C27.6517 63.2993 27.839 63.9981 28.3854 64.3134Z" fill="#A69398"/>
<path d="M57.6151 13.6856C57.0685 13.3701 56.3699 13.5573 56.0544 14.1038L54.2226 17.2767C53.9071 17.8231 54.0943 18.5219 54.6408 18.8374C54.8207 18.9413 55.0172 18.9907 55.211 18.9907C55.6059 18.9907 55.9899 18.7856 56.2015 18.4192L58.0333 15.2464C58.349 14.6999 58.1618 14.0011 57.6151 13.6856Z" fill="#A69398"/>
<path d="M22.4199 25.7983L19.2472 23.9665C18.7008 23.651 18.002 23.8382 17.6865 24.3847C17.371 24.9311 17.5582 25.6299 18.1047 25.9454L21.2774 27.7772C21.4573 27.8811 21.6538 27.9305 21.8476 27.9305C22.2425 27.9305 22.6265 27.7256 22.8381 27.359C23.1536 26.8126 22.9664 26.1138 22.4199 25.7983Z" fill="#A69398"/>
<path d="M67.3238 54.1861C67.7187 54.1861 68.1027 53.9812 68.3144 53.6147C68.6299 53.0682 68.4426 52.3694 67.8962 52.0539L64.7233 50.222C64.1768 49.9065 63.478 50.0937 63.1625 50.6402C62.847 51.1866 63.0343 51.8854 63.5807 52.2009L66.7536 54.0327C66.9335 54.1368 67.1299 54.1861 67.3238 54.1861Z" fill="#A69398"/>
<path d="M56.2016 59.58C55.8859 59.0334 55.1871 58.8463 54.6408 59.1618C54.0943 59.4773 53.9071 60.1761 54.2226 60.7226L56.0544 63.8953C56.266 64.2619 56.6501 64.4668 57.0449 64.4668C57.2387 64.4668 57.4352 64.4174 57.6152 64.3135C58.1616 63.998 58.3488 63.2992 58.0333 62.7527L56.2016 59.58Z" fill="#A69398"/>
<path d="M29.799 18.4193C30.0106 18.7858 30.3947 18.9907 30.7896 18.9907C30.9833 18.9907 31.1799 18.9414 31.3598 18.8375C31.9062 18.522 32.0935 17.8232 31.778 17.2767L29.9462 14.1039C29.6305 13.5574 28.9319 13.3703 28.3854 13.6857C27.839 14.0012 27.6517 14.7 27.9672 15.2464L29.799 18.4193Z" fill="#A69398"/>
<path d="M64.1531 27.9304C64.3469 27.9304 64.5434 27.8811 64.7233 27.7772L67.8962 25.9454C68.4426 25.6299 68.6299 24.9311 68.3144 24.3846C67.9988 23.8382 67.3 23.6511 66.7536 23.9664L63.5807 25.7982C63.0343 26.1137 62.847 26.8125 63.1625 27.359C63.3741 27.7255 63.7582 27.9304 64.1531 27.9304Z" fill="#A69398"/>
<path d="M18.677 54.1862C18.8708 54.1862 19.0673 54.1368 19.2472 54.0329L22.4199 52.2011C22.9664 51.8856 23.1536 51.1868 22.8381 50.6403C22.5226 50.0939 21.824 49.9068 21.2774 50.2222L18.1047 52.0539C17.5582 52.3695 17.371 53.0683 17.6865 53.6147C17.8981 53.9813 18.2821 54.1862 18.677 54.1862Z" fill="#A69398"/>
<path d="M18.7983 16.6402C18.3204 16.2279 17.5989 16.2811 17.1868 16.7589C12.4163 22.2873 9.5862 28.9878 9.00257 36.1358C8.18648 46.1325 11.7472 55.9301 18.7717 63.0161C25.2066 69.5076 33.9382 73.1126 43.0423 73.1126C43.877 73.1126 44.7149 73.0823 45.5544 73.0212C52.8062 72.4927 59.6106 69.6515 65.2318 64.8043C65.7097 64.3922 65.7631 63.6709 65.351 63.193C64.9391 62.7151 64.2177 62.6616 63.7395 63.0739C58.4929 67.598 52.147 70.2496 45.3884 70.742C36.0582 71.4218 26.9489 68.0194 20.3946 61.4074C13.8405 54.7958 10.5184 45.6525 11.2801 36.3219C11.8241 29.6598 14.4648 23.411 18.9168 18.2517C19.3291 17.7739 19.2761 17.0524 18.7983 16.6402Z" fill="#A69398"/>
<path d="M80.8662 29.6496C80.7066 29.0024 80.274 28.4523 79.6798 28.1403C79.0777 27.8242 78.3681 27.7808 77.7331 28.0212C76.7068 28.4097 75.8941 28.736 75.3173 28.9907C74.2827 29.4477 73.722 30.5871 73.984 31.6999C74.8441 35.3507 75.0498 39.1202 74.595 42.9035C73.8495 49.1073 71.2534 54.9326 67.0873 59.7496C66.6746 60.2269 66.7269 60.9484 67.2042 61.3611C67.6816 61.7741 68.4031 61.7217 68.8158 61.2444C73.2808 56.0817 76.0638 49.8337 76.8639 43.1762C77.3506 39.1259 77.1302 35.0883 76.2083 31.176C76.2055 31.1639 76.1936 31.102 76.2409 31.081C76.7726 30.8461 77.5685 30.5271 78.5424 30.1582C78.5738 30.1465 78.6004 30.1547 78.6176 30.1636C78.6426 30.1767 78.6461 30.1908 78.6476 30.1969C79.6127 34.1103 79.9253 38.1528 79.5768 42.2117C78.0278 60.2484 63.2262 74.6252 45.1473 75.6532C39.762 75.9593 34.5228 75.1278 29.5728 73.1816C24.812 71.3098 20.5616 68.5103 16.94 64.861C13.319 61.2124 10.5527 56.9418 8.71794 52.1682C6.80894 47.2014 6.01722 41.951 6.36486 36.5625C6.94224 27.6135 10.839 19.1799 17.3373 12.8153C23.8336 6.45276 32.3477 2.72663 41.3114 2.32353C51.4348 1.86833 61.0427 5.48143 68.3641 12.4977C68.773 12.8895 69.4067 12.9227 69.8543 12.5761L71.9473 10.9554C71.9621 10.944 71.9845 10.9267 72.0269 10.9455C72.0697 10.9642 72.0721 10.9922 72.0738 11.0108L72.9039 20.4623C72.9053 20.4772 72.9076 20.5051 72.8737 20.5314C72.8399 20.5576 72.8134 20.5484 72.7992 20.5435L63.856 17.3746C63.8385 17.3684 63.812 17.3591 63.8047 17.3129C63.7972 17.2669 63.8194 17.2497 63.8342 17.2384L65.9618 15.5907C66.2281 15.3844 66.3899 15.0712 66.4038 14.7345C66.4176 14.398 66.2825 14.0724 66.034 13.8449C62.5443 10.647 58.5182 8.25085 54.0676 6.72317C49.4222 5.12876 44.5454 4.56677 39.5721 5.05304C32.6163 5.73325 26.1064 8.54122 20.7459 13.1738C20.2685 13.5863 20.216 14.308 20.6285 14.7854C21.041 15.2629 21.7627 15.3154 22.2401 14.9029C27.2412 10.5809 33.3114 7.9614 39.7945 7.32736C44.4394 6.87322 48.9921 7.39713 53.3257 8.8846C57.0498 10.163 60.4556 12.0934 63.4681 14.6315L62.435 15.4316C61.7509 15.9615 61.4111 16.821 61.5483 17.6753C61.6856 18.5297 62.2773 19.2397 63.0928 19.5287L72.0362 22.6976C72.798 22.9675 73.6339 22.8332 74.2728 22.3385C74.9118 21.8437 75.2509 21.0678 75.1803 20.2629L74.3502 10.8113C74.2745 9.94947 73.7351 9.19872 72.9423 8.85215C72.1495 8.50557 71.2322 8.61937 70.5482 9.14921L69.2245 10.1743C61.543 3.16385 51.6345 -0.427919 41.2087 0.040685C31.6824 0.469223 22.6368 4.42631 15.7383 11.1828C8.83692 17.9421 4.69809 26.9033 4.08445 36.4154C3.71548 42.1352 4.55671 47.7109 6.58484 52.9879C8.53406 58.0594 11.4724 62.5957 15.318 66.4706C19.1643 70.3464 23.679 73.3198 28.7367 75.3081C33.2883 77.0977 38.0677 78.0002 42.9769 78C43.7403 78 44.5078 77.9781 45.2771 77.9344C64.4835 76.8424 80.2079 61.5689 81.8537 42.407C82.2236 38.0986 81.8913 33.8064 80.8662 29.6496Z" fill="#A69398"/>
</g>
<defs>
<filter id="filter0_d" x="0" y="0" width="86" height="86" filterUnits="userSpaceOnUse" color-interpolation-filters="sRGB">
<feFlood flood-opacity="0" result="BackgroundImageFix"/>
<feColorMatrix in="SourceAlpha" type="matrix" values="0 0 0 0 0 0 0 0 0 0 0 0 0 0 0 0 0 0 127 0"/>
<feOffset dy="4"/>
<feGaussianBlur stdDeviation="2"/>
<feColorMatrix type="matrix" values="0 0 0 0 0 0 0 0 0 0 0 0 0 0 0 0 0 0 0.25 0"/>
<feBlend mode="normal" in2="BackgroundImageFix" result="effect1_dropShadow"/>
<feBlend mode="normal" in="SourceGraphic" in2="effect1_dropShadow" result="shape"/>
</filter>
</defs>
</svg>
