<svg width="78" height="78" viewBox="0 0 78 78" fill="none" xmlns="http://www.w3.org/2000/svg">
<path d="M33 37.5756C33 39.8321 34.5633 41.7292 36.6635 42.2435V55.8937C36.6635 56.5247 37.1751 57.0362 37.8061 57.0362C38.4371 57.0362 38.9487 56.5247 38.9487 55.8937V42.2435C41.0488 41.7293 42.6122 39.8321 42.6122 37.5756C42.6122 36.6638 42.3568 35.8106 41.9141 35.0833L52.047 24.9504C52.4932 24.5042 52.4932 23.7807 52.047 23.3347C51.6008 22.8884 50.8773 22.8884 50.4313 23.3347L40.2984 33.4675C39.5713 33.0248 38.718 32.7695 37.8061 32.7695C35.1561 32.7695 33 34.9256 33 37.5756ZM37.8062 35.0546C39.1964 35.0546 40.3272 36.1855 40.3272 37.5756C40.3272 38.9657 39.1964 40.0967 37.8062 40.0967C36.4161 40.0967 35.2853 38.9657 35.2853 37.5756C35.2851 36.1855 36.4161 35.0546 37.8062 35.0546Z" fill="#A69398"/>
<path d="M15.7188 38.9995C15.7188 38.3685 15.2072 37.8569 14.5762 37.8569H10.9126C10.2816 37.8569 9.77002 38.3685 9.77002 38.9995C9.77002 39.6307 10.2816 40.1421 10.9126 40.1421H14.5762C15.2072 40.1421 15.7188 39.6307 15.7188 38.9995Z" fill="#A69398"/>
<path d="M68.2305 38.9995C68.2305 38.3685 67.7189 37.8569 67.0879 37.8569H63.4243C62.7933 37.8569 62.2817 38.3685 62.2817 38.9995C62.2817 39.6307 62.7933 40.1421 63.4243 40.1421H67.0879C67.7189 40.1421 68.2305 39.6307 68.2305 38.9995Z" fill="#A69398"/>
<path d="M40.1431 14.5758V10.9121C40.1431 10.2811 39.6315 9.76953 39.0005 9.76953C38.3695 9.76953 37.8579 10.2811 37.8579 10.9121V14.5758C37.8579 15.2068 38.3695 15.7184 39.0005 15.7184C39.6315 15.7184 40.1431 15.2067 40.1431 14.5758Z" fill="#A69398"/>
<path d="M39.0005 62.2809C38.3695 62.2809 37.8579 62.7925 37.8579 63.4235V67.087C37.8579 67.718 38.3695 68.2296 39.0005 68.2296C39.6315 68.2296 40.1431 67.718 40.1431 67.087V63.4235C40.1431 62.7925 39.6315 62.2809 39.0005 62.2809Z" fill="#A69398"/>
<path d="M24.3854 64.3134C24.5653 64.4175 24.7619 64.4667 24.9556 64.4667C25.3505 64.4667 25.7346 64.2618 25.9462 63.8953L27.778 60.7226C28.0935 60.1759 27.9062 59.4771 27.3598 59.1618C26.8133 58.8461 26.1145 59.0334 25.799 59.58L23.9672 62.7527C23.6517 63.2993 23.839 63.9981 24.3854 64.3134Z" fill="#A69398"/>
<path d="M53.6151 13.6856C53.0685 13.3701 52.3699 13.5573 52.0544 14.1038L50.2226 17.2767C49.9071 17.8231 50.0943 18.5219 50.6408 18.8374C50.8207 18.9413 51.0172 18.9907 51.211 18.9907C51.6059 18.9907 51.9899 18.7856 52.2015 18.4192L54.0333 15.2464C54.349 14.6999 54.1618 14.0011 53.6151 13.6856Z" fill="#A69398"/>
<path d="M18.4199 25.7983L15.2472 23.9665C14.7008 23.651 14.002 23.8382 13.6865 24.3847C13.371 24.9311 13.5582 25.6299 14.1047 25.9454L17.2774 27.7772C17.4573 27.8811 17.6538 27.9305 17.8476 27.9305C18.2425 27.9305 18.6265 27.7256 18.8381 27.359C19.1536 26.8126 18.9664 26.1138 18.4199 25.7983Z" fill="#A69398"/>
<path d="M63.3238 54.1861C63.7187 54.1861 64.1027 53.9812 64.3144 53.6147C64.6299 53.0682 64.4426 52.3694 63.8962 52.0539L60.7233 50.222C60.1768 49.9065 59.478 50.0937 59.1625 50.6402C58.847 51.1866 59.0343 51.8854 59.5807 52.2009L62.7536 54.0327C62.9335 54.1368 63.1299 54.1861 63.3238 54.1861Z" fill="#A69398"/>
<path d="M52.2016 59.58C51.8859 59.0334 51.1871 58.8463 50.6408 59.1618C50.0943 59.4773 49.9071 60.1761 50.2226 60.7226L52.0544 63.8953C52.266 64.2619 52.6501 64.4668 53.0449 64.4668C53.2387 64.4668 53.4352 64.4174 53.6152 64.3135C54.1616 63.998 54.3488 63.2992 54.0333 62.7527L52.2016 59.58Z" fill="#A69398"/>
<path d="M25.799 18.4193C26.0106 18.7858 26.3947 18.9907 26.7896 18.9907C26.9833 18.9907 27.1799 18.9414 27.3598 18.8375C27.9062 18.522 28.0935 17.8232 27.778 17.2767L25.9462 14.1039C25.6305 13.5574 24.9319 13.3703 24.3854 13.6857C23.839 14.0012 23.6517 14.7 23.9672 15.2464L25.799 18.4193Z" fill="#A69398"/>
<path d="M60.1531 27.9304C60.3469 27.9304 60.5434 27.8811 60.7233 27.7772L63.8962 25.9454C64.4426 25.6299 64.6299 24.9311 64.3144 24.3846C63.9988 23.8382 63.3 23.6511 62.7536 23.9664L59.5807 25.7982C59.0343 26.1137 58.847 26.8125 59.1625 27.359C59.3741 27.7255 59.7582 27.9304 60.1531 27.9304Z" fill="#A69398"/>
<path d="M14.677 54.1862C14.8708 54.1862 15.0673 54.1368 15.2472 54.0329L18.4199 52.2011C18.9664 51.8856 19.1536 51.1868 18.8381 50.6403C18.5226 50.0939 17.824 49.9068 17.2774 50.2222L14.1047 52.0539C13.5582 52.3695 13.371 53.0683 13.6865 53.6147C13.8981 53.9813 14.2821 54.1862 14.677 54.1862Z" fill="#A69398"/>
<path d="M14.7983 16.6402C14.3204 16.2279 13.5989 16.2811 13.1868 16.7589C8.41625 22.2873 5.5862 28.9878 5.00257 36.1358C4.18648 46.1325 7.74717 55.9301 14.7717 63.0161C21.2066 69.5076 29.9382 73.1126 39.0423 73.1126C39.877 73.1126 40.7149 73.0823 41.5544 73.0212C48.8062 72.4927 55.6106 69.6515 61.2318 64.8043C61.7097 64.3922 61.7631 63.6709 61.351 63.193C60.9391 62.7151 60.2177 62.6616 59.7395 63.0739C54.4929 67.598 48.147 70.2496 41.3884 70.742C32.0582 71.4218 22.9489 68.0194 16.3946 61.4074C9.8405 54.7958 6.51838 45.6525 7.28009 36.3219C7.8241 29.6598 10.4648 23.411 14.9168 18.2517C15.3291 17.7739 15.2761 17.0524 14.7983 16.6402Z" fill="#A69398"/>
<path d="M76.8662 29.6496C76.7066 29.0024 76.274 28.4523 75.6798 28.1403C75.0777 27.8242 74.3681 27.7808 73.7331 28.0212C72.7068 28.4097 71.8941 28.736 71.3173 28.9907C70.2827 29.4477 69.722 30.5871 69.984 31.6999C70.8441 35.3507 71.0498 39.1202 70.595 42.9035C69.8495 49.1073 67.2534 54.9326 63.0873 59.7496C62.6746 60.2269 62.7269 60.9484 63.2042 61.3611C63.6816 61.7741 64.4031 61.7217 64.8158 61.2444C69.2808 56.0817 72.0638 49.8337 72.8639 43.1762C73.3506 39.1259 73.1302 35.0883 72.2083 31.176C72.2055 31.1639 72.1936 31.102 72.2409 31.081C72.7726 30.8461 73.5685 30.5271 74.5424 30.1582C74.5738 30.1465 74.6004 30.1547 74.6176 30.1636C74.6426 30.1767 74.6461 30.1908 74.6476 30.1969C75.6127 34.1103 75.9253 38.1528 75.5768 42.2117C74.0278 60.2484 59.2262 74.6252 41.1473 75.6532C35.762 75.9593 30.5228 75.1278 25.5728 73.1816C20.812 71.3098 16.5616 68.5103 12.94 64.861C9.31897 61.2124 6.55274 56.9418 4.71794 52.1682C2.80894 47.2014 2.01722 41.951 2.36486 36.5625C2.94224 27.6135 6.83899 19.1799 13.3373 12.8153C19.8336 6.45276 28.3477 2.72663 37.3114 2.32353C47.4348 1.86833 57.0427 5.48143 64.3641 12.4977C64.773 12.8895 65.4067 12.9227 65.8543 12.5761L67.9473 10.9554C67.9621 10.944 67.9845 10.9267 68.0269 10.9455C68.0697 10.9642 68.0721 10.9922 68.0738 11.0108L68.9039 20.4623C68.9053 20.4772 68.9076 20.5051 68.8737 20.5314C68.8399 20.5576 68.8134 20.5484 68.7992 20.5435L59.856 17.3746C59.8385 17.3684 59.812 17.3591 59.8047 17.3129C59.7972 17.2669 59.8194 17.2497 59.8342 17.2384L61.9618 15.5907C62.2281 15.3844 62.3899 15.0712 62.4038 14.7345C62.4176 14.398 62.2825 14.0724 62.034 13.8449C58.5443 10.647 54.5182 8.25085 50.0676 6.72317C45.4222 5.12876 40.5454 4.56677 35.5721 5.05304C28.6163 5.73325 22.1064 8.54122 16.7459 13.1738C16.2685 13.5863 16.216 14.308 16.6285 14.7854C17.041 15.2629 17.7627 15.3154 18.2401 14.9029C23.2412 10.5809 29.3114 7.9614 35.7945 7.32736C40.4394 6.87322 44.9921 7.39713 49.3257 8.8846C53.0498 10.163 56.4556 12.0934 59.4681 14.6315L58.435 15.4316C57.7509 15.9615 57.4111 16.821 57.5483 17.6753C57.6856 18.5297 58.2773 19.2397 59.0928 19.5287L68.0362 22.6976C68.798 22.9675 69.6339 22.8332 70.2728 22.3385C70.9118 21.8437 71.2509 21.0678 71.1803 20.2629L70.3502 10.8113C70.2745 9.94947 69.7351 9.19872 68.9423 8.85215C68.1495 8.50557 67.2322 8.61937 66.5482 9.14921L65.2245 10.1743C57.543 3.16385 47.6345 -0.427919 37.2087 0.040685C27.6824 0.469223 18.6368 4.42631 11.7383 11.1828C4.83692 17.9421 0.698087 26.9033 0.0844531 36.4154C-0.284519 42.1352 0.556713 47.7109 2.58484 52.9879C4.53406 58.0594 7.47243 62.5957 11.318 66.4706C15.1643 70.3464 19.679 73.3198 24.7367 75.3081C29.2883 77.0977 34.0677 78.0002 38.9769 78C39.7403 78 40.5078 77.9781 41.2771 77.9344C60.4835 76.8424 76.2079 61.5689 77.8537 42.407C78.2236 38.0986 77.8913 33.8064 76.8662 29.6496Z" fill="#A69398"/>
</svg>
